<svg width="43" height="43" viewBox="0 0 43 43" fill="none" xmlns="http://www.w3.org/2000/svg">
    <path d="M14.1379 17.9847C15.1239 17.9847 15.9242 17.1844 15.9242 16.1983V9.23167C15.9242 6.11721 18.4581 3.58241 21.5726 3.58241C24.687 3.58241 27.2218 6.11721 27.2218 9.23167V16.1983C27.2218 17.1844 28.0212 17.9847 29.0081 17.9847C29.9942 17.9847 30.7945 17.1844 30.7945 16.1983V9.23167C30.7954 4.14689 26.6582 0.00976562 21.5726 0.00976562C16.4887 0.00976562 12.3516 4.14689 12.3516 9.23167V16.1983C12.3516 17.1844 13.1518 17.9847 14.1379 17.9847Z" fill="currentColor"/>
    <path d="M42.0635 13.9707H32.5817V16.1982C32.5817 18.1686 30.9794 19.7709 29.0091 19.7709C27.0388 19.7709 25.4364 18.1686 25.4364 16.1982V13.9707H17.7115V16.1982C17.7115 18.1686 16.1091 19.7709 14.1388 19.7709C12.1685 19.7709 10.5662 18.1686 10.5662 16.1982V13.9707H0.978068C0.485042 13.9707 0.180474 14.3592 0.297478 14.838L6.54783 40.2904C6.92474 41.7213 8.43061 42.8815 9.90969 42.8815H33.1319C34.6128 42.8815 36.1169 41.7213 36.4956 40.2904L42.7441 14.838C42.8611 14.3583 42.5574 13.9707 42.0635 13.9707Z" fill="currentColor"/>
</svg>
