<svg width="17" height="17" viewBox="0 0 17 17" fill="none" xmlns="http://www.w3.org/2000/svg">
    <path d="M15.6153 9.20015L15.291 9.02574C14.905 8.81863 14.6744 8.44686 14.6744 8.03206C14.6744 7.61726 14.905 7.24549 15.291 7.03838L15.6153 6.86397C16.5006 6.38778 16.8034 5.33673 16.2923 4.51287L15.6757 3.51919C15.1658 2.69705 14.032 2.41478 13.1491 2.88925L12.8248 3.06308C12.4388 3.27077 11.977 3.27077 11.5917 3.06308C11.2057 2.8554 10.9751 2.4842 10.9751 2.0694V1.72116C10.9751 0.772225 10.1453 0 9.12548 0H7.89238C6.87261 0 6.04274 0.772225 6.04274 1.72116V2.06998C6.04274 2.48478 5.81215 2.85597 5.42619 3.06366C5.04023 3.27077 4.57905 3.27134 4.19309 3.06366L3.86878 2.88925C2.98588 2.41478 1.85205 2.69705 1.34155 3.51919L0.724997 4.51287C0.213878 5.33673 0.516604 6.38836 1.40197 6.86397L1.72689 7.03838C2.11285 7.24549 2.34344 7.61726 2.34344 8.03206C2.34344 8.44686 2.11285 8.81863 1.72689 9.02574L1.40258 9.20015C0.51722 9.67577 0.214494 10.7274 0.725614 11.5513L1.34216 12.5449C1.85267 13.3671 2.9865 13.6493 3.86878 13.1749L4.19309 13.001C4.57905 12.7928 5.04023 12.7939 5.42619 13.001C5.81215 13.2087 6.04274 13.5799 6.04274 13.9947V14.343C6.04274 15.2919 6.87261 16.0641 7.89238 16.0641H9.12548C10.1453 16.0641 10.9751 15.2919 10.9751 14.343V13.9941C10.9751 13.5793 11.2057 13.2082 11.5917 13.0005C11.977 12.7934 12.4388 12.7928 12.8248 13.0005L13.1491 13.1749C14.032 13.6488 15.1658 13.3665 15.6757 12.5449L16.2923 11.5513C16.8034 10.7274 16.5006 9.67577 15.6153 9.20015ZM8.50893 10.9007C6.80911 10.9007 5.42619 9.6138 5.42619 8.03206C5.42619 6.45032 6.80911 5.16347 8.50893 5.16347C10.2088 5.16347 11.5917 6.45032 11.5917 8.03206C11.5917 9.6138 10.2088 10.9007 8.50893 10.9007Z" fill="currentColor"/>
</svg>
