<svg width="16" height="17" viewBox="0 0 16 17" fill="none" xmlns="http://www.w3.org/2000/svg">
    <path d="M15.7878 5.65162C15.536 6.17502 13.7564 6.84135 11.077 6.84135C10.5873 6.84135 10.1278 6.81849 9.70193 6.7788C9.07312 6.10542 7.78935 5.6936 6.36595 5.51861V4.47439C7.34891 5.10348 9.22051 5.42845 11.0772 5.42845C12.9332 5.42845 14.8051 5.10362 15.7879 4.47439L15.7878 5.65162Z" fill="currentColor"/>
    <path d="M15.7878 7.73517C15.536 8.25871 13.7564 8.92505 11.077 8.92505C10.9797 8.92505 10.8865 8.92217 10.7922 8.92073C10.6038 8.75437 10.3757 8.60554 10.1123 8.47411V7.73934C10.1123 7.65047 10.1011 7.5642 10.0841 7.48094C10.412 7.50165 10.7446 7.51229 11.077 7.51229C12.9331 7.51229 14.805 7.18761 15.7878 6.55866V7.73517Z" fill="currentColor"/>
    <path d="M15.7878 9.819C15.562 10.2882 14.1056 10.8707 11.8766 10.9866C11.7475 10.7879 11.5669 10.608 11.3429 10.4477V10.0173C11.3429 9.86832 11.3151 9.72784 11.2681 9.59368C13.0608 9.57226 14.8388 9.24959 15.7878 8.64221V9.819Z" fill="currentColor"/>
    <path d="M15.7878 11.9028C15.5691 12.3564 14.2023 12.9167 12.0978 13.0581V11.7109C12.0978 11.6893 12.0946 11.6683 12.093 11.647C13.5892 11.5504 14.9849 11.2398 15.7878 10.7262V11.9028Z" fill="currentColor"/>
    <path d="M15.7878 13.6574C15.7878 14.5686 13.6786 15.3071 11.077 15.3071C11.0439 15.3071 11.012 15.3057 10.9791 15.305V14.3145C11.3478 14.1473 11.6381 13.9555 11.8336 13.745C13.4263 13.6688 14.9391 13.3528 15.7876 12.8096L15.7878 13.6574Z" fill="currentColor"/>
    <path d="M10.308 15.3264C10.0559 15.8499 8.27666 16.5158 5.59738 16.5158C2.91766 16.5158 1.13809 15.8498 0.886023 15.3264V13.8624C0.886023 13.6124 1.04966 13.3763 1.33365 13.1642V13.1747V13.3275L1.40008 13.4654C1.84497 14.3899 4.03047 15.0352 6.71594 15.0352C8.10497 15.0352 9.35812 14.8612 10.308 14.5665V15.3264Z" fill="currentColor"/>
    <path d="M11.2763 11.772L11.3429 11.6341V11.4811V11.4058C11.3961 11.5047 11.4267 11.6065 11.4267 11.7109V13.1748C11.1746 13.6985 9.3955 14.3646 6.71608 14.3646C4.03622 14.3646 2.2568 13.6984 2.00487 13.1748V12.7481C2.98568 13.1187 4.38578 13.3421 5.96088 13.3421C8.64606 13.3419 10.8314 12.6964 11.2763 11.772Z" fill="currentColor"/>
    <path d="M10.6719 11.4811C10.4197 12.0049 8.64031 12.6707 5.96088 12.6707C3.28117 12.6707 1.50203 12.0048 1.24982 11.4811V10.6304C2.18533 10.9042 3.3962 11.0638 4.73074 11.0638C7.41577 11.0638 9.60127 10.4183 10.046 9.49403L10.1123 9.35628V9.23794C10.4686 9.47002 10.6719 9.73532 10.6719 10.0174V11.4811Z" fill="currentColor"/>
    <path d="M0.0195312 9.203V7.73919C0.0195312 6.82798 2.12853 6.08946 4.7306 6.08946C7.33209 6.08946 9.44123 6.82798 9.44123 7.73919V9.203C9.18931 9.72669 7.41002 10.3926 4.7306 10.3926C2.05074 10.3927 0.271455 9.72669 0.0195312 9.203Z" fill="currentColor"/>
    <path d="M15.7878 3.56778C15.536 4.09147 13.7564 4.75766 11.077 4.75766C8.3973 4.75766 6.61816 4.09147 6.3658 3.56778V2.10383C6.3658 1.19262 8.47509 0.454102 11.077 0.454102C13.6786 0.454102 15.7878 1.19262 15.7878 2.10383V3.56778Z" fill="currentColor"/>
</svg>
