<svg width="44" height="46" viewBox="0 0 44 46" fill="currentColor" xmlns="http://www.w3.org/2000/svg">
    <path d="M24.4594 23.7306C23.8455 22.5113 23.152 21.2821 22.3793 20.0828C20.5043 22.0329 18.7415 23.7558 17.1021 25.2867L20.2324 28.6171C21.495 27.0866 22.8966 25.4551 24.4594 23.7306Z" />
    <path fill-rule="evenodd" clip-rule="evenodd" d="M35.8053 0L23.5132 13.0777C22.1474 14.5308 23.5132 18.8901 23.5132 18.8901C23.2498 19.1703 22.9885 19.4461 22.7293 19.7176C23.5015 20.9097 24.1957 22.131 24.8118 23.3431C25.2753 22.8353 25.7528 22.3196 26.2448 21.7962C26.2448 21.7962 30.3421 23.2493 31.7079 21.7962L44 8.71849L42.4635 7.08377L34.2688 15.8023L32.4762 13.8951L40.6709 5.1766L39.1344 3.54189L30.9397 12.2604L29.1471 10.3532L37.3418 1.63472L35.8053 0ZM19.9139 29.0047L16.7378 25.6256C13.5407 28.589 10.8267 30.816 8.68041 32.577C6.79234 34.1261 5.34369 35.3147 4.3922 36.327C3.02641 37.7801 1.66063 39.2332 1.66063 42.1394C1.66063 43.5924 1.66063 44.319 2.00207 44.6823C2.34352 45.0455 3.02641 45.0455 4.3922 45.0455C7.12377 45.0455 8.48956 43.5925 9.85534 42.1394C10.8068 41.1271 11.924 39.5858 13.3802 37.5771C15.0354 35.2936 17.1285 32.4061 19.9139 29.0047ZM22.3793 20.0828C20.5043 22.0329 18.7415 23.7558 17.1021 25.2867L1.08991 8.25103C1.08991 8.25103 -0.275872 6.79795 1.08991 5.34487C4.89704 5.36304 14.7478 11.1572 18.8451 15.5164C20.1648 16.9204 21.3432 18.4747 22.3793 20.0828Z" />
    <path fill-rule="evenodd" clip-rule="evenodd" d="M19.9139 29.0047C20.0191 28.8762 20.1253 28.747 20.2324 28.6171L19.9139 29.0047ZM20.2324 28.6171C21.495 27.0866 22.8966 25.4551 24.4594 23.7306L20.2324 28.6171ZM24.4594 23.7306C24.5759 23.6019 24.6934 23.4728 24.8118 23.3431L24.4594 23.7306Z" />
    <path d="M31.6494 42.5801C33.0152 44.0332 34.381 45.4863 37.1125 45.4863C38.4356 45.4863 39.1179 45.4862 39.4696 45.156C39.4737 45.1522 39.4778 45.1482 39.4818 45.1443C39.486 45.1402 39.4901 45.1361 39.4942 45.1319L39.4988 45.1271L39.5026 45.123C39.8441 44.7597 39.8441 44.0332 39.8441 42.5801C39.8441 39.6739 38.4783 38.2208 37.1125 36.7678L31.6494 42.5801Z" />
    <path d="M27.9367 37.8132C29.4845 39.9233 30.6654 41.5332 31.6494 42.5801L37.1125 36.7678C36.1553 35.7493 34.6947 34.5508 32.7877 32.986L27.9272 37.8003L27.9367 37.8132Z"/>
    <path fill-rule="evenodd" clip-rule="evenodd" d="M24.8136 23.3468L24.8118 23.3431L24.4594 23.7306L24.8136 23.3468Z"/>
    <path d="M32.7877 32.986C30.9365 31.467 28.6646 29.6027 26.024 27.2228L24.3083 32.9534C25.538 34.5539 26.6049 35.999 27.5426 37.2761L27.6228 37.3854C27.7254 37.5252 27.8265 37.6629 27.926 37.7986L27.9272 37.8003L32.7877 32.986Z" />
    <path d="M26.024 27.2228C25.5781 26.0927 25.0564 24.9163 24.4594 23.7306L20.2324 28.6171L24.3083 32.9534L26.024 27.2228Z"/>
</svg>
