<svg width="15" height="20" viewBox="0 0 15 20" fill="none" xmlns="http://www.w3.org/2000/svg">
    <path d="M14.4451 5.66052L9.90224 1.12066C9.77085 0.989352 9.59333 0.916016 9.40812 0.916016H2.06967C1.29739 0.916016 0.671875 1.54112 0.671875 2.3129V17.6786C0.671875 18.4504 1.29739 19.0755 2.06967 19.0755H13.2521C14.0244 19.0755 14.6499 18.4504 14.6499 17.6786V6.15432C14.6499 5.96923 14.5765 5.79183 14.4451 5.66052ZM9.75757 14.1864H4.16637C3.78058 14.1864 3.46747 13.8735 3.46747 13.4879C3.46747 13.1024 3.78058 12.7895 4.16637 12.7895H9.75757C10.1434 12.7895 10.4565 13.1024 10.4565 13.4879C10.4565 13.8735 10.1434 14.1864 9.75757 14.1864ZM11.1554 11.3926H4.16637C3.78058 11.3926 3.46747 11.0797 3.46747 10.6942C3.46747 10.3086 3.78058 9.99574 4.16637 9.99574H11.1554C11.5412 9.99574 11.8543 10.3086 11.8543 10.6942C11.8543 11.0797 11.5412 11.3926 11.1554 11.3926ZM9.75757 6.50354C9.37178 6.50354 9.05867 6.19064 9.05867 5.8051V2.24585L13.3192 6.50354H9.75757Z" fill="currentColor"/>
</svg>
