<svg width="27" height="21" viewBox="0 0 27 21" fill="none" xmlns="http://www.w3.org/2000/svg">
    <path d="M13.5 15.7208C12.6283 15.7208 11.7566 15.4259 11.013 14.8284L0 5.99777V18.331C0 19.772 1.13326 20.9411 2.53125 20.9411H24.4688C25.8667 20.9411 27 19.7725 27 18.331V5.99777L15.9891 14.8344C15.2455 15.4271 14.3701 15.7208 13.5 15.7208ZM0.859043 4.48059L12.0493 13.4586C12.903 14.1438 14.0991 14.1438 14.9528 13.4586L26.1431 4.48059C26.6361 4.04556 27 3.3767 27 2.66977C27 1.22818 25.8662 0.0595703 24.4688 0.0595703H2.53125C1.13326 0.0595703 0 1.22818 0 2.66977C0 3.3767 0.316934 4.04556 0.859043 4.48059Z" fill="currentColor"/>
</svg>
