<svg width="38" height="37" viewBox="0 0 38 37" fill="none" xmlns="http://www.w3.org/2000/svg">
    <path fill-rule="evenodd" clip-rule="evenodd" d="M18.9311 0.046875C8.83746 0.046875 0.655273 8.2087 0.655273 18.2763C0.655273 28.3444 8.83746 36.5062 18.9311 36.5062C29.0242 36.5062 37.207 28.3444 37.207 18.2763C37.207 8.2087 29.0242 0.046875 18.9311 0.046875ZM23.7444 14.1707L23.483 17.442H19.9961V28.8076H15.5918V17.442H13.2412V14.1707H15.5918V11.9721C15.5918 11.0049 15.6173 9.50951 16.3487 8.58353C17.1193 7.60447 18.1776 6.9387 19.9962 6.9387C22.9601 6.9387 24.2098 7.34434 24.2098 7.34434L23.6219 10.6949C23.6219 10.6949 22.643 10.4223 21.7287 10.4223C20.8146 10.4223 19.9962 10.7363 19.9962 11.6163V14.1707H23.7444Z" fill="currentColor "/>
</svg>
