<svg width="25" height="16" viewBox="0 0 25 16" fill="none" xmlns="http://www.w3.org/2000/svg">
    <path d="M0 13.4018L2.5 13.4035C3.19336 13.4035 3.75 12.8271 3.75 12.1115V3.09188H0V13.4018ZM1.875 10.8284C2.2168 10.8284 2.5 11.1155 2.5 11.4734C2.5 11.826 2.2168 12.1183 1.875 12.1183C1.5332 12.1183 1.25 11.8247 1.25 11.4738C1.25 11.1148 1.5332 10.8284 1.875 10.8284ZM13.625 0.498259C13.3148 0.498259 13.0133 0.618018 12.7844 0.83418L8.94141 4.46332C8.9375 4.47138 8.9375 4.47945 8.92969 4.47945C8.28125 5.1087 8.29297 6.11307 8.84766 6.73828C9.3457 7.26669 10.3859 7.44901 11.0402 6.84921C11.0469 6.84315 11.0508 6.84315 11.0547 6.83912L14.175 3.89054C14.4289 3.65373 14.8293 3.66885 15.0586 3.93088C15.293 4.1929 15.2734 4.60126 15.0195 4.84328L13.9992 5.80611L19.6875 10.5702C19.7998 10.6709 19.9023 10.7717 19.9951 10.8825V3.04348C18.3943 1.3913 16.2264 0.466797 13.9639 0.466797L13.625 0.498259ZM13.0703 6.68584L11.8984 7.79469C10.7363 8.8882 8.95898 8.78252 7.92188 7.61838C6.875 6.43576 6.95703 4.60046 8.09766 3.51945L11.293 0.498259H11.0352C8.77734 0.498259 6.60547 1.42922 5.00781 3.07575L5 12.107L5.71289 12.1085L9.24805 15.4088C10.3223 16.3112 11.8945 16.1397 12.7637 15.0359L13.4715 15.6506C14.0918 16.1387 15.0098 16.0741 15.5176 15.434L16.7434 13.877L16.9533 14.0584C17.4904 14.5021 18.2767 14.4215 18.7111 13.8669L19.0837 13.3917C19.518 12.8371 19.4366 12.0292 18.9003 11.5794L13.0703 6.68584ZM21.25 3.09591V12.1151C21.25 12.8258 21.8066 13.4079 22.4648 13.4079L25 13.4059V3.08381L21.25 3.09591ZM23.125 12.1151C22.7832 12.1151 22.5 11.8228 22.5 11.4701C22.5 11.1121 22.7832 10.8252 23.125 10.8252C23.4668 10.8252 23.75 11.1148 23.75 11.4738C23.75 11.8247 23.4688 12.1151 23.125 12.1151Z" fill="currentColor"/>
</svg>
