<svg width="42" height="44" viewBox="0 0 42 44" fill="none" xmlns="http://www.w3.org/2000/svg">
    <path d="M41.6556 23.3777C41.362 22.9641 40.9216 22.6885 40.3344 22.6885C37.1046 22.6885 34.0217 24.0668 32.1132 26.5479L30.7919 28.2019C29.177 29.9937 26.6813 30.9586 24.1856 30.9586H19.7814C18.9005 30.9586 18.3133 30.4072 18.3133 29.5802C18.3133 28.7532 18.9005 28.2019 19.7814 28.2019H22.5707C24.9196 28.2019 27.1217 26.41 27.1217 24.2047V24.0668C27.1217 23.3777 26.3877 22.6885 25.6537 22.6885H16.6984C11.4134 22.6885 7.15596 24.8938 4.80705 28.4776L0.843258 34.2666C0.549643 34.6801 0.549643 35.2315 0.843258 35.645L5.24747 42.5367C5.39428 42.8124 5.8347 43.0881 6.12831 43.2259C6.27512 43.2259 6.27512 43.2259 6.42193 43.2259C6.71554 43.2259 7.00916 43.0881 7.30277 42.9502C12.8814 39.5044 19.341 37.7125 25.9473 37.7125C30.7919 37.7125 35.1961 35.2315 37.545 31.2343L41.5088 24.6182C41.8024 24.3425 41.8024 23.7912 41.6556 23.3777Z" fill="currentColor"/>
    <path d="M16.7004 19.9327H25.6556C28.0045 19.9327 30.0598 21.7245 30.0598 23.9299V24.2055L39.1619 15.3841C42.6852 11.9382 42.6852 6.56265 39.1619 3.11677C37.4002 1.60059 35.1981 0.635742 32.8492 0.635742C30.5003 0.635742 28.1513 1.60059 26.3897 3.25461L25.6556 3.94378L24.9216 3.25461C23.1599 1.60059 20.9578 0.635742 18.4621 0.635742C16.1132 0.635742 13.9111 1.60059 12.1494 3.25461C8.62599 6.70049 8.62599 12.0761 12.1494 15.5219L16.7004 19.9327ZM18.3153 11.6626H20.6642L23.1599 9.31935C23.4535 9.04368 23.8939 8.90585 24.4812 8.90585C24.9216 9.04368 25.362 9.31935 25.5088 9.59502L26.9769 12.3517L28.7386 8.35451C28.8854 7.941 29.3258 7.5275 29.913 7.5275C30.5003 7.5275 30.9407 7.66533 31.2343 8.07884L34.1704 12.2139C34.6109 12.9031 34.464 13.7301 33.73 14.1436C32.996 14.5571 32.1151 14.4193 31.6747 13.7301L30.3535 11.8004L28.445 16.2111C28.2981 16.7625 27.7109 17.176 27.1237 17.176C26.5365 17.176 26.096 16.9003 25.8024 16.3489L23.7471 12.4896L22.2791 13.8679C21.9854 14.2814 21.6918 14.4193 21.2514 14.4193H18.3153C17.4344 14.4193 16.8472 13.8679 16.8472 13.0409C16.8472 12.2139 17.4344 11.6626 18.3153 11.6626Z" fill="currentColor"/>
</svg>
