<svg width="23" height="21" viewBox="0 0 23 21" fill="none" xmlns="http://www.w3.org/2000/svg">
<path d="M20.3903 2.77758C19.883 2.26078 19.2806 1.85082 18.6176 1.57112C17.9547 1.29142 17.2441 1.14746 16.5264 1.14746C15.8088 1.14746 15.0982 1.29142 14.4352 1.57112C13.7722 1.85082 13.1699 2.26078 12.6625 2.77758L11.6096 3.8496L10.5568 2.77758C9.53199 1.73418 8.14211 1.148 6.69287 1.148C5.24364 1.148 3.85376 1.73418 2.82899 2.77758C1.80422 3.82097 1.22852 5.23612 1.22852 6.71171C1.22852 8.1873 1.80422 9.60245 2.82899 10.6459L3.88187 11.7179L11.6096 19.5862L19.3374 11.7179L20.3903 10.6459C20.8979 10.1293 21.3005 9.51599 21.5752 8.84096C21.8499 8.16592 21.9913 7.4424 21.9913 6.71171C21.9913 5.98103 21.8499 5.2575 21.5752 4.58247C21.3005 3.90744 20.8979 3.29413 20.3903 2.77758Z" fill="currentColor" stroke="currentColor" stroke-width="1.58926" stroke-linecap="round" stroke-linejoin="round"/>
</svg>
