<svg width="21" height="21" viewBox="0 0 21 21" fill="none" xmlns="http://www.w3.org/2000/svg">
    <path d="M20.1087 9.68492L11.3978 0.966506C11.3003 0.869072 11.1847 0.791783 11.0574 0.739052C10.9301 0.68632 10.7937 0.65918 10.6559 0.65918C10.5181 0.65918 10.3816 0.68632 10.2544 0.739052C10.1271 0.791783 10.0114 0.869072 9.91397 0.966506L1.18806 9.68492C1.10864 9.77016 1.0654 9.88289 1.06745 9.99938C1.06951 10.1159 1.1167 10.227 1.19908 10.3094C1.28146 10.3918 1.3926 10.439 1.50909 10.441C1.62557 10.4431 1.73831 10.3998 1.82354 10.3204L2.80824 9.33571V18.7945C2.80824 19.0728 2.91878 19.3396 3.11553 19.5364C3.31229 19.7331 3.57914 19.8437 3.85739 19.8437H7.95057C8.22882 19.8437 8.49567 19.7331 8.69243 19.5364C8.88918 19.3396 8.99971 19.0728 8.99971 18.7945V12.7994C8.99971 12.7596 9.0155 12.7215 9.04361 12.6934C9.07172 12.6653 9.10984 12.6495 9.14959 12.6495H12.1472C12.1869 12.6495 12.225 12.6653 12.2531 12.6934C12.2812 12.7215 12.297 12.7596 12.297 12.7994V18.7945C12.297 19.0728 12.4076 19.3396 12.6043 19.5364C12.8011 19.7331 13.0679 19.8437 13.3462 19.8437H17.4439C17.5816 19.8437 17.7181 19.8165 17.8453 19.7638C17.9726 19.7111 18.0883 19.6338 18.1857 19.5364C18.2831 19.439 18.3604 19.3233 18.4131 19.196C18.4659 19.0687 18.493 18.9323 18.493 18.7945V9.3402L19.4732 10.3204C19.5584 10.3998 19.6712 10.4431 19.7877 10.441C19.9041 10.439 20.0153 10.3918 20.0977 10.3094C20.1801 10.227 20.2272 10.1159 20.2293 9.99938C20.2314 9.88289 20.1881 9.77016 20.1087 9.68492Z" fill="currentColor" stroke="currentColor" stroke-width="0.595972"/>
</svg>
