<svg width="25" height="25" viewBox="0 0 25 25" fill="none" xmlns="http://www.w3.org/2000/svg">
    <path d="M22.1087 9.68492L13.3978 0.966506C13.3003 0.869072 13.1847 0.791783 13.0574 0.739052C12.9301 0.68632 12.7937 0.65918 12.6559 0.65918C12.5181 0.65918 12.3816 0.68632 12.2544 0.739052C12.1271 0.791783 12.0114 0.869072 11.914 0.966506L3.18806 9.68492C3.10864 9.77016 3.0654 9.88289 3.06745 9.99938C3.06951 10.1159 3.1167 10.227 3.19908 10.3094C3.28146 10.3918 3.3926 10.439 3.50909 10.441C3.62557 10.4431 3.73831 10.3998 3.82354 10.3204L4.80824 9.33571V18.7945C4.80824 19.0728 4.91878 19.3396 5.11553 19.5364C5.31229 19.7331 5.57914 19.8437 5.85739 19.8437H9.95057C10.2288 19.8437 10.4957 19.7331 10.6924 19.5364C10.8892 19.3396 10.9997 19.0728 10.9997 18.7945V12.7994C10.9997 12.7596 11.0155 12.7215 11.0436 12.6934C11.0717 12.6653 11.1098 12.6495 11.1496 12.6495H14.1472C14.1869 12.6495 14.225 12.6653 14.2531 12.6934C14.2812 12.7215 14.297 12.7596 14.297 12.7994V18.7945C14.297 19.0728 14.4076 19.3396 14.6043 19.5364C14.8011 19.7331 15.0679 19.8437 15.3462 19.8437H19.4439C19.5816 19.8437 19.7181 19.8165 19.8453 19.7638C19.9726 19.7111 20.0883 19.6338 20.1857 19.5364C20.2831 19.439 20.3604 19.3233 20.4131 19.196C20.4659 19.0687 20.493 18.9323 20.493 18.7945V9.3402L21.4732 10.3204C21.5584 10.3998 21.6712 10.4431 21.7877 10.441C21.9041 10.439 22.0153 10.3918 22.0977 10.3094C22.1801 10.227 22.2272 10.1159 22.2293 9.99938C22.2314 9.88289 22.1881 9.77016 22.1087 9.68492Z" fill="currentColor" stroke="currentColor" stroke-width="0.595972"/>
    <line x1="1.5" y1="23.5" x2="23.5" y2="23.5" stroke="currentColor" stroke-width="3" stroke-linecap="round"/>
</svg>
