<svg width="38" height="37" viewBox="0 0 38 37" fill="none" xmlns="http://www.w3.org/2000/svg">
    <path fill-rule="evenodd" clip-rule="evenodd" d="M18.8276 0C28.9215 0 37.1035 8.18202 37.1035 18.2759C37.1035 28.3697 28.9215 36.5517 18.8276 36.5517C8.73378 36.5517 0.551758 28.3697 0.551758 18.2759C0.551758 8.18202 8.73378 0 18.8276 0ZM15.004 9.05726C11.5658 9.21432 9.75965 11.149 9.60973 14.4522C9.49551 16.953 9.49551 19.5987 9.60973 22.0995C9.75965 25.4027 11.5658 27.3374 15.004 27.4945C17.5055 27.608 20.1505 27.608 22.652 27.4945C25.9552 27.3431 27.8892 25.5398 28.0462 22.0995C28.1597 19.598 28.1597 16.9544 28.0462 14.4522C27.892 11.0855 26.0187 9.21146 22.652 9.05726C20.1505 8.94375 17.5055 8.94375 15.004 9.05726ZM22.5756 10.7271C25.0735 10.8406 26.2636 12.0299 26.3764 14.5286C26.4892 16.9773 26.4892 19.5744 26.3764 22.0231C26.26 24.5939 25.0086 25.714 22.5756 25.8246C20.1255 25.9367 17.5305 25.9367 15.0804 25.8246C12.6467 25.714 11.3959 24.5939 11.2788 22.0231C11.1667 19.5744 11.1667 16.9773 11.2788 14.5286C11.3895 12.0942 12.5103 10.8442 15.0804 10.7271C17.5305 10.615 20.1255 10.615 22.5756 10.7271ZM18.8276 21.3671C17.1207 21.3671 15.7364 19.9835 15.7364 18.2759C15.7371 16.5682 17.1207 15.1847 18.8276 15.1847C20.5353 15.1847 21.9195 16.5682 21.9195 18.2759C21.9195 19.9828 20.5353 21.3671 18.8276 21.3671ZM18.8276 13.5134C16.1983 13.5134 14.0652 15.6459 14.0652 18.2759C14.0652 20.9059 16.1976 23.0383 18.8276 23.0383C21.4583 23.0383 23.5901 20.9059 23.5901 18.2759C23.5901 15.6459 21.4583 13.5134 18.8276 13.5134ZM24.8915 13.325C24.8915 13.9396 24.3932 14.4386 23.7785 14.4386C23.1631 14.4386 22.6656 13.9403 22.6656 13.3257C22.6656 12.711 23.1631 12.2127 23.7785 12.2127C24.3932 12.2127 24.8915 12.711 24.8915 13.325Z" fill="currentColor"/>
</svg>
