<svg width="25" height="25" viewBox="0 0 25 25" fill="none" xmlns="http://www.w3.org/2000/svg">
    <path d="M8.82223 0.709961C4.10449 0.709961 0.354492 4.45996 0.354492 9.1777C0.354492 13.8954 4.10449 17.6454 8.82223 17.6454C13.54 17.6454 17.29 13.8954 17.29 9.1777C17.29 4.45996 13.54 0.709961 8.82223 0.709961ZM7.00772 10.3874C5.31417 10.3874 3.98352 9.05674 3.98352 7.36319C3.98352 5.66964 5.31417 4.33899 7.00772 4.33899C8.70127 4.33899 10.0319 5.66964 10.0319 7.36319C10.0319 9.05674 8.70127 10.3874 7.00772 10.3874Z" fill="currentColor"/>
    <path d="M15.8232 11.1934L10.8379 16.1787L13.3306 18.6714H15.8232V21.164H18.3159V23.6567L19.1883 24.5291C19.4376 24.7784 19.6869 24.903 20.0608 24.903H23.3012C24.049 24.903 24.5476 24.4045 24.5476 23.6567V20.4162C24.5476 20.0423 24.4229 19.7931 24.1737 19.5438L15.8232 11.1934Z" fill="currentColor"/>
</svg>
