<svg width="18" height="18" viewBox="0 0 18 18" fill="none" xmlns="http://www.w3.org/2000/svg">
    <path d="M13.0716 11.8434C12.9169 11.6882 12.7331 11.565 12.5307 11.481C12.3282 11.3969 12.1112 11.3537 11.8921 11.3537C11.6729 11.3537 11.4559 11.3969 11.2535 11.481C11.0511 11.565 10.8673 11.6882 10.7126 11.8434L9.90777 12.6483C9.00159 12.0732 8.16202 11.3993 7.40448 10.639C6.64419 9.88139 5.9703 9.0418 5.39519 8.13561L6.20001 7.33076C6.35525 7.17606 6.47842 6.99223 6.56247 6.78983C6.64651 6.58742 6.68977 6.37041 6.68977 6.15125C6.68977 5.93209 6.64651 5.71508 6.56247 5.51267C6.47842 5.31026 6.35525 5.12644 6.20001 4.97174L4.62921 3.40645C4.4767 3.2507 4.29443 3.12719 4.09324 3.04328C3.89204 2.95937 3.67604 2.91676 3.45805 2.91799C3.23852 2.91746 3.02104 2.96034 2.81814 3.04416C2.61524 3.12799 2.43092 3.25112 2.27579 3.40645L1.52091 4.15579C1.16111 4.54265 0.892577 5.00523 0.735049 5.50952C0.577522 6.01381 0.535005 6.547 0.610626 7.06988C0.788243 9.15138 2.15367 11.6547 4.25733 13.764C6.36098 15.8732 8.89202 17.2331 10.9735 17.4329C11.1288 17.4412 11.2844 17.4412 11.4397 17.4329C11.8878 17.4518 12.3351 17.3809 12.7554 17.2246C13.1757 17.0683 13.5606 16.8296 13.8875 16.5226L14.6368 15.7678C14.7922 15.6126 14.9153 15.4283 14.9991 15.2254C15.0829 15.0225 15.1258 14.805 15.1253 14.5855C15.1265 14.3675 15.0839 14.1515 15 13.9503C14.9161 13.7491 14.7926 13.5668 14.6368 13.4143L13.0716 11.8434Z" fill="currentColor"/>
    <path d="M14.8205 3.218C14.0491 2.44367 13.1321 1.8297 12.1223 1.41148C11.1125 0.99326 10.0299 0.779073 8.93689 0.781267C8.78968 0.781267 8.6485 0.839747 8.54441 0.943841C8.44031 1.04794 8.38184 1.18912 8.38184 1.33633C8.38184 1.48354 8.44031 1.62473 8.54441 1.72882C8.6485 1.83292 8.78968 1.8914 8.93689 1.8914C9.88963 1.89136 10.8329 2.08001 11.7124 2.44645C12.5918 2.81289 13.39 3.34988 14.0609 4.02641C14.7317 4.70294 15.2619 5.50564 15.6209 6.38816C15.98 7.27069 16.1606 8.21558 16.1526 9.1683C16.1526 9.31551 16.2111 9.4567 16.3152 9.56079C16.4192 9.66489 16.5604 9.72337 16.7076 9.72337C16.8548 9.72337 16.996 9.66489 17.1001 9.56079C17.2042 9.4567 17.2627 9.31551 17.2627 9.1683C17.2733 8.06369 17.0627 6.96812 16.6433 5.94618C16.2238 4.92425 15.604 3.99663 14.8205 3.218Z" fill="currentColor"/>
    <path d="M11.6617 6.39276C11.9767 6.70586 12.2259 7.07881 12.3946 7.48966C12.5634 7.90051 12.6482 8.34096 12.6442 8.78509C12.6442 8.9323 12.7026 9.07349 12.8067 9.17758C12.9108 9.28168 13.052 9.34016 13.1992 9.34016C13.3464 9.34016 13.4876 9.28168 13.5917 9.17758C13.6958 9.07349 13.7543 8.9323 13.7543 8.78509C13.7616 8.1973 13.6522 7.6139 13.4323 7.06873C13.2125 6.52355 12.8866 6.02746 12.4735 5.60922C12.0604 5.19099 11.5684 4.85893 11.026 4.63231C10.4837 4.40569 9.90167 4.28902 9.31384 4.28906C9.16663 4.28906 9.02545 4.34754 8.92136 4.45164C8.81727 4.55573 8.75879 4.69691 8.75879 4.84413C8.75879 4.99134 8.81727 5.13252 8.92136 5.23662C9.02545 5.34071 9.16663 5.39919 9.31384 5.39919C9.75127 5.40249 10.1838 5.49193 10.5866 5.66241C10.9895 5.83289 11.3548 6.08106 11.6617 6.39276Z" fill="currentColor"/>
</svg>
