<svg width="46" height="42" viewBox="0 0 46 42" fill="none" xmlns="http://www.w3.org/2000/svg">
    <path d="M39.3418 7.96955H33.8884L30.5456 1.3556C30.4028 1.07327 30.1834 0.835831 29.9119 0.669884C29.6404 0.503937 29.3276 0.416032 29.0084 0.416016H17.5536C17.2344 0.416032 16.9216 0.503937 16.6501 0.669884C16.3786 0.835831 16.1592 1.07327 16.0164 1.3556L12.6736 7.96955H7.22116C5.45575 7.97142 3.7632 8.66593 2.51486 9.90069C1.26653 11.1355 0.564391 12.8096 0.5625 14.5558V34.9971C0.564599 36.7431 1.26684 38.4171 2.51515 39.6517C3.76347 40.8862 5.45591 41.5806 7.22116 41.5824H39.3418C41.107 41.5804 42.7992 40.8859 44.0473 39.6514C45.2954 38.4168 45.9975 36.743 45.9996 34.997V14.5558C45.9977 12.8098 45.2957 11.1357 44.0476 9.90094C42.7994 8.66619 41.1071 7.9716 39.3418 7.96955ZM23.281 34.9731C21.242 34.9731 19.2489 34.375 17.5535 33.2545C15.8582 32.1341 14.5369 30.5415 13.7566 28.6782C12.9763 26.815 12.7722 24.7647 13.17 22.7866C13.5677 20.8086 14.5496 18.9916 15.9913 17.5655C17.4331 16.1395 19.27 15.1683 21.2698 14.7748C23.2696 14.3814 25.3424 14.5833 27.2261 15.3551C29.1099 16.1269 30.7199 17.4339 31.8527 19.1108C32.9855 20.7877 33.5901 22.7592 33.5901 24.776C33.5871 27.4795 32.4999 30.0714 30.5673 31.983C28.6346 33.8947 26.0142 34.97 23.281 34.9731ZM38.5541 17.0334H34.7358C34.2802 17.0334 33.8432 16.8544 33.521 16.5357C33.1988 16.217 33.0178 15.7848 33.0178 15.3341C33.0178 14.8834 33.1988 14.4511 33.521 14.1324C33.8432 13.8137 34.2802 13.6347 34.7358 13.6347H38.5541C39.0097 13.6347 39.4467 13.8137 39.7689 14.1324C40.0911 14.4511 40.2721 14.8834 40.2721 15.3341C40.2721 15.7848 40.0911 16.217 39.7689 16.5357C39.4467 16.8544 39.0097 17.0334 38.5541 17.0334Z" fill="currentColor"/>
</svg>
