<svg width="13" height="19" viewBox="0 0 13 19" fill="none" xmlns="http://www.w3.org/2000/svg">
    <path fill-rule="evenodd" clip-rule="evenodd" d="M5.98367 18.9768H5.9826H5.9847H5.98367Z" fill="currentColor"/>
    <path d="M1.08081 5.94192H2.82016C3.1111 5.94192 3.34301 5.71331 3.38096 5.43614C3.57071 4.10898 4.51944 3.14194 6.21029 3.14194C7.65658 3.14194 8.98059 3.83586 8.98059 5.50493C8.98059 6.78961 8.19209 7.38036 6.94609 8.27862C5.5272 9.26792 4.40348 10.4231 4.4836 12.2985L4.48992 12.7376C4.49214 12.8703 4.54864 12.9969 4.64725 13.09C4.74586 13.1831 4.87866 13.2353 5.017 13.2352H6.72682C6.86661 13.2352 7.00067 13.182 7.09952 13.0871C7.19837 12.9922 7.2539 12.8636 7.2539 12.7295V12.517C7.2539 11.0644 7.82946 10.6416 9.38327 9.51069C10.6672 8.57399 12.006 7.53411 12.006 5.35118C12.006 2.29425 9.31581 0.817383 6.37052 0.817383C3.69931 0.817383 0.773002 2.01102 0.572714 5.44221C0.569828 5.50755 0.580899 5.57276 0.605248 5.63384C0.629596 5.69491 0.666707 5.75056 0.714297 5.79737C0.761888 5.84417 0.818954 5.88114 0.881984 5.906C0.945014 5.93086 1.01268 5.94309 1.08081 5.94192Z" fill="currentColor"/>
    <path d="M8.15203 17.1014C8.15203 15.9846 7.26655 15.1997 5.9826 15.1997C4.75135 15.1997 3.85533 15.9846 3.85533 17.1014C3.85533 18.1794 4.75085 18.9764 5.98367 18.9768C7.26915 18.9764 8.15203 18.1794 8.15203 17.1014Z" fill="currentColor"/>
</svg>
