<svg width="21" height="20" viewBox="0 0 21 20" fill="currentColor" stroke="currentColor" xmlns="http://www.w3.org/2000/svg">
    <path d="M20.1267 18.4111L15.6761 13.9603H15.6282C17 12.3428 17.6932 10.2575 17.5629 8.14053C17.4325 6.02361 16.4887 4.03909 14.9288 2.6021C13.369 1.16511 11.3139 0.386964 9.19353 0.430439C7.07315 0.473914 5.0517 1.33564 3.55205 2.83537C2.0524 4.33509 1.19071 6.35663 1.14724 8.47711C1.10376 10.5976 1.88187 12.6528 3.3188 14.2127C4.75572 15.7726 6.74015 16.7165 8.85697 16.8468C10.9738 16.9772 13.059 16.2839 14.6765 14.9121C14.6765 14.9121 14.6765 14.9463 14.6765 14.96L19.127 19.4108C19.1907 19.475 19.2664 19.5259 19.3499 19.5607C19.4333 19.5954 19.5228 19.6133 19.6132 19.6133C19.7036 19.6133 19.7931 19.5954 19.8765 19.5607C19.9599 19.5259 20.0357 19.475 20.0993 19.4108C20.1695 19.3486 20.2262 19.2727 20.2659 19.1878C20.3055 19.1028 20.3273 19.0106 20.3299 18.9169C20.3324 18.8231 20.3157 18.7299 20.2808 18.6429C20.2458 18.5559 20.1934 18.477 20.1267 18.4111ZM9.37001 15.4736C8.0158 15.4736 6.69199 15.072 5.566 14.3196C4.44001 13.5672 3.56241 12.4978 3.04418 11.2466C2.52594 9.99539 2.39035 8.61861 2.65454 7.29036C2.91873 5.9621 3.57085 4.74202 4.52843 3.7844C5.486 2.82678 6.70603 2.17463 8.03422 1.91042C9.36242 1.64622 10.7391 1.78182 11.9903 2.30008C13.2414 2.81834 14.3108 3.69598 15.0631 4.82202C15.8155 5.94806 16.217 7.27193 16.217 8.62621C16.217 9.52542 16.0399 10.4158 15.6958 11.2466C15.3518 12.0773 14.8474 12.8322 14.2116 13.468C13.5758 14.1039 12.821 14.6082 11.9903 14.9523C11.1595 15.2965 10.2692 15.4736 9.37001 15.4736Z" stroke-width="0.397315"/>
</svg>
