<svg width="40" height="33" viewBox="0 0 40 33" fill="none" xmlns="http://www.w3.org/2000/svg">
    <line x1="2.09853" y1="27.3868" x2="37.7838" y2="27.3868" stroke="currentColor" stroke-width="2.43925" stroke-linecap="round"/>
    <line x1="2.09853" y1="16.9884" x2="37.7838" y2="16.9884" stroke="currentColor" stroke-width="2.43925" stroke-linecap="round"/>
    <line x1="2.09853" y1="6.31163" x2="37.7838" y2="6.31163" stroke="currentColor" stroke-width="2.43925" stroke-linecap="round"/>
    <path fill-rule="evenodd" clip-rule="evenodd" d="M11.2769 11.2765C14.1481 11.2765 16.4757 8.94893 16.4757 6.07771C16.4757 3.20649 14.1481 0.878906 11.2769 0.878906C8.40571 0.878906 6.07812 3.20649 6.07812 6.07771C6.07812 8.94893 8.40571 11.2765 11.2769 11.2765ZM11.2769 9.54358C13.1911 9.54358 14.7428 7.99186 14.7428 6.07771C14.7428 4.16356 13.1911 2.61184 11.2769 2.61184C9.36278 2.61184 7.81106 4.16356 7.81106 6.07771C7.81106 7.99186 9.36278 9.54358 11.2769 9.54358Z" fill="currentColor"/>
    <path d="M14.7428 6.07771C14.7428 7.99186 13.1911 9.54358 11.2769 9.54358C9.36278 9.54358 7.81106 7.99186 7.81106 6.07771C7.81106 4.16356 9.36278 2.61184 11.2769 2.61184C13.1911 2.61184 14.7428 4.16356 14.7428 6.07771Z" fill="currentColor"/>
    <path fill-rule="evenodd" clip-rule="evenodd" d="M28.606 21.674C31.4772 21.674 33.8048 19.3464 33.8048 16.4752C33.8048 13.604 31.4772 11.2764 28.606 11.2764C25.7348 11.2764 23.4072 13.604 23.4072 16.4752C23.4072 19.3464 25.7348 21.674 28.606 21.674ZM28.606 19.941C30.5202 19.941 32.0719 18.3893 32.0719 16.4752C32.0719 14.561 30.5202 13.0093 28.606 13.0093C26.6919 13.0093 25.1402 14.561 25.1402 16.4752C25.1402 18.3893 26.6919 19.941 28.606 19.941Z" fill="currentColor"/>
    <path d="M32.0719 16.4752C32.0719 18.3893 30.5202 19.941 28.606 19.941C26.6919 19.941 25.1402 18.3893 25.1402 16.4752C25.1402 14.561 26.6919 13.0093 28.606 13.0093C30.5202 13.0093 32.0719 14.561 32.0719 16.4752Z" fill="currentColor"/>
    <path fill-rule="evenodd" clip-rule="evenodd" d="M14.7418 32.0724C17.613 32.0724 19.9406 29.7448 19.9406 26.8736C19.9406 24.0024 17.613 21.6748 14.7418 21.6748C11.8706 21.6748 9.54297 24.0024 9.54297 26.8736C9.54297 29.7448 11.8706 32.0724 14.7418 32.0724ZM14.7418 30.3395C16.6559 30.3395 18.2076 28.7878 18.2076 26.8736C18.2076 24.9595 16.6559 23.4077 14.7418 23.4077C12.8276 23.4077 11.2759 24.9595 11.2759 26.8736C11.2759 28.7878 12.8276 30.3395 14.7418 30.3395Z" fill="currentColor"/>
    <path d="M18.2076 26.8736C18.2076 28.7878 16.6559 30.3395 14.7418 30.3395C12.8276 30.3395 11.2759 28.7878 11.2759 26.8736C11.2759 24.9595 12.8276 23.4077 14.7418 23.4077C16.6559 23.4077 18.2076 24.9595 18.2076 26.8736Z" fill="currentColor"/>
</svg>
