<svg width="30" height="34" stroke="currentColor" viewBox="0 0 30 34" fill="none" xmlns="http://www.w3.org/2000/svg">
    <path d="M11.979 32.6874H1.52051L2.56636 9.67871H23.4833L23.6298 12.8163" stroke-width="1.94003" stroke-linecap="round" stroke-linejoin="round"/>
    <path d="M7.79395 12.8168V6.54174C7.79395 5.15486 8.34488 3.82478 9.32556 2.84411C10.3062 1.86344 11.6363 1.3125 13.0232 1.3125V1.3125C13.7099 1.3125 14.3899 1.44776 15.0243 1.71055C15.6588 1.97335 16.2352 2.35853 16.7208 2.84411C17.2064 3.32969 17.5916 3.90616 17.8544 4.5406C18.1172 5.17504 18.2524 5.85503 18.2524 6.54174V12.8168" stroke-width="1.94003" stroke-linecap="round" stroke-linejoin="round"/>
    <path d="M20.3453 32.6877C24.9662 32.6877 28.7121 28.9417 28.7121 24.3209C28.7121 19.7 24.9662 15.9541 20.3453 15.9541C15.7245 15.9541 11.9785 19.7 11.9785 24.3209C11.9785 28.9417 15.7245 32.6877 20.3453 32.6877Z" stroke-width="1.94003" stroke-linecap="round" stroke-linejoin="round"/>
    <path d="M20.3447 20.1367V28.5035" stroke-width="1.94003" stroke-linecap="round" stroke-linejoin="round"/>
    <path d="M24.5289 24.3203H16.1621" stroke-width="1.94003" stroke-linecap="round" stroke-linejoin="round"/>
</svg>
