<svg width="37" height="37" viewBox="0 0 37 37" fill="none" xmlns="http://www.w3.org/2000/svg">
    <path fill-rule="evenodd" clip-rule="evenodd" d="M18.3794 0C28.4732 0 36.6552 8.18202 36.6552 18.2759C36.6552 28.3697 28.4732 36.5517 18.3794 36.5517C8.28553 36.5517 0.103516 28.3697 0.103516 18.2759C0.103516 8.18202 8.28553 0 18.3794 0ZM27.1668 12.6453C26.6042 12.9002 25.9853 13.0544 25.3777 13.1565C25.9125 13.0665 26.7035 11.7908 26.8562 11.2903C26.9026 11.199 26.8362 11.1668 26.7577 11.2054C26.0802 11.5688 25.3792 11.8322 24.6332 12.0185C24.4932 12.0535 24.4097 11.8793 24.3012 11.7894C21.6533 9.537 17.7133 11.7958 18.228 15.2853C18.2395 15.371 18.2316 15.3824 18.1545 15.371C15.2368 14.9362 12.8174 13.8925 10.8541 11.6544C10.7685 11.5573 10.7221 11.5573 10.6528 11.6623C9.6191 13.2114 10.3651 15.3653 11.7322 16.4311C11.6744 16.4426 10.9598 16.3655 10.3237 16.0364C10.2381 15.9821 10.1952 16.0135 10.1881 16.1099C10.1017 17.6262 11.4831 19.3981 12.9866 19.6558C12.7046 19.7172 12.414 19.7622 11.6045 19.6987C11.5038 19.6794 11.4652 19.7294 11.5038 19.8265C12.112 21.4834 13.4242 21.9767 14.4072 22.2573C14.5386 22.2801 14.6707 22.2801 14.8027 22.3115C14.0845 23.3788 10.9798 23.8885 9.78544 23.7708C9.70263 23.7586 9.39137 23.7151 9.59197 23.8793C16.6853 28.556 25.5198 23.5509 25.5198 14.655C25.5198 14.54 25.6555 14.4772 25.7361 14.4165C26.1052 14.1388 27.2332 13.1215 27.2332 12.6453C27.2332 12.5982 27.2389 12.6132 27.1668 12.6453Z" fill="currentColor"/>
</svg>
