<svg width="27" height="27" viewBox="0 0 27 27" fill="none" xmlns="http://www.w3.org/2000/svg">
    <path d="M11.7328 19.8545C11.7328 18.2303 12.2054 16.7165 13.0208 15.4434L3.23024 15.4441C1.6652 15.4441 0.396484 16.7128 0.396484 18.2779V19.4371C0.396484 20.158 0.621283 20.8608 1.03958 21.4479C2.98283 24.1752 6.16197 25.5262 10.4727 25.5262C11.6462 25.5262 12.7361 25.4261 13.7385 25.2244C12.4891 23.7865 11.7328 21.9088 11.7328 19.8545Z" fill="currentColor"/>
    <path d="M16.7727 6.63048C16.7727 3.15087 13.9519 0.330078 10.4723 0.330078C6.99266 0.330078 4.17188 3.15087 4.17188 6.63048C4.17188 10.1101 6.99266 12.9309 10.4723 12.9309C13.9519 12.9309 16.7727 10.1101 16.7727 6.63048Z" fill="currentColor"/>
    <path d="M26.8531 19.8552C26.8531 16.0278 23.7501 12.9248 19.9226 12.9248C16.095 12.9248 12.9922 16.0278 12.9922 19.8552C12.9922 23.6829 16.095 26.7857 19.9226 26.7857C23.7501 26.7857 26.8531 23.6829 26.8531 19.8552ZM19.8094 15.4552L19.9226 15.445L20.0358 15.4552C20.293 15.5018 20.4958 15.7047 20.5425 15.9619L20.5527 16.075L20.5514 19.2252H23.7078L23.8211 19.2354C24.0781 19.282 24.281 19.4849 24.3276 19.7421L24.3378 19.8552L24.3276 19.9685C24.281 20.2257 24.0781 20.4285 23.8211 20.4752L23.7078 20.4853H20.5514L20.5527 23.6355L20.5425 23.7488C20.4958 24.006 20.293 24.2087 20.0358 24.2555L19.9226 24.2655L19.8094 24.2555C19.5522 24.2087 19.3494 24.006 19.3027 23.7488L19.2926 23.6355L19.2913 20.4853H16.1473L16.034 20.4752C15.7768 20.4285 15.5741 20.2257 15.5273 19.9685L15.5173 19.8552L15.5273 19.7421C15.5741 19.4849 15.7768 19.282 16.034 19.2354L16.1473 19.2252H19.2913L19.2926 16.075L19.3027 15.9619C19.3494 15.7047 19.5522 15.5018 19.8094 15.4552Z" fill="currentColor"/>
</svg>
