<svg width="37" height="37" viewBox="0 0 37 37" fill="none" xmlns="http://www.w3.org/2000/svg">
    <path fill-rule="evenodd" clip-rule="evenodd" d="M18.2759 0C28.3626 0 36.5517 8.18916 36.5517 18.2759C36.5517 28.3626 28.3626 36.5517 18.2759 36.5517C8.18916 36.5517 0 28.3626 0 18.2759C0 8.18916 8.18916 0 18.2759 0ZM29.221 12.7773C28.9583 11.7943 28.1843 11.0203 27.2014 10.7576C25.4197 10.2802 18.2759 10.2802 18.2759 10.2802C18.2759 10.2802 11.1321 10.2802 9.35032 10.7576C8.36763 11.0203 7.59341 11.7943 7.33069 12.7773C6.85345 14.5588 6.85345 18.276 6.85345 18.276C6.85345 18.276 6.85345 21.9931 7.33069 23.7745C7.59341 24.7574 8.36763 25.5317 9.35032 25.7943C11.1321 26.2716 18.2759 26.2716 18.2759 26.2716C18.2759 26.2716 25.4197 26.2716 27.2014 25.7943C28.1843 25.5317 28.9583 24.7574 29.221 23.7745C29.6983 21.9931 29.6983 18.276 29.6983 18.276C29.6983 18.276 29.6983 14.5588 29.221 12.7773ZM15.9913 21.7028V14.8492L21.9265 18.276L15.9913 21.7028Z" fill="currentColor"/>
</svg>
