<svg width="151" height="129" viewBox="0 0 151 129" fill="none" xmlns="http://www.w3.org/2000/svg">
    <g filter="url(#filter0_d_1022_13449)">
        <path d="M55.4008 17.1004C53.0008 11.1004 49.9008 3.60043 48.4008 0.000429389C29.9008 -0.0995706 24.9008 17.3004 6.30078 17.3004C11.5008 29.8004 14.0008 36.0004 19.2008 48.5004C29.7008 48.5004 36.1008 43.4004 42.5008 38.2004C43.1008 37.7004 43.7008 37.2004 44.3008 36.7004C45.8008 30.3004 48.8008 24.1004 53.4008 19.0004C54.0008 18.4004 54.7008 17.8004 55.4008 17.1004Z" fill="#ED1C24"/>
    </g>
    <path d="M19.2004 48.5002C21.2004 48.5002 23.0004 48.3002 24.7004 48.0002L12.1004 16.7002C10.3004 17.1002 8.40039 17.3002 6.40039 17.3002C11.5004 29.8002 14.0004 36.0002 19.2004 48.5002Z" fill="#BE1E2D"/>
    <g filter="url(#filter1_d_1022_13449)">
        <path d="M114 47.8995C114.4 29.6995 100.6 14.1995 82.2004 12.9995C63.5004 11.7995 47.8004 25.9995 46.1004 44.6995C45.6004 50.2995 47.0004 57.0995 49.5004 64.0995C49.9004 65.2995 49.7004 66.5995 48.9004 67.4995C46.5334 70.3925 43.7053 72.6706 40.8877 74.9403L40.8864 74.9414C40.4904 75.2604 40.0947 75.5792 39.7004 75.8995C37.6215 77.5787 35.2228 77.2758 33.3225 77.0359C32.8462 76.9757 32.4012 76.9195 32.0004 76.8995L32.0044 76.908C32.3489 76.9366 32.7272 76.9867 33.1296 77.0399C34.3556 77.202 35.805 77.3937 37.2004 77.0999C37.2004 77.3999 37.2004 77.7999 37.1004 78.0999C37.0496 78.5571 37.5149 78.8337 37.9851 79.1131C38.4405 79.3838 38.9004 79.6571 38.9004 80.0999C38.9004 80.4018 38.8639 80.6491 38.8323 80.8636C38.7591 81.3597 38.7117 81.6811 39.2004 82.0999C42.0004 84.3999 55.0004 76.9999 54.9004 72.1999C54.8004 71.4999 55.2004 71.2999 55.6004 71.8999C57.1202 74.1535 58.6126 76.4688 60.1134 78.7973C64.3403 85.3551 68.6347 92.0176 73.8004 97.6999C75.3004 99.2999 77.9004 99.2999 79.3004 97.4999C80.0799 96.5106 81.2908 95.119 82.7913 93.3946C91.301 83.6155 109.125 63.1321 110.4 44.5999C110.4 43.9999 111.5 43.7999 111.7 44.3999C112.7 46.6999 112.3 51.5999 111.6 55.6999C111.1 58.7999 114.5 60.9999 117.2 59.2999C123.817 55.0841 128.513 48.8455 132.073 44.1172C134.593 40.7703 136.543 38.1802 138.2 37.5999C137.488 39.4693 136.668 41.3641 135.719 43.2527C136.736 41.2337 137.605 39.2093 138.353 37.2194C136.07 38.2628 133.867 38.5519 132.501 37.2992C131.813 36.6941 131.239 34.8632 130.882 32.7307C126.576 40.0185 120.254 45.7317 114 47.8995Z" fill="#00A79D"/>
        <path fill-rule="evenodd" clip-rule="evenodd" d="M138.353 37.2194C142.084 35.5143 146.032 31.7947 146.901 29.4992C147.001 28.7992 146.801 28.0992 146.201 27.6992C145.201 26.9992 144.201 27.6992 143.401 28.4992C143.301 28.5992 143.201 28.4992 143.301 28.3992C146.701 23.6992 144.001 20.4992 140.501 25.0992C140.401 25.1992 140.201 25.0992 140.301 24.9992C141.001 22.7992 141.101 19.4992 138.501 20.2992C137.276 20.6719 136.76 22.15 136.259 23.5866C135.818 24.8485 135.389 26.0784 134.501 26.4992C130.514 19.3949 129.942 27.1104 130.882 32.7307C131.239 34.8632 131.813 36.6941 132.501 37.2992C133.867 38.5519 136.07 38.2628 138.353 37.2194ZM135.718 43.2559C131.299 52.027 124.09 60.6968 111.9 65.9995C110.644 66.5755 109.497 67.3708 108.502 68.3424C107.562 69.2154 106.755 70.2312 106.1 71.3999C96.9004 87.9999 82.4004 105.1 77.5004 110.7C77.0972 111.148 76.5534 111.375 76.0131 111.391C75.3819 111.378 74.7674 111.076 74.4004 110.499C71.6004 106.399 65.3004 96.9995 59.4004 85.8995C58.1959 83.6243 55.4242 82.9612 53.0329 82.9812C51.8122 82.9816 50.6827 83.1618 49.9004 83.3999C46.5116 84.297 39.3477 86.6842 35.1419 91.1556C33.5778 89.9686 32.8103 88.126 32.0554 86.3139C31.7235 85.5171 31.3941 84.7262 31.0004 83.9995C32.2985 81.9026 32.8986 78.8087 32.0044 76.908C31.9694 76.9051 31.9347 76.9024 31.9004 76.8999C32.8004 78.7999 32.2004 81.8999 30.9004 83.9999C31.294 84.7266 31.6235 85.5175 31.9554 86.3143C32.7196 88.1489 33.4968 90.0147 35.1004 91.1999L35.1419 91.1556C35.1613 91.1704 35.1808 91.185 35.2004 91.1995C39.4004 86.6995 46.6004 84.2995 50.0004 83.3995C50.7614 83.1679 51.8506 82.9911 53.0329 82.9812C55.401 82.9804 58.1127 83.6564 59.3004 85.8999C65.2004 96.9999 71.5004 106.4 74.3004 110.5C74.6868 111.107 75.3474 111.41 76.0131 111.391C76.5858 111.402 77.1723 111.175 77.6004 110.699C82.5004 105.099 97.0004 87.9995 106.2 71.3995C106.82 70.2562 107.598 69.2263 108.502 68.3424C109.573 67.3481 110.816 66.5389 112.2 65.8999C124.2 60.5578 131.335 51.9736 135.718 43.2559Z" fill="#00A79D"/>
        <path d="M59.4004 85.8995C65.3004 96.9995 71.6004 106.399 74.4004 110.499C74.7674 111.076 75.3819 111.378 76.0131 111.391C76.5534 111.375 77.0972 111.148 77.5004 110.7C82.4004 105.1 96.9004 87.9999 106.1 71.3999C106.755 70.2312 107.562 69.2154 108.502 68.3424C109.497 67.3708 110.644 66.5755 111.9 65.9995C124.09 60.6968 131.299 52.027 135.718 43.2559L135.719 43.2527C136.668 41.3641 137.488 39.4693 138.2 37.5999C136.543 38.1802 134.593 40.7703 132.073 44.1172C128.513 48.8455 123.817 55.0841 117.2 59.2999C114.5 60.9999 111.1 58.7999 111.6 55.6999C112.3 51.5999 112.7 46.6999 111.7 44.3999C111.5 43.7999 110.4 43.9999 110.4 44.5999C109.125 63.1321 91.301 83.6155 82.7913 93.3946C81.2908 95.119 80.0799 96.5106 79.3004 97.4999C77.9004 99.2999 75.3004 99.2999 73.8004 97.6999C68.6347 92.0176 64.3403 85.3551 60.1134 78.7973C58.6126 76.4688 57.1202 74.1535 55.6004 71.8999C55.2004 71.2999 54.8004 71.4999 54.9004 72.1999C55.0004 76.9999 42.0004 84.3999 39.2004 82.0999C38.7117 81.6811 38.7591 81.3597 38.8323 80.8636C38.8639 80.6491 38.9004 80.4018 38.9004 80.0999C38.9004 79.6571 38.4405 79.3838 37.9851 79.1131C37.5149 78.8337 37.0496 78.5571 37.1004 78.0999C37.2004 77.7999 37.2004 77.3999 37.2004 77.0999C35.805 77.3937 34.3556 77.202 33.1296 77.0399C32.7272 76.9867 32.3489 76.9366 32.0044 76.908C32.8986 78.8087 32.2985 81.9026 31.0004 83.9995C31.3941 84.7262 31.7235 85.5171 32.0554 86.3139C32.8103 88.126 33.5778 89.9686 35.1419 91.1556C39.3477 86.6842 46.5116 84.297 49.9004 83.3999C50.6827 83.1618 51.8122 82.9816 53.0329 82.9812C55.4242 82.9612 58.1959 83.6243 59.4004 85.8995Z" fill="#009C92"/>
    </g>

    <g filter="url(#filter3_d_1022_13449)">
        <path d="M8.60044 14.2007L42.9004 99.7007C43.1004 100.101 42.9004 100.501 42.5004 100.701L40.3004 101.601C39.9004 101.801 39.5004 101.601 39.3004 101.201L3.10044 16.4007C2.80044 15.7007 3.10044 14.9007 3.90044 14.6007L6.90044 13.4007C7.50044 13.2007 8.30044 13.5007 8.60044 14.2007Z" fill="#ED1C24"/>
    </g>
    <g filter="url(#filter4_d_1022_13449)">
        <path d="M42.9008 99.8L42.1008 97.7C40.6008 98.1 39.4008 96.9 38.6008 95.2L37.9008 93.7C36.5008 89.9 35.3008 81.2 32.0008 79.9L4.50078 14.9C4.40078 14.7 4.30078 14.6 4.20078 14.5L3.90078 14.6C3.20078 14.9 2.80078 15.7 3.10078 16.4L39.3008 101.2C39.5008 101.6 39.9008 101.8 40.3008 101.6L42.5008 100.7C42.9008 100.6 43.1008 100.1 42.9008 99.8Z" fill="#BE1E2D"/>
    </g>
    <path d="M37.5011 29.7002H37.2011C28.5011 31.1002 24.8011 20.5002 32.5011 16.2002L32.7011 16.1002C32.8011 16.1002 32.8011 16.0002 32.9011 15.9002C32.9011 15.7002 32.8011 15.5002 32.7011 15.5002C31.1011 15.1002 29.4011 15.1002 27.8011 15.5002C26.2011 16.0002 24.7011 16.9002 23.6011 18.1002C21.3011 20.6002 20.5011 24.4002 21.6011 27.6002C22.8011 30.9002 25.8011 33.3002 29.1011 33.8002C30.8011 34.0002 32.5011 33.9002 34.1011 33.2002C35.6011 32.5002 37.0011 31.5002 38.0011 30.1002C38.0011 30.0002 38.1011 29.9002 38.1011 29.9002C37.8011 29.8002 37.7011 29.6002 37.5011 29.7002Z" fill="white"/>
    <path d="M46.0016 22.8001L44.3016 20.7001C44.1016 20.5001 44.1016 20.2001 44.3016 20.0001L45.8016 17.7001C46.0016 17.4001 46.0016 17.1001 45.8016 16.8001C45.6016 16.5001 45.2016 16.4001 44.9016 16.6001L42.3016 17.6001C42.1016 17.7001 41.8016 17.6001 41.6016 17.4001L39.9016 15.3001C39.7016 15.0001 39.3016 14.9001 39.0016 15.1001C38.7016 15.2001 38.5016 15.5001 38.5016 15.9001L38.6016 18.6001C38.6016 18.9001 38.5016 19.1001 38.2016 19.2001L35.6016 20.2001C35.3016 20.3001 35.1016 20.6001 35.1016 21.0001C35.1016 21.3001 35.3016 21.6001 35.7016 21.7001L38.3016 22.4001C38.6016 22.5001 38.7016 22.7001 38.7016 23.0001L38.8016 25.7001C38.8016 26.0001 39.0016 26.3001 39.4016 26.4001C39.5016 26.4001 39.6016 26.4001 39.7016 26.4001C39.9016 26.4001 40.2016 26.3001 40.3016 26.0001L41.8016 23.7001C41.9016 23.5001 42.2016 23.4001 42.5016 23.4001L45.1016 24.1001C45.4016 24.2001 45.8016 24.1001 46.0016 23.8001C46.2016 23.5001 46.2016 23.1001 46.0016 22.8001Z" fill="white"/>
    <path d="M36.8012 88.8006C36.6012 88.0006 35.5012 87.4006 34.8012 87.7006C34.8012 87.7006 34.8012 87.4006 35.0012 87.0006C35.3012 86.0006 35.0012 85.0006 34.0012 84.5006C33.7012 84.3006 32.8012 84.4006 32.8012 84.4006C32.8012 84.4006 34.0012 83.0006 33.7012 81.9006C33.6012 81.4006 33.0012 80.8006 32.5012 80.5006C31.9012 80.2006 31.1012 80.1006 30.4012 80.2006C29.5012 80.3006 28.6012 80.7006 27.9012 81.3006C27.5012 81.6006 27.1012 82.1006 26.9012 82.7006C26.6012 83.7006 27.0012 85.1006 27.9012 85.7006C28.0012 85.8006 28.1012 85.8006 28.2012 85.8006C28.3012 85.8006 28.3012 85.8006 28.4012 85.9006C28.3012 86.0006 28.3012 86.2006 28.2012 86.4006C27.9012 88.0006 28.8012 89.7006 30.4012 90.0006C30.6012 90.0006 30.8012 90.0006 31.0012 90.0006C31.0012 90.1006 31.0012 90.3006 31.0012 90.4006C31.0012 90.8006 31.1012 91.1006 31.2012 91.3006C31.4012 91.9006 32.0012 92.2006 32.5012 92.3006C33.0012 92.4006 33.4012 92.3006 33.9012 92.2006C34.5012 92.0006 35.2012 91.8006 35.7012 91.3006C36.4012 90.6006 37.0012 89.7006 36.8012 88.8006Z" fill="#00A79D"/>
    <path d="M34.802 87.8004C34.802 87.8004 34.802 87.5004 35.002 87.1004C35.302 86.1004 35.002 85.1004 34.002 84.6004C33.702 84.4004 32.802 84.5004 32.802 84.5004C32.802 84.5004 34.002 83.1004 33.702 82.0004C33.602 81.5004 33.002 80.9004 32.502 80.6004C32.302 80.5004 32.202 80.5004 32.002 80.4004C32.302 81.4004 32.102 82.7004 31.702 83.5004C30.902 85.1004 29.102 85.6004 27.502 85.2004C27.602 85.4004 27.802 85.5004 28.002 85.6004C28.102 85.7004 28.202 85.7004 28.302 85.7004C28.402 85.7004 28.402 85.7004 28.502 85.8004C28.502 85.9004 28.402 86.1004 28.302 86.2004C28.402 86.2004 28.402 86.2004 28.502 86.1004C29.402 86.0004 30.702 86.0004 31.402 85.2004C31.402 85.1004 31.502 85.1004 31.602 85.1004C31.802 84.8004 32.102 84.7004 32.502 84.9004C33.602 85.6004 33.502 86.9004 32.702 87.5004C31.602 88.5004 29.702 88.1004 28.402 87.6004C28.702 88.7004 29.402 89.6004 30.602 89.8004C30.902 89.9004 31.302 89.9004 31.702 89.8004C34.002 89.4004 34.402 88.7004 34.402 88.6004C34.602 88.2004 36.002 88.8004 35.902 89.2004C35.902 90.9004 32.002 91.2004 31.402 91.2004H31.302C31.602 91.7004 32.102 92.0004 32.602 92.1004C33.102 92.2004 33.502 92.1004 34.002 92.0004C34.602 91.8004 35.302 91.6004 35.802 91.1004C36.302 90.6004 36.902 89.7004 36.802 88.8004C36.602 88.1004 35.502 87.4004 34.802 87.8004Z" fill="#009C92"/>
    <path d="M31.9016 75.5002C31.4016 75.8002 31.1016 76.3002 31.1016 76.8002C31.1016 77.5002 31.6016 78.1002 32.2016 78.4002C33.4016 79.1002 34.3016 78.5002 35.3016 80.6002C35.8016 81.6002 39.0016 77.2002 38.1016 76.9002C36.4016 76.3002 34.6016 75.4002 32.7016 75.2002C32.4016 75.3002 32.1016 75.3002 31.9016 75.5002Z" fill="#00A79D"/>
    <path d="M33.402 77.7002C32.502 77.3002 31.702 76.6002 31.502 75.7002C31.202 76.0002 31.002 76.4002 31.002 76.8002C31.002 77.5002 31.502 78.1002 32.102 78.4002C33.302 79.1002 34.202 78.5002 35.202 80.6002C35.502 81.2002 36.602 80.0002 37.402 78.8002C36.102 78.8002 34.602 78.2002 33.402 77.7002Z" fill="#009C92"/>
    <g filter="url(#filter5_d_1022_13449)">
        <path d="M128.8 24.4002C128.8 23.1002 128.6 21.9002 128.1 20.8002C127.7 19.7002 127.1 18.7002 126.3 17.9002C125.5 17.1002 124.6 16.4002 123.5 16.1002C122.4 15.7002 121.3 15.6002 120.2 15.8002C119.1 16.0002 118 16.4002 116.9 17.0002C115.9 17.7002 114.9 18.5002 114.1 19.6002C113.3 20.7002 112.6 21.9002 112.2 23.3002C111.8 24.7002 111.6 26.1002 111.6 27.5002C111.6 28.8002 111.9 30.1002 112.4 31.3002C112.9 32.4002 113.5 33.4002 114.4 34.2002C115.2 35.0002 116.2 35.5002 117.3 35.8002C118.4 36.1002 119.6 36.1002 120.7 35.9002C121.8 35.7002 122.9 35.2002 123.8 34.5002C124.8 33.8002 125.7 32.9002 126.4 31.9002C127.1 30.9002 127.8 29.7002 128.2 28.3002C128.6 27.0002 128.8 25.7002 128.8 24.4002ZM123.3 26.1002C123.1 26.6002 122.9 27.0002 122.6 27.4002C122.3 27.8002 122 28.1002 121.6 28.3002C121.2 28.5002 120.9 28.7002 120.5 28.8002C120.1 28.9002 119.7 28.9002 119.3 28.7002C118.9 28.6002 118.6 28.4002 118.3 28.1002C118 27.8002 117.8 27.5002 117.6 27.1002C117.4 26.7002 117.3 26.2002 117.3 25.8002C117.3 25.3002 117.4 24.8002 117.5 24.3002C117.7 23.8002 117.9 23.4002 118.2 23.0002C118.5 22.6002 118.8 22.3002 119.2 22.1002C119.6 21.9002 120 21.7002 120.4 21.6002C120.8 21.5002 121.2 21.6002 121.6 21.7002C122 21.8002 122.3 22.1002 122.6 22.3002C122.9 22.6002 123.1 22.9002 123.3 23.3002C123.5 23.7002 123.5 24.1002 123.5 24.6002C123.6 25.1002 123.5 25.6002 123.3 26.1002Z" fill="#00A79D"/>
    </g>
    <path d="M121.2 33.9002C120 34.1002 118.7 34.1002 117.4 33.8002C116.1 33.5002 115 33.0002 114.1 32.3002C113.2 31.6002 112.4 30.7002 111.9 29.7002C112 30.2002 112.2 30.8002 112.4 31.2002C112.9 32.3002 113.5 33.3002 114.4 34.1002C115.2 34.9002 116.2 35.4002 117.3 35.7002C118.4 36.0002 119.6 36.0002 120.7 35.8002C121.8 35.6002 122.9 35.1002 123.8 34.4002C124.8 33.7002 125.7 32.8002 126.4 31.8002C126.7 31.4002 126.9 31.0002 127.1 30.6002C126.4 31.3002 125.6 32.0002 124.7 32.5002C123.6 33.2002 122.4 33.7002 121.2 33.9002Z" fill="#009C92"/>
    <g opacity="0.2">
        <path d="M114.199 26.8C113.499 25.6 113.599 24.2 113.899 23C114.199 21.8 114.899 20.7 115.699 19.7C116.199 19.2 116.699 18.8 117.199 18.4C117.799 18.1 118.399 17.7 119.099 17.6C120.399 17.2 121.999 17.3 123.099 18.3C121.999 18.2 120.799 18.4 119.799 18.9C118.799 19.4 117.899 20.1 117.099 21C116.299 21.8 115.699 22.7 115.199 23.7C114.699 24.6 114.299 25.7 114.199 26.8Z" fill="white"/>
    </g>
    <g filter="url(#filter6_d_1022_13449)">
        <path d="M148.7 56.5008C148.7 55.2008 148.5 54.0008 148 52.9008C147.6 51.8008 147 50.8008 146.2 50.0008C145.4 49.2008 144.5 48.5008 143.4 48.2008C142.3 47.8008 141.1 47.7008 140 47.9008C138.9 48.1008 137.7 48.5008 136.7 49.1008C135.6 49.8008 134.7 50.6008 133.9 51.7008C133.1 52.8008 132.4 54.0008 132 55.5008C131.6 56.9008 131.4 58.3008 131.4 59.7008C131.4 61.0008 131.7 62.3008 132.2 63.5008C132.7 64.6008 133.4 65.6008 134.2 66.4008C135 67.2008 136 67.7008 137.2 68.0008C138.3 68.3008 139.5 68.3008 140.6 68.1008C141.7 67.9008 142.8 67.4008 143.8 66.7008C144.8 66.0008 145.7 65.1008 146.4 64.1008C147.2 63.1008 147.8 61.9008 148.2 60.6008C148.5 59.1008 148.7 57.8008 148.7 56.5008ZM142.8 58.8008C142.6 59.3008 142.4 59.7008 142.2 60.1008C141.9 60.5008 141.6 60.8008 141.2 61.0008C140.8 61.2008 140.5 61.4008 140.1 61.5008C139.7 61.6008 139.3 61.6008 138.9 61.4008C138.5 61.3008 138.2 61.1008 137.9 60.8008C137.6 60.5008 137.4 60.2008 137.2 59.8008C137 59.4008 136.9 59.0008 136.9 58.5008C136.9 58.0008 137 57.5008 137.1 57.1008C137.3 56.6008 137.5 56.2008 137.8 55.8008C138.1 55.4008 138.4 55.1008 138.8 54.9008C139.2 54.7008 139.6 54.5008 140 54.4008C140.4 54.3008 140.8 54.4008 141.2 54.5008C141.6 54.6008 141.9 54.8008 142.2 55.1008C142.5 55.4008 142.7 55.7008 142.9 56.1008C143.1 56.5008 143.1 56.9008 143.2 57.4008C143 57.9008 142.9 58.3008 142.8 58.8008Z" fill="#00A79D"/>
    </g>
    <path d="M144.901 63.801C143.901 64.401 142.701 64.901 141.601 65.101C140.401 65.301 139.201 65.301 138.001 65.001C136.801 64.701 135.801 64.201 134.901 63.501C134.001 62.801 133.301 61.801 132.801 60.801C132.301 59.701 132.001 58.501 131.901 57.301C131.901 56.601 131.901 55.801 132.101 55.001C132.001 55.201 132.001 55.301 131.901 55.401C131.501 56.801 131.301 58.201 131.301 59.601C131.301 60.901 131.601 62.201 132.101 63.401C132.601 64.501 133.301 65.501 134.101 66.301C134.901 67.101 135.901 67.601 137.101 67.901C138.201 68.201 139.401 68.201 140.501 68.001C141.601 67.801 142.701 67.301 143.701 66.601C144.701 65.901 145.601 65.001 146.301 64.001C146.901 63.201 147.401 62.201 147.801 61.201L147.701 61.301C146.901 62.301 146.001 63.101 144.901 63.801Z" fill="#009C92"/>
    <g opacity="0.2">
        <path d="M133.901 58.4007C133.601 57.2007 133.601 56.0007 133.901 54.8007C134.201 53.6007 134.801 52.4007 135.601 51.5007C136.501 50.5007 137.601 49.8007 138.901 49.5007C140.201 49.1007 141.601 49.2007 142.601 49.8007C140.101 49.8007 138.101 50.9007 136.701 52.5007C136.001 53.3007 135.401 54.2007 135.001 55.2007C134.601 56.2007 134.201 57.2007 133.901 58.4007Z" fill="white"/>
    </g>
    <path d="M64.8 47.4004C65.8 48.6004 66.8 49.9004 68 50.7004C69.1 51.7004 70.4 52.5004 71.6 53.2004C74.1 54.6004 76.8 55.6004 79.6 56.0004C82.3 56.5004 85.2 56.4004 87.9 55.8004C88.2 55.7004 88.6 55.7004 88.9 55.6004L89.9 55.2004C90.6 55.0004 91.3 54.7004 91.9 54.4004C92.5 54.1004 93.2 53.8004 93.9 53.4004C94.5 53.0004 95.2 52.6004 95.8 52.2004C95.4 57.2004 92.8 61.0004 89.5 63.3004C86.2 65.6004 82.2 66.4004 78.4 65.8004C74.7 65.2004 71.2 63.2004 68.5 60.1004C67.2 58.5004 66.1 56.7004 65.3 54.5004C65.1 53.9004 65 53.4004 64.8 52.9004C64.7 52.3004 64.6 51.7004 64.5 51.1004C64.5 49.9004 64.6 48.6004 64.8 47.4004Z" fill="#009C92"/>
    <path d="M64.8 45.3008C65.8 46.4008 66.8 47.4008 68 48.2008C69.1 49.1008 70.4 49.8008 71.7 50.4008C74.3 51.6008 77 52.5008 79.9 52.8008C82.7 53.3008 85.6 53.1008 88.4 52.6008C88.8 52.5008 89.1 52.5008 89.5 52.4008L90.5 52.1008C91.2 51.9008 91.9 51.7008 92.5 51.4008C93.2 51.1008 93.9 50.9008 94.5 50.5008C95.1 50.1008 95.8 49.8008 96.5 49.5008C96.1 53.9008 93.4 57.2008 90 59.2008C86.6 61.2008 82.5 61.9008 78.7 61.4008C74.9 60.9008 71.3 59.1008 68.5 56.4008C67.2 55.0008 66 53.4008 65.3 51.5008C65.1 51.0008 65 50.5008 64.8 50.1008C64.7 49.6008 64.6 49.1008 64.5 48.5008C64.5 47.5008 64.6 46.4008 64.8 45.3008Z" fill="white"/>
    <path d="M77.2995 31.9005C76.3995 29.4005 73.8995 28.4005 71.6995 29.7005C67.9995 31.8005 69.0995 40.0005 74.0995 38.7005C76.5995 37.9005 78.0995 34.3005 77.2995 31.9005Z" fill="#009C92"/>
    <path d="M85.8001 35.3006C86.4001 34.5006 87.1001 34.0006 87.9001 33.6006C88.7001 33.2006 89.6001 33.1006 90.5001 33.1006C91.4001 33.1006 92.2001 33.3006 93.0001 33.6006C93.4001 33.8006 93.7001 34.0006 94.1001 34.2006C94.4001 34.4006 94.7001 34.7006 95.0001 34.9006C95.6001 35.4006 95.7001 36.4006 95.1001 37.0006C94.7001 37.4006 94.1001 37.6006 93.6001 37.4006H93.4001C92.8001 37.2006 92.3001 37.1006 91.8001 36.9006C91.3001 36.8006 90.8001 36.7006 90.4001 36.7006C90.0001 36.7006 89.5001 36.8006 89.1001 36.8006C88.7001 36.9006 88.2001 37.1006 87.9001 37.2006L87.2001 37.4006C86.5001 37.6006 85.7001 37.1006 85.6001 36.4006C85.4001 36.1006 85.5001 35.6006 85.8001 35.3006Z" fill="#009C92"/>
    <path d="M77.2995 30.4005C76.3995 27.9005 73.8995 26.9005 71.6995 28.2005C67.9995 30.3005 69.0995 38.5005 74.0995 37.2005C76.5995 36.4005 78.0995 32.9005 77.2995 30.4005Z" fill="white"/>
    <path d="M85.8001 33.9002C86.4001 33.1002 87.1001 32.6002 87.9001 32.2002C88.7001 31.8002 89.6001 31.7002 90.5001 31.7002C91.4001 31.7002 92.2001 31.9002 93.0001 32.2002C93.4001 32.4002 93.7001 32.6002 94.1001 32.8002C94.4001 33.0002 94.7001 33.3002 95.0001 33.5002C95.6001 34.0002 95.7001 35.0002 95.1001 35.6002C94.7001 36.0002 94.1001 36.2002 93.6001 36.0002H93.4001C92.8001 35.8002 92.3001 35.7002 91.8001 35.5002C91.3001 35.4002 90.8001 35.3002 90.4001 35.3002C90.0001 35.3002 89.5001 35.4002 89.1001 35.4002C88.7001 35.5002 88.2001 35.7002 87.9001 35.8002L87.2001 36.0002C86.5001 36.2002 85.7001 35.7002 85.6001 35.0002C85.4001 34.6002 85.5001 34.2002 85.8001 33.9002Z" fill="white"/>
    <defs>
        <filter id="filter0_d_1022_13449" x="4.30078" y="0" width="53.0996" height="54.5005" filterUnits="userSpaceOnUse" color-interpolation-filters="sRGB">
            <feFlood flood-opacity="0" result="BackgroundImageFix"/>
            <feColorMatrix in="SourceAlpha" type="matrix" values="0 0 0 0 0 0 0 0 0 0 0 0 0 0 0 0 0 0 127 0" result="hardAlpha"/>
            <feOffset dy="4"/>
            <feGaussianBlur stdDeviation="1"/>
            <feComposite in2="hardAlpha" operator="out"/>
            <feColorMatrix type="matrix" values="0 0 0 0 0 0 0 0 0 0 0 0 0 0 0 0 0 0 0.25 0"/>
            <feBlend mode="normal" in2="BackgroundImageFix" result="effect1_dropShadow_1022_13449"/>
            <feBlend mode="normal" in="SourceGraphic" in2="effect1_dropShadow_1022_13449" result="shape"/>
        </filter>
        <filter id="filter1_d_1022_13449" x="28.9004" y="12.9287" width="120.025" height="104.463" filterUnits="userSpaceOnUse" color-interpolation-filters="sRGB">
            <feFlood flood-opacity="0" result="BackgroundImageFix"/>
            <feColorMatrix in="SourceAlpha" type="matrix" values="0 0 0 0 0 0 0 0 0 0 0 0 0 0 0 0 0 0 127 0" result="hardAlpha"/>
            <feOffset dy="4"/>
            <feGaussianBlur stdDeviation="1"/>
            <feComposite in2="hardAlpha" operator="out"/>
            <feColorMatrix type="matrix" values="0 0 0 0 0 0 0 0 0 0 0 0 0 0 0 0 0 0 0.25 0"/>
            <feBlend mode="normal" in2="BackgroundImageFix" result="effect1_dropShadow_1022_13449"/>
            <feBlend mode="normal" in="SourceGraphic" in2="effect1_dropShadow_1022_13449" result="shape"/>
        </filter>
        <filter id="filter2_d_1022_13449" x="49.4004" y="116.301" width="56.1992" height="11.7998" filterUnits="userSpaceOnUse" color-interpolation-filters="sRGB">
            <feFlood flood-opacity="0" result="BackgroundImageFix"/>
            <feColorMatrix in="SourceAlpha" type="matrix" values="0 0 0 0 0 0 0 0 0 0 0 0 0 0 0 0 0 0 127 0" result="hardAlpha"/>
            <feOffset dy="4"/>
            <feGaussianBlur stdDeviation="1"/>
            <feComposite in2="hardAlpha" operator="out"/>
            <feColorMatrix type="matrix" values="0 0 0 0 0 0 0 0 0 0 0 0 0 0 0 0 0 0 0.25 0"/>
            <feBlend mode="normal" in2="BackgroundImageFix" result="effect1_dropShadow_1022_13449"/>
            <feBlend mode="normal" in="SourceGraphic" in2="effect1_dropShadow_1022_13449" result="shape"/>
        </filter>
        <filter id="filter3_d_1022_13449" x="0.986328" y="13.3398" width="43.9922" height="94.3394" filterUnits="userSpaceOnUse" color-interpolation-filters="sRGB">
            <feFlood flood-opacity="0" result="BackgroundImageFix"/>
            <feColorMatrix in="SourceAlpha" type="matrix" values="0 0 0 0 0 0 0 0 0 0 0 0 0 0 0 0 0 0 127 0" result="hardAlpha"/>
            <feOffset dy="4"/>
            <feGaussianBlur stdDeviation="1"/>
            <feComposite in2="hardAlpha" operator="out"/>
            <feColorMatrix type="matrix" values="0 0 0 0 0 0 0 0 0 0 0 0 0 0 0 0 0 0 0.25 0"/>
            <feBlend mode="normal" in2="BackgroundImageFix" result="effect1_dropShadow_1022_13449"/>
            <feBlend mode="normal" in="SourceGraphic" in2="effect1_dropShadow_1022_13449" result="shape"/>
        </filter>
        <filter id="filter4_d_1022_13449" x="1" y="14.5" width="43.9785" height="93.1782" filterUnits="userSpaceOnUse" color-interpolation-filters="sRGB">
            <feFlood flood-opacity="0" result="BackgroundImageFix"/>
            <feColorMatrix in="SourceAlpha" type="matrix" values="0 0 0 0 0 0 0 0 0 0 0 0 0 0 0 0 0 0 127 0" result="hardAlpha"/>
            <feOffset dy="4"/>
            <feGaussianBlur stdDeviation="1"/>
            <feComposite in2="hardAlpha" operator="out"/>
            <feColorMatrix type="matrix" values="0 0 0 0 0 0 0 0 0 0 0 0 0 0 0 0 0 0 0.25 0"/>
            <feBlend mode="normal" in2="BackgroundImageFix" result="effect1_dropShadow_1022_13449"/>
            <feBlend mode="normal" in="SourceGraphic" in2="effect1_dropShadow_1022_13449" result="shape"/>
        </filter>
        <filter id="filter5_d_1022_13449" x="109.6" y="15.7002" width="21.1992" height="26.3394" filterUnits="userSpaceOnUse" color-interpolation-filters="sRGB">
            <feFlood flood-opacity="0" result="BackgroundImageFix"/>
            <feColorMatrix in="SourceAlpha" type="matrix" values="0 0 0 0 0 0 0 0 0 0 0 0 0 0 0 0 0 0 127 0" result="hardAlpha"/>
            <feOffset dy="4"/>
            <feGaussianBlur stdDeviation="1"/>
            <feComposite in2="hardAlpha" operator="out"/>
            <feColorMatrix type="matrix" values="0 0 0 0 0 0 0 0 0 0 0 0 0 0 0 0 0 0 0.25 0"/>
            <feBlend mode="normal" in2="BackgroundImageFix" result="effect1_dropShadow_1022_13449"/>
            <feBlend mode="normal" in="SourceGraphic" in2="effect1_dropShadow_1022_13449" result="shape"/>
        </filter>
        <filter id="filter6_d_1022_13449" x="129.4" y="47.8008" width="21.3008" height="26.4395" filterUnits="userSpaceOnUse" color-interpolation-filters="sRGB">
            <feFlood flood-opacity="0" result="BackgroundImageFix"/>
            <feColorMatrix in="SourceAlpha" type="matrix" values="0 0 0 0 0 0 0 0 0 0 0 0 0 0 0 0 0 0 127 0" result="hardAlpha"/>
            <feOffset dy="4"/>
            <feGaussianBlur stdDeviation="1"/>
            <feComposite in2="hardAlpha" operator="out"/>
            <feColorMatrix type="matrix" values="0 0 0 0 0 0 0 0 0 0 0 0 0 0 0 0 0 0 0.25 0"/>
            <feBlend mode="normal" in2="BackgroundImageFix" result="effect1_dropShadow_1022_13449"/>
            <feBlend mode="normal" in="SourceGraphic" in2="effect1_dropShadow_1022_13449" result="shape"/>
        </filter>
    </defs>
</svg>
