<svg width="151" height="50" viewBox="0 0 151 50" fill="none" xmlns="http://www.w3.org/2000/svg">
    <g clip-path="url(#clip0_194_4449)">
        <path d="M22.2197 10.0026C21.202 7.54563 19.8875 4.47438 19.2514 3.00018C11.4067 2.95923 9.28652 10.0845 1.39941 10.0845C3.60441 15.2033 4.66451 17.7422 6.86951 22.8609C11.3219 22.8609 14.0358 20.7725 16.7496 18.6431C17.004 18.4383 17.2584 18.2336 17.5129 18.0288C18.1489 15.408 19.421 12.8691 21.3716 10.7807C21.626 10.535 21.9229 10.2893 22.2197 10.0026Z" fill="#ED1C24"/>
        <path d="M55.2098 14.5473C53.4712 18.3966 50.2485 21.5498 47.0682 22.6145C47.2378 15.1616 41.3861 8.81433 33.5838 8.32293C25.6543 7.83153 18.9969 13.6464 18.276 21.3041C18.064 23.5973 18.6577 26.3819 19.7178 29.2484C19.8874 29.7398 19.8026 30.2722 19.4633 30.6407C18.3184 31.9921 16.9191 33.0158 15.5622 34.0805C14.4597 34.9405 13.1452 34.531 12.2971 34.49C12.6787 35.2681 12.4243 36.5375 11.873 37.3975C12.4243 38.3803 12.6787 39.6497 13.654 40.3459C15.435 38.5031 18.488 37.5203 19.9298 37.1518C20.9051 36.8651 23.1525 36.7832 23.9157 38.1755C26.4176 42.721 29.089 46.5703 30.2763 48.2492C30.5731 48.6997 31.2516 48.7406 31.6332 48.3311C33.711 46.0379 39.8596 39.0355 43.7607 32.2378C44.312 31.255 45.16 30.4769 46.1777 30.0265C53.6832 26.8733 56.7363 20.8127 58.178 15.9396C57.2875 15.8168 55.2098 14.5473 55.2098 14.5473Z" fill="#00A79D"/>
        <path d="M48.4255 27.2846C47.2806 27.9807 45.8389 27.0798 46.0509 25.8104C46.3478 24.1314 46.5174 22.1249 46.0933 21.183C46.0085 20.9373 45.5421 21.0192 45.5421 21.2649C44.906 30.192 34.5595 40.2248 32.3545 42.9275C31.7608 43.6646 30.6583 43.6646 30.0223 43.0094C27.054 39.8563 24.7642 35.966 22.3048 32.4443C22.1352 32.1986 21.9656 32.2805 22.008 32.5672C22.0504 34.5328 16.5379 37.5631 15.3506 36.6212C15.0537 36.3755 15.2234 36.2117 15.2234 35.8022C15.2234 35.4337 14.4177 35.3518 14.4601 34.9832C14.5025 34.8604 14.5025 34.6966 14.5025 34.5737C13.6968 34.7375 12.8487 34.5328 12.2551 34.4918C12.6367 35.2699 12.3823 36.5393 11.8311 37.3993C12.3823 38.3821 12.6367 39.6515 13.612 40.3477C15.393 38.5049 18.4461 37.5221 19.8878 37.1536C20.8631 36.8669 23.1105 36.785 23.8737 38.1773C26.3756 42.7228 29.047 46.5721 30.2343 48.251C30.5311 48.7015 31.2096 48.7424 31.5912 48.3329C33.669 46.0397 39.8176 39.0373 43.7187 32.2396C44.3124 31.2158 45.2029 30.4787 46.3054 29.9873C52.4963 27.3255 55.6342 22.6982 57.3303 18.3984C55.6342 18.9717 53.2172 24.3362 48.4255 27.2846Z" fill="#009C92"/>
        <path d="M2.37474 8.8154L16.9193 43.8277C17.0041 43.9915 16.9193 44.1553 16.7496 44.2372L15.8168 44.6057C15.6471 44.6876 15.4775 44.6057 15.3927 44.4419L0.0425291 9.7163C-0.0846824 9.42965 0.0425291 9.10205 0.38176 8.9792L1.65387 8.4878C1.9083 8.4059 2.24753 8.52875 2.37474 8.8154Z" fill="#ED1C24"/>
        <path d="M14.6297 15.1624H14.5025C10.8134 15.7357 9.24443 11.395 12.5095 9.63411L12.5943 9.59316C12.6367 9.59316 12.6367 9.55221 12.6791 9.51126C12.6791 9.42936 12.6367 9.34746 12.5943 9.34746C11.9159 9.18366 11.195 9.18366 10.5165 9.34746C9.83809 9.55221 9.20203 9.92076 8.73559 10.4122C7.7603 11.4359 7.42107 12.992 7.88751 14.3024C8.39636 15.6538 9.66847 16.6366 11.0678 16.8413C11.7887 16.9232 12.5095 16.8823 13.188 16.5956C13.824 16.309 14.4177 15.8995 14.8417 15.3262C14.8417 15.2852 14.8841 15.2443 14.8841 15.2443C14.7569 15.2033 14.7145 15.1214 14.6297 15.1624Z" fill="white"/>
        <path d="M18.2343 12.3374L17.5135 11.4774C17.4286 11.3955 17.4286 11.2727 17.5135 11.1908L18.1495 10.2489C18.2343 10.1261 18.2343 10.0032 18.1495 9.88036C18.0647 9.75751 17.8951 9.71656 17.7679 9.79846L16.6654 10.208C16.5806 10.2489 16.4534 10.208 16.3686 10.1261L15.6477 9.26611C15.5629 9.14326 15.3933 9.10231 15.2661 9.18421C15.1388 9.22516 15.054 9.34801 15.054 9.51181L15.0964 10.6175C15.0964 10.7403 15.054 10.8222 14.9268 10.8632L13.8243 11.2727C13.6971 11.3136 13.6123 11.4365 13.6123 11.6003C13.6123 11.7231 13.6971 11.846 13.8667 11.8869L14.9692 12.1736C15.0964 12.2145 15.1388 12.2964 15.1388 12.4193L15.1812 13.5249C15.1812 13.6478 15.2661 13.7706 15.4357 13.8116C15.4781 13.8116 15.5205 13.8116 15.5629 13.8116C15.6477 13.8116 15.7749 13.7706 15.8173 13.6478L16.4534 12.7059C16.4958 12.624 16.623 12.5831 16.7502 12.5831L17.8527 12.8697C17.9799 12.9107 18.1495 12.8697 18.2343 12.7469C18.3191 12.624 18.3191 12.4602 18.2343 12.3374Z" fill="white"/>
        <path d="M14.3325 39.3642C14.2477 39.0366 13.7813 38.7909 13.4844 38.9138C13.4844 38.9138 13.4844 38.7909 13.5692 38.6271C13.6965 38.2176 13.5692 37.8081 13.1452 37.6034C13.018 37.5215 12.6364 37.5624 12.6364 37.5624C12.6364 37.5624 13.1452 36.9891 13.018 36.5387C12.9756 36.3339 12.7212 36.0882 12.5092 35.9654C12.2547 35.8425 11.9155 35.8016 11.6187 35.8425C11.237 35.8835 10.8554 36.0473 10.5586 36.293C10.389 36.4158 10.2193 36.6206 10.1345 36.8663C10.0073 37.2758 10.1769 37.8491 10.5586 38.0948C10.601 38.1357 10.6434 38.1357 10.6858 38.1357C10.7282 38.1357 10.7282 38.1357 10.7706 38.1767C10.7282 38.2176 10.7282 38.2995 10.6858 38.3814C10.5586 39.0366 10.9402 39.7328 11.6187 39.8556C11.7035 39.8556 11.7883 39.8556 11.8731 39.8556C11.8731 39.8966 11.8731 39.9785 11.8731 40.0194C11.8731 40.1832 11.9155 40.3061 11.9579 40.388C12.0427 40.6337 12.2971 40.7565 12.5092 40.7975C12.7212 40.8384 12.8908 40.7975 13.1028 40.7565C13.3572 40.6746 13.6541 40.5927 13.8661 40.388C14.1629 40.1013 14.4173 39.7328 14.3325 39.3642Z" fill="#00A79D"/>
        <path d="M13.4842 38.9541C13.4842 38.9541 13.4842 38.8313 13.569 38.6675C13.6962 38.258 13.569 37.8485 13.1449 37.6437C13.0177 37.5618 12.6361 37.6028 12.6361 37.6028C12.6361 37.6028 13.1449 37.0295 13.0177 36.579C12.9753 36.3743 12.7209 36.1286 12.5089 36.0057C12.4241 35.9648 12.3817 35.9648 12.2968 35.9238C12.4241 36.3333 12.3392 36.8657 12.1696 37.1933C11.8304 37.8485 11.0671 38.0532 10.3887 37.8894C10.4311 37.9713 10.5159 38.0123 10.6007 38.0532C10.6431 38.0942 10.6855 38.0942 10.7279 38.0942C10.7703 38.0942 10.7703 38.0942 10.8127 38.1351C10.8127 38.1761 10.7703 38.258 10.7279 38.2989C10.7703 38.2989 10.7703 38.2989 10.8127 38.258C11.1943 38.217 11.7456 38.217 12.0424 37.8894C12.0424 37.8485 12.0848 37.8485 12.1272 37.8485C12.212 37.7256 12.3392 37.6847 12.5089 37.7666C12.9753 38.0532 12.9329 38.5856 12.5937 38.8313C12.1272 39.2408 11.3216 39.077 10.7703 38.8722C10.8975 39.3227 11.1943 39.6912 11.7032 39.7731C11.8304 39.8141 12 39.8141 12.1696 39.7731C13.1449 39.6093 13.3145 39.3227 13.3145 39.2817C13.3993 39.1179 13.993 39.3636 13.9506 39.5274C13.9506 40.2236 12.2968 40.3464 12.0424 40.3464H12C12.1272 40.5512 12.3392 40.674 12.5513 40.715C12.7633 40.7559 12.9329 40.715 13.1449 40.674C13.3993 40.5921 13.6962 40.5102 13.9082 40.3055C14.1202 40.1007 14.3746 39.7322 14.3322 39.3636C14.2474 39.077 13.781 38.7903 13.4842 38.9541Z" fill="#009C92"/>
        <path d="M12.2543 33.9178C12.0423 34.0406 11.915 34.2454 11.915 34.4501C11.915 34.7368 12.1271 34.9825 12.3815 35.1053C12.8903 35.392 13.272 35.1463 13.696 36.0062C13.908 36.4157 15.2649 34.6139 14.8833 34.4911C14.1624 34.2454 13.3992 33.8768 12.5935 33.7949C12.4663 33.8359 12.3391 33.8359 12.2543 33.9178Z" fill="#00A79D"/>
        <path d="M12.8907 34.819C12.5091 34.6552 12.1699 34.3686 12.0851 34C11.9579 34.1229 11.873 34.2867 11.873 34.4505C11.873 34.7371 12.0851 34.9828 12.3395 35.1057C12.8483 35.3923 13.23 35.1466 13.654 36.0066C13.7812 36.2523 14.2477 35.7609 14.5869 35.2695C14.0356 35.2695 13.3996 35.0238 12.8907 34.819Z" fill="#009C92"/>
        <path d="M53.3442 12.9923C53.3442 12.46 53.2594 11.9686 53.0474 11.5181C52.8778 11.0677 52.6234 10.6582 52.2841 10.3306C51.9449 10.003 51.5633 9.71634 51.0968 9.59349C50.6304 9.42969 50.164 9.38874 49.6975 9.47064C49.2311 9.55254 48.7646 9.71634 48.2982 9.96204C47.8741 10.2487 47.4501 10.5763 47.1109 11.0267C46.7716 11.4772 46.4748 11.9686 46.3052 12.5419C46.1356 13.1152 46.0508 13.6885 46.0508 14.2618C46.0508 14.7941 46.178 15.3265 46.39 15.8179C46.602 16.2683 46.8565 16.6778 47.2381 17.0054C47.5773 17.333 48.0014 17.5378 48.4678 17.6606C48.9342 17.7835 49.4431 17.7835 49.9095 17.7016C50.376 17.6197 50.8424 17.4149 51.224 17.1283C51.6481 16.8416 52.0297 16.4731 52.3265 16.0636C52.6234 15.6541 52.9202 15.1627 53.0898 14.5894C53.2594 14.057 53.3442 13.5247 53.3442 12.9923ZM51.012 13.6885C50.9272 13.8932 50.8424 14.057 50.7152 14.2208C50.588 14.3846 50.4608 14.5075 50.2912 14.5894C50.1215 14.6713 49.9943 14.7532 49.8247 14.7941C49.6551 14.8351 49.4855 14.8351 49.3159 14.7532C49.1463 14.7122 49.0191 14.6303 48.8918 14.5075C48.7646 14.3846 48.6798 14.2618 48.595 14.098C48.5102 13.9342 48.4678 13.7294 48.4678 13.5656C48.4678 13.3609 48.5102 13.1561 48.5526 12.9514C48.6374 12.7466 48.7222 12.5828 48.8494 12.419C48.9766 12.2552 49.1039 12.1324 49.2735 12.0505C49.4431 11.9686 49.6127 11.8867 49.7823 11.8457C49.9519 11.8048 50.1215 11.8457 50.2912 11.8867C50.4608 11.9276 50.588 12.0505 50.7152 12.1324C50.8424 12.2552 50.9272 12.3781 51.012 12.5419C51.0968 12.7057 51.0968 12.8695 51.0968 13.0742C51.1392 13.279 51.0968 13.4837 51.012 13.6885Z" fill="#00A79D"/>
        <path d="M50.1213 16.882C49.6124 16.9639 49.0612 16.9639 48.5099 16.8411C47.9587 16.7182 47.4923 16.5135 47.1106 16.2268C46.729 15.9402 46.3898 15.5716 46.1777 15.1621C46.2201 15.3669 46.3049 15.6126 46.3898 15.7764C46.6018 16.2268 46.8562 16.6363 47.2378 16.9639C47.5771 17.2915 48.0011 17.4963 48.4675 17.6191C48.934 17.742 49.4428 17.742 49.9093 17.6601C50.3757 17.5782 50.8422 17.3734 51.2238 17.0868C51.6478 16.8001 52.0295 16.4316 52.3263 16.0221C52.4535 15.8583 52.5383 15.6945 52.6231 15.5307C52.3263 15.8173 51.9871 16.104 51.6054 16.3087C51.139 16.5954 50.6301 16.8001 50.1213 16.882Z" fill="#009C92"/>
        <g opacity="0.2">
            <path d="M47.153 13.9753C46.8561 13.4839 46.8985 12.9106 47.0257 12.4192C47.153 11.9278 47.4498 11.4773 47.789 11.0678C48.001 10.8631 48.213 10.6993 48.4251 10.5355C48.6795 10.4126 48.9339 10.2488 49.2307 10.2079C49.782 10.0441 50.4605 10.085 50.9269 10.4945C50.4605 10.4536 49.9516 10.5355 49.5276 10.7402C49.1035 10.945 48.7219 11.2316 48.3827 11.6002C48.0434 11.9278 47.789 12.2963 47.577 12.7058C47.365 13.0744 47.1954 13.5248 47.153 13.9753Z" fill="white"/>
        </g>
        <path d="M61.7822 26.1369C61.7822 25.6045 61.6973 25.1131 61.4853 24.6627C61.3157 24.2122 61.0613 23.8027 60.7221 23.4751C60.3828 23.1475 60.0012 22.8609 59.5347 22.738C59.0683 22.5742 58.5595 22.5333 58.093 22.6152C57.6266 22.6971 57.1177 22.8609 56.6937 23.1066C56.2273 23.3932 55.8456 23.7208 55.5064 24.1713C55.1672 24.6217 54.8703 25.1131 54.7007 25.7274C54.5311 26.3007 54.4463 26.874 54.4463 27.4473C54.4463 27.9796 54.5735 28.512 54.7855 29.0034C54.9975 29.4538 55.2944 29.8633 55.6336 30.1909C55.9728 30.5185 56.3969 30.7233 56.9057 30.8461C57.3722 30.969 57.881 30.969 58.3474 30.8871C58.8139 30.8052 59.2803 30.6004 59.7044 30.3138C60.1284 30.0271 60.51 29.6586 60.8069 29.2491C61.1461 28.8396 61.4005 28.3482 61.5701 27.8158C61.6973 27.2016 61.7822 26.6692 61.7822 26.1369ZM59.2803 27.0787C59.1955 27.2835 59.1107 27.4473 59.0259 27.6111C58.8987 27.7749 58.7715 27.8977 58.6019 27.9796C58.4322 28.0615 58.305 28.1434 58.1354 28.1844C57.9658 28.2253 57.7962 28.2253 57.6266 28.1434C57.457 28.1025 57.3297 28.0206 57.2025 27.8977C57.0753 27.7749 56.9905 27.652 56.9057 27.4882C56.8209 27.3244 56.7785 27.1606 56.7785 26.9559C56.7785 26.7511 56.8209 26.5464 56.8633 26.3826C56.9481 26.1778 57.0329 26.014 57.1601 25.8502C57.2873 25.6864 57.4146 25.5636 57.5842 25.4817C57.7538 25.3998 57.9234 25.3179 58.093 25.2769C58.2626 25.236 58.4322 25.2769 58.6019 25.3179C58.7715 25.3588 58.8987 25.4407 59.0259 25.5636C59.1531 25.6864 59.2379 25.8093 59.3227 25.9731C59.4075 26.1369 59.4075 26.3007 59.4499 26.5054C59.3651 26.7102 59.3227 26.874 59.2803 27.0787Z" fill="#00A79D"/>
        <path d="M60.1712 29.1261C59.7472 29.3718 59.2383 29.5765 58.7719 29.6584C58.263 29.7403 57.7542 29.7403 57.2454 29.6175C56.7365 29.4946 56.3125 29.2899 55.9308 29.0032C55.5492 28.7166 55.2524 28.3071 55.0404 27.8976C54.8283 27.4471 54.7011 26.9557 54.6587 26.4643C54.6587 26.1777 54.6587 25.8501 54.7435 25.5225C54.7011 25.6044 54.7011 25.6453 54.6587 25.6863C54.4891 26.2596 54.4043 26.8329 54.4043 27.4062C54.4043 27.9385 54.5315 28.4709 54.7435 28.9623C54.9555 29.4127 55.2524 29.8222 55.5916 30.1498C55.9308 30.4774 56.3549 30.6822 56.8637 30.805C57.3302 30.9279 57.839 30.9279 58.3054 30.846C58.7719 30.7641 59.2383 30.5593 59.6624 30.2727C60.0864 29.986 60.468 29.6175 60.7649 29.208C61.0193 28.8804 61.2313 28.4709 61.4009 28.0614L61.3585 28.1023C61.0193 28.5118 60.6377 28.8394 60.1712 29.1261Z" fill="#009C92"/>
        <g opacity="0.2">
            <path d="M55.5065 26.9147C55.3793 26.4233 55.3793 25.9319 55.5065 25.4405C55.6338 24.9491 55.8882 24.4577 56.2274 24.0892C56.609 23.6797 57.0755 23.393 57.6267 23.2702C58.178 23.1064 58.7716 23.1473 59.1957 23.393C58.1356 23.393 57.2875 23.8435 56.6938 24.4987C56.397 24.8263 56.1426 25.1948 55.973 25.6043C55.8034 26.0138 55.6338 26.4233 55.5065 26.9147Z" fill="white"/>
        </g>
        <path d="M26.2053 22.4102C26.6294 22.9016 27.0534 23.4339 27.5623 23.7615C28.0287 24.171 28.5799 24.4986 29.0888 24.7853C30.1489 25.3586 31.2938 25.7681 32.4811 25.9319C33.626 26.1366 34.8557 26.0957 36.0006 25.85C36.1278 25.809 36.2974 25.809 36.4247 25.7681L36.8487 25.6043C37.1455 25.5224 37.4423 25.3995 37.6968 25.2767C37.9512 25.1538 38.248 25.031 38.5448 24.8672C38.7993 24.7034 39.0961 24.5396 39.3505 24.3758C39.1809 26.4233 38.0784 27.9794 36.6791 28.9212C35.2798 29.8631 33.5836 30.1907 31.9723 29.945C30.4033 29.6993 28.9192 28.8803 27.7743 27.6108C27.223 26.9556 26.7566 26.2185 26.4174 25.3176C26.3325 25.0719 26.2901 24.8672 26.2053 24.6624C26.1629 24.4167 26.1205 24.171 26.0781 23.9253C26.0781 23.4339 26.1205 22.9016 26.2053 22.4102Z" fill="#009C92"/>
        <path d="M26.2053 21.5508C26.6294 22.0012 27.0534 22.4107 27.5623 22.7383C28.0287 23.1069 28.5799 23.3935 29.1312 23.6392C30.2337 24.1306 31.3786 24.4992 32.6083 24.622C33.7956 24.8268 35.0253 24.7449 36.2126 24.5401C36.3823 24.4992 36.5095 24.4992 36.6791 24.4582L37.1031 24.3354C37.3999 24.2535 37.6968 24.1716 37.9512 24.0487C38.248 23.9259 38.5448 23.844 38.7993 23.6802C39.0537 23.5164 39.3505 23.3935 39.6473 23.2707C39.4777 25.0725 38.3328 26.4238 36.8911 27.2428C35.4494 28.0618 33.7108 28.3485 32.0995 28.1437C30.4881 27.939 28.9616 27.2019 27.7743 26.0962C27.223 25.5229 26.7142 24.8677 26.4174 24.0897C26.3325 23.8849 26.2901 23.6802 26.2053 23.5164C26.1629 23.3116 26.1205 23.1069 26.0781 22.8612C26.0781 22.4517 26.1205 22.0012 26.2053 21.5508Z" fill="white"/>
        <path d="M31.506 16.0633C31.1243 15.0395 30.0642 14.63 29.1313 15.1624C27.5624 16.0223 28.0288 19.3802 30.149 18.8479C31.2091 18.5203 31.8452 17.0461 31.506 16.0633Z" fill="#009C92"/>
        <path d="M35.1104 17.4556C35.3648 17.128 35.6616 16.9232 36.0009 16.7594C36.3401 16.5956 36.7217 16.5547 37.1034 16.5547C37.485 16.5547 37.8242 16.6366 38.1635 16.7594C38.3331 16.8413 38.4603 16.9232 38.6299 17.0051C38.7571 17.087 38.8843 17.2099 39.0115 17.2918C39.2659 17.4965 39.3084 17.906 39.0539 18.1517C38.8843 18.3155 38.6299 18.3974 38.4179 18.3155H38.3331C38.0786 18.2336 37.8666 18.1927 37.6546 18.1108C37.4426 18.0698 37.2306 18.0289 37.061 18.0289C36.8913 18.0289 36.6793 18.0698 36.5097 18.0698C36.3401 18.1108 36.1281 18.1927 36.0009 18.2336L35.704 18.3155C35.4072 18.3974 35.068 18.1927 35.0256 17.906C34.9408 17.7832 34.9832 17.5784 35.1104 17.4556Z" fill="#009C92"/>
        <path d="M31.506 15.449C31.1243 14.4253 30.0642 14.0158 29.1313 14.5481C27.5624 15.4081 28.0288 18.766 30.149 18.2336C31.2091 17.906 31.8452 16.4728 31.506 15.449Z" fill="white"/>
        <path d="M35.1104 16.8823C35.3648 16.5547 35.6616 16.35 36.0009 16.1862C36.3401 16.0224 36.7217 15.9814 37.1034 15.9814C37.485 15.9814 37.8242 16.0633 38.1635 16.1862C38.3331 16.2681 38.4603 16.35 38.6299 16.4319C38.7571 16.5138 38.8843 16.6366 39.0115 16.7185C39.2659 16.9233 39.3084 17.3328 39.0539 17.5785C38.8843 17.7423 38.6299 17.8242 38.4179 17.7423H38.3331C38.0786 17.6604 37.8666 17.6194 37.6546 17.5375C37.4426 17.4966 37.2306 17.4556 37.061 17.4556C36.8913 17.4556 36.6793 17.4966 36.5097 17.4966C36.3401 17.5375 36.1281 17.6194 36.0009 17.6604L35.704 17.7423C35.4072 17.8242 35.068 17.6194 35.0256 17.3328C34.9408 17.169 34.9832 17.0052 35.1104 16.8823Z" fill="white"/>
        <path d="M60.722 14.3431C60.298 14.0565 59.8739 14.3431 59.5347 14.6707C59.4923 14.7117 59.4499 14.6707 59.4923 14.6298C60.934 12.7051 59.7891 11.3947 58.305 13.2784C58.2626 13.3194 58.1778 13.2784 58.2202 13.2375C58.517 12.3366 58.5594 10.9852 57.4569 11.3128C56.4816 11.5995 56.5664 13.4832 55.7608 13.8517C53.4285 9.83862 53.8526 17.3734 54.9127 18.2743C56.4392 19.6257 60.4252 16.5954 61.0188 15.0802C61.0612 14.7936 60.9764 14.5069 60.722 14.3431Z" fill="#00A79D"/>
        <path d="M63.5216 35.5146C63.6064 35.6375 63.7337 35.8422 63.8185 36.0879C63.9033 36.3336 63.9457 36.5793 63.9457 36.825C63.9457 37.3164 63.8185 37.685 63.564 37.8897C63.3096 38.0945 63.0128 38.2174 62.5888 38.2174H57.9667V40.3877H62.7584C62.8856 40.5106 62.9704 40.7153 63.0552 40.961C63.14 41.2067 63.1824 41.4524 63.1824 41.6981C63.1824 42.1895 63.0552 42.5581 62.8008 42.7628C62.5464 42.9676 62.2495 43.0904 61.8255 43.0904H57.9667V47.1854C57.7971 47.2264 57.5427 47.2673 57.2035 47.3083C56.8642 47.3492 56.525 47.3492 56.1858 47.3492C55.8465 47.3492 55.5497 47.3083 55.2953 47.2673C55.0409 47.2264 54.8289 47.1445 54.6592 47.0216C54.4896 46.8988 54.3624 46.735 54.2776 46.5302C54.1928 46.3255 54.1504 46.0388 54.1504 45.7112V37.3165C54.1504 36.7432 54.32 36.3336 54.7016 36.006C55.0833 35.6784 55.5497 35.5146 56.1858 35.5146H63.5216Z" fill="#00A79D"/>
        <path d="M63.9881 37.9724C64.1153 37.9314 64.3698 37.8905 64.6666 37.8495C64.9634 37.8086 65.3026 37.8086 65.6419 37.8086C65.9811 37.8086 66.2779 37.8086 66.5324 37.8495C66.7868 37.8905 66.9988 37.9724 67.1684 38.0952C67.338 38.2181 67.4652 38.3819 67.5925 38.5866C67.6773 38.7914 67.7197 39.0371 67.7197 39.3647V43.5416C67.7197 44.074 67.8469 44.4425 68.1437 44.6882C68.4405 44.9339 68.8646 45.0158 69.4158 45.0158C69.755 45.0158 70.0519 44.9749 70.2639 44.9339C70.4759 44.893 70.6455 44.8111 70.7727 44.7701V37.9724C70.8999 37.9314 71.1544 37.8905 71.4512 37.8495C71.748 37.8086 72.0873 37.8086 72.4265 37.8086C72.7657 37.8086 73.0625 37.8086 73.317 37.8495C73.5714 37.8905 73.7834 37.9724 73.953 38.0952C74.1226 38.2181 74.2499 38.3819 74.3771 38.5866C74.4619 38.7914 74.5043 39.0371 74.5043 39.3647V45.2615C74.5043 45.9167 74.2074 46.4081 73.5714 46.6948C73.0625 46.9814 72.4265 47.1862 71.7056 47.35C70.9848 47.5138 70.2215 47.5547 69.3734 47.5547C68.5677 47.5547 67.8469 47.4728 67.1684 47.309C66.49 47.1452 65.9387 46.8995 65.4299 46.6129C64.9634 46.2853 64.5818 45.8758 64.285 45.3844C64.0305 44.893 63.9033 44.2787 63.9033 43.5416V37.9724H63.9881Z" fill="#00A79D"/>
        <path d="M82.561 41.2889C82.561 40.8794 82.4338 40.5927 82.1793 40.388C81.9249 40.1832 81.5857 40.1013 81.1193 40.1013C80.8224 40.1013 80.5256 40.1423 80.2288 40.1832C79.9319 40.2651 79.6775 40.347 79.5079 40.4699V47.2266C79.3807 47.2676 79.1263 47.3085 78.8294 47.3495C78.5326 47.3904 78.1934 47.3904 77.8542 47.3904C77.5149 47.3904 77.2181 47.3904 76.9637 47.3495C76.7093 47.3085 76.4972 47.2266 76.3276 47.1038C76.158 46.9809 76.0308 46.8171 75.9036 46.6124C75.8188 46.4076 75.7764 46.1619 75.7764 45.8343V40.0194C75.7764 39.6509 75.8612 39.4052 76.0308 39.1595C76.2004 38.9547 76.4124 38.75 76.7092 38.5452C77.2181 38.2176 77.8542 37.9719 78.6174 37.8081C79.3807 37.6034 80.2288 37.5215 81.1617 37.5215C82.8154 37.5215 84.0875 37.8491 85.0204 38.4633C85.9109 39.1185 86.3773 39.9785 86.3773 41.1251V47.2266C86.2501 47.2676 85.9957 47.3085 85.6989 47.3495C85.402 47.3904 85.0628 47.3904 84.7236 47.3904C84.3843 47.3904 84.0875 47.3904 83.8331 47.3495C83.5787 47.3085 83.3667 47.2266 83.197 47.1038C83.0274 46.9809 82.9002 46.8171 82.773 46.6124C82.6882 46.4076 82.6458 46.1619 82.6458 45.8343V41.2889H82.561Z" fill="#00A79D"/>
        <path d="M100.032 39.9379C100.328 39.815 100.583 39.7741 100.795 39.7331C101.049 39.6922 101.304 39.6513 101.516 39.6513C101.855 39.6513 102.152 39.6922 102.364 39.7741C102.576 39.856 102.745 39.9788 102.873 40.1427C103 40.3064 103.085 40.5112 103.127 40.716C103.169 40.9207 103.212 41.1664 103.212 41.4121C103.212 42.4768 102.915 43.4596 102.321 44.4015L104.017 45.8347C103.975 46.3261 103.805 46.7356 103.424 47.0223C103.085 47.3499 102.661 47.4727 102.152 47.4727C101.558 47.4727 101.007 47.227 100.413 46.7356L99.9891 46.3671C99.4379 46.7356 98.8018 46.9813 98.1233 47.1861C97.4025 47.3908 96.6392 47.4727 95.7911 47.4727C94.9006 47.4727 94.1374 47.3908 93.5013 47.1861C92.8229 46.9813 92.2716 46.6947 91.8052 46.3671C91.3387 45.9985 90.9995 45.589 90.7875 45.1386C90.5331 44.6472 90.4482 44.1558 90.4482 43.5825C90.4482 43.0911 90.533 42.6816 90.7027 42.313C90.8723 41.9445 91.0843 41.6169 91.3387 41.3302C91.5931 41.0436 91.89 40.7979 92.2292 40.5931C92.5684 40.3884 92.8653 40.2246 93.2045 40.1017C92.9077 39.7741 92.6956 39.4465 92.5684 39.1189C92.4412 38.7503 92.3988 38.4228 92.3988 38.1361C92.3988 37.7266 92.4836 37.358 92.6956 37.0304C92.9077 36.6619 93.1621 36.3752 93.5013 36.1295C93.8405 35.8838 94.2646 35.6791 94.7734 35.5153C95.2823 35.3924 95.8759 35.3105 96.512 35.3105C97.4449 35.3105 98.0809 35.4743 98.4626 35.761C98.8442 36.0476 99.0562 36.4162 99.0562 36.8666C99.0562 37.0714 99.0138 37.3171 98.929 37.5218C98.8442 37.7266 98.6746 37.9313 98.505 38.0951C98.3354 38.0132 98.1657 37.9723 97.9537 37.9314C97.7417 37.8904 97.5297 37.8904 97.2753 37.8904C96.8936 37.8904 96.5544 37.9313 96.3424 38.0542C96.0879 38.177 95.9607 38.3408 95.9607 38.6275C95.9607 38.8322 96.0455 39.037 96.2576 39.2008C96.4696 39.4056 96.6816 39.6103 96.9784 39.856L99.8195 42.2721C99.9043 41.9854 99.9467 41.6578 99.9891 41.2483C99.9891 40.8798 100.032 40.4293 100.032 39.9379ZM94.0102 43.4596C94.0102 43.9101 94.1798 44.2786 94.519 44.6062C94.8582 44.9338 95.3671 45.0567 96.0455 45.0567C96.3424 45.0567 96.6392 45.0157 96.9784 44.9338C97.3177 44.8519 97.6145 44.7291 97.9113 44.5653L95.0703 42.0673C94.731 42.1902 94.4342 42.3949 94.2646 42.6406C94.1374 42.8863 94.0102 43.173 94.0102 43.4596Z" fill="#00A79D"/>
        <path d="M112.032 42.5585C111.396 42.3538 110.802 42.149 110.251 41.9852C109.699 41.7805 109.275 41.5348 108.894 41.2481C108.512 40.9615 108.215 40.6339 108.003 40.2244C107.791 39.8149 107.664 39.3644 107.664 38.7911C107.664 37.6855 108.131 36.8255 109.106 36.1703C110.081 35.5151 111.438 35.1875 113.177 35.1875C113.813 35.1875 114.406 35.2285 114.958 35.3104C115.509 35.3923 115.975 35.5151 116.357 35.6789C116.738 35.8427 117.035 36.0475 117.29 36.2932C117.502 36.5389 117.629 36.8255 117.629 37.1941C117.629 37.5217 117.544 37.8083 117.375 38.054C117.205 38.2997 116.993 38.5045 116.738 38.6683C116.399 38.5045 115.975 38.3407 115.424 38.1769C114.873 38.054 114.279 37.9721 113.643 37.9721C112.965 37.9721 112.498 38.054 112.201 38.2178C111.904 38.3816 111.735 38.5864 111.735 38.8321C111.735 39.0368 111.82 39.2006 112.032 39.3235C112.244 39.4463 112.498 39.5692 112.88 39.6511L114.067 39.9787C115.466 40.3472 116.526 40.8796 117.247 41.4529C118.011 42.0671 118.35 42.8861 118.35 43.9099C118.35 45.0155 117.841 45.8755 116.866 46.5716C115.89 47.2678 114.449 47.5954 112.498 47.5954C111.82 47.5954 111.184 47.5544 110.59 47.4316C109.996 47.3497 109.487 47.1859 109.063 47.0221C108.639 46.8173 108.3 46.6126 108.046 46.3259C107.791 46.0393 107.664 45.7117 107.664 45.3841C107.664 45.0155 107.791 44.6879 108.046 44.4422C108.3 44.1965 108.555 43.9918 108.851 43.828C109.275 44.1146 109.784 44.3603 110.378 44.5651C110.972 44.7698 111.608 44.8927 112.328 44.8927C113.049 44.8927 113.558 44.8108 113.855 44.606C114.152 44.4013 114.279 44.1965 114.279 43.9099C114.279 43.6642 114.152 43.4594 113.94 43.3366C113.685 43.2137 113.389 43.0499 112.965 42.9271L112.032 42.5585Z" fill="#00A79D"/>
        <path d="M123.651 37.5215C124.456 37.5215 125.177 37.6034 125.813 37.7262C126.449 37.8491 127.043 38.0948 127.509 38.3814C127.976 38.6681 128.315 39.0366 128.57 39.4871C128.824 39.9375 128.951 40.4699 128.951 41.0841V45.4248C128.951 45.7524 128.824 46.0391 128.612 46.2438C128.4 46.4486 128.146 46.6533 127.849 46.7762C126.873 47.2676 125.559 47.5133 123.82 47.5133C123.057 47.5133 122.336 47.4314 121.7 47.3085C121.064 47.1857 120.555 46.9809 120.089 46.7352C119.622 46.4895 119.283 46.1619 119.071 45.7524C118.817 45.3429 118.689 44.8925 118.689 44.3601C118.689 43.4592 118.986 42.804 119.58 42.3126C120.174 41.8212 121.106 41.5346 122.379 41.4117L125.262 41.1251V41.0022C125.262 40.6337 125.092 40.347 124.711 40.1832C124.329 40.0194 123.778 39.9375 123.099 39.9375C122.548 39.9375 121.997 39.9785 121.446 40.1013C120.894 40.2242 120.428 40.347 120.004 40.4699C119.792 40.347 119.665 40.1832 119.538 39.9375C119.41 39.6918 119.326 39.4461 119.326 39.2004C119.326 38.8728 119.41 38.5862 119.622 38.3814C119.792 38.1767 120.089 38.0129 120.47 37.8491C120.894 37.7262 121.403 37.6034 121.997 37.5215C122.548 37.5624 123.099 37.5215 123.651 37.5215ZM123.82 45.1382C124.075 45.1382 124.329 45.0972 124.668 45.0563C124.965 45.0153 125.177 44.9334 125.347 44.8925V43.3364L123.736 43.4592C123.311 43.5002 122.972 43.5821 122.718 43.7049C122.463 43.8278 122.336 44.0325 122.336 44.2782C122.336 44.5239 122.463 44.7287 122.675 44.8925C122.887 45.0563 123.269 45.1382 123.82 45.1382Z" fill="#00A79D"/>
        <path d="M137.05 46.9811C136.838 47.104 136.541 47.2268 136.16 47.3497C135.778 47.4316 135.312 47.4725 134.803 47.4725C134.209 47.4725 133.743 47.3906 133.319 47.2678C132.895 47.1449 132.598 46.9402 132.428 46.6535C132.301 46.4488 132.131 46.1212 131.962 45.7526C131.792 45.3431 131.58 44.9336 131.368 44.4422C131.156 43.9508 130.944 43.4594 130.732 42.8861C130.52 42.3128 130.308 41.7805 130.096 41.2481C129.884 40.7158 129.714 40.1834 129.545 39.692C129.375 39.2006 129.248 38.7502 129.163 38.3407C129.375 38.1769 129.63 38.0131 130.011 37.8493C130.35 37.7264 130.732 37.6445 131.156 37.6445C131.665 37.6445 132.089 37.7264 132.428 37.9312C132.767 38.1359 133.022 38.4635 133.149 38.9959L133.997 41.9443C134.167 42.5176 134.294 43.0499 134.464 43.5413C134.591 44.0327 134.718 44.3603 134.803 44.647H134.93C135.227 43.7051 135.524 42.6404 135.82 41.4529C136.117 40.3063 136.414 39.1597 136.669 38.0131C136.923 37.8902 137.22 37.8083 137.517 37.7264C137.813 37.6445 138.153 37.6445 138.45 37.6445C138.958 37.6445 139.382 37.7264 139.764 37.9312C140.103 38.1359 140.315 38.4635 140.315 38.9549C140.315 39.1597 140.273 39.4463 140.146 39.8558C140.018 40.2653 139.891 40.6748 139.722 41.2072C139.552 41.6986 139.34 42.2309 139.128 42.8042C138.916 43.3775 138.662 43.9099 138.45 44.4422C138.195 44.9746 137.983 45.466 137.771 45.9164C137.432 46.3259 137.22 46.6945 137.05 46.9811Z" fill="#00A79D"/>
        <path d="M146.379 47.5543C145.489 47.5543 144.683 47.4315 143.962 47.2267C143.199 47.022 142.563 46.6944 142.011 46.2849C141.46 45.8754 141.036 45.343 140.697 44.6878C140.4 44.0326 140.23 43.2955 140.23 42.4356C140.23 41.5756 140.4 40.8385 140.697 40.2243C140.994 39.61 141.418 39.1186 141.927 38.7091C142.435 38.2996 143.029 38.0129 143.708 37.8491C144.386 37.6444 145.065 37.5625 145.743 37.5625C146.506 37.5625 147.227 37.6853 147.863 37.8901C148.499 38.0948 149.05 38.3815 149.517 38.7501C149.983 39.1186 150.323 39.5281 150.619 40.0605C150.874 40.5519 151.001 41.1252 151.001 41.6985C151.001 42.1489 150.874 42.4765 150.577 42.7222C150.28 42.9679 149.899 43.0908 149.39 43.1727L143.92 43.8688C144.089 44.2783 144.428 44.6059 144.895 44.8107C145.404 45.0154 145.955 45.1383 146.633 45.1383C147.227 45.1383 147.821 45.0564 148.33 44.9335C148.881 44.8107 149.305 44.6469 149.644 44.4421C149.899 44.565 150.068 44.7697 150.238 44.9745C150.407 45.1792 150.492 45.4659 150.492 45.7116C150.492 46.2849 150.195 46.7353 149.559 47.022C149.093 47.2267 148.542 47.3905 147.948 47.4724C147.439 47.5134 146.888 47.5543 146.379 47.5543ZM145.743 39.9376C145.404 39.9376 145.064 39.9786 144.81 40.1014C144.556 40.2243 144.344 40.3471 144.174 40.5109C144.004 40.6747 143.877 40.8385 143.792 41.0433C143.708 41.248 143.665 41.4528 143.665 41.6575L147.439 41.1252C147.397 40.8795 147.227 40.5928 146.973 40.3471C146.718 40.0605 146.294 39.9376 145.743 39.9376Z" fill="#00A79D"/>
        <path d="M72.2137 22.9421C72.1289 22.8192 72.0441 22.6145 71.9592 22.4097C71.8744 22.164 71.832 21.9183 71.832 21.6726C71.832 21.1812 71.9592 20.8536 72.1713 20.6489C72.3833 20.4441 72.6801 20.3213 73.0193 20.3213H81.2457C81.3305 20.4441 81.4153 20.6489 81.5001 20.8536C81.5849 21.0993 81.6273 21.345 81.6273 21.5907C81.6273 22.0821 81.5001 22.4097 81.2881 22.6145C81.0761 22.8192 80.7792 22.9421 80.44 22.9421H78.3622V31.3368C78.235 31.3778 78.023 31.4188 77.7262 31.4597C77.4293 31.5007 77.1325 31.5007 76.8357 31.5007C76.5389 31.5007 76.2844 31.4597 76.0724 31.4188C75.8604 31.3778 75.6484 31.2959 75.5212 31.1731C75.3516 31.0502 75.2667 30.9273 75.1819 30.7226C75.0971 30.5178 75.0547 30.2722 75.0547 29.9446V22.9421H72.2137Z" fill="#ED1C24"/>
        <path d="M82.0088 22.738C82.136 22.697 82.348 22.6561 82.6024 22.6151C82.8569 22.5742 83.1537 22.5742 83.4505 22.5742C83.7473 22.5742 83.9594 22.5742 84.2138 22.6151C84.4258 22.6561 84.6378 22.738 84.765 22.8199C84.9347 22.9427 85.0195 23.0656 85.1043 23.2703C85.1891 23.4751 85.2315 23.7208 85.2315 24.0074V27.9386C85.2315 28.43 85.3587 28.7986 85.6131 29.0033C85.8675 29.2081 86.2492 29.3309 86.7156 29.3309C87.0124 29.3309 87.2245 29.29 87.4365 29.249C87.6061 29.2081 87.7757 29.1671 87.8605 29.0852V22.738C87.9877 22.697 88.1998 22.6561 88.4542 22.6151C88.7086 22.5742 89.0054 22.5742 89.3023 22.5742C89.5991 22.5742 89.8111 22.5742 90.0655 22.6151C90.2775 22.6561 90.4896 22.738 90.6168 22.8199C90.7864 22.9427 90.8712 23.0656 90.956 23.2703C91.0408 23.4751 91.0832 23.7208 91.0832 24.0074V29.5357C91.0832 30.1499 90.8288 30.6004 90.2775 30.887C89.8535 31.1737 89.3022 31.3375 88.7086 31.5013C88.1149 31.6241 87.4365 31.706 86.7156 31.706C86.0372 31.706 85.4011 31.6241 84.8498 31.5013C84.2986 31.3375 83.7898 31.1327 83.3657 30.8461C82.9417 30.5594 82.6449 30.1499 82.3904 29.6585C82.1784 29.1671 82.0512 28.5938 82.0512 27.9386V22.738H82.0088ZM82.6873 19.8305C82.6873 19.421 82.8569 19.0525 83.1537 18.7249C83.4505 18.3973 83.8746 18.2744 84.341 18.2744C84.8498 18.2744 85.2739 18.4382 85.5707 18.7249C85.8675 19.0525 86.0372 19.421 86.0372 19.8305C86.0372 20.24 85.8675 20.6086 85.5707 20.9362C85.2739 21.2638 84.8498 21.3866 84.341 21.3866C84.129 21.3866 83.917 21.3457 83.7049 21.2638C83.4929 21.1819 83.3233 21.059 83.1961 20.9362C83.0265 20.8133 82.9417 20.6495 82.8569 20.4448C82.7297 20.281 82.6873 20.0762 82.6873 19.8305ZM86.9276 19.8305C86.9276 19.421 87.0548 19.0525 87.3517 18.7249C87.6485 18.3973 88.0725 18.2744 88.5814 18.2744C88.8358 18.2744 89.0478 18.3154 89.2598 18.3973C89.4719 18.4792 89.6415 18.602 89.7687 18.7249C89.9383 18.8887 90.0231 19.0525 90.1079 19.2163C90.1927 19.421 90.2351 19.5848 90.2351 19.7896C90.2351 20.1991 90.0655 20.5676 89.7687 20.8952C89.4719 21.2228 89.0478 21.3457 88.5814 21.3457C88.0725 21.3457 87.6485 21.1819 87.3517 20.8952C87.0972 20.6495 86.9276 20.281 86.9276 19.8305Z" fill="#ED1C24"/>
        <path d="M95.7481 31.419C95.6209 31.46 95.4088 31.5009 95.1544 31.5419C94.9 31.5828 94.6032 31.5828 94.3063 31.5828C94.0095 31.5828 93.7975 31.5828 93.5431 31.5419C93.3311 31.5009 93.119 31.419 92.9918 31.3371C92.8222 31.2143 92.7374 31.0914 92.6526 30.8867C92.5678 30.6819 92.5254 30.4362 92.5254 30.1496V24.6623C92.5254 24.3756 92.5678 24.1299 92.695 23.9252C92.8222 23.7204 92.9494 23.5566 93.1614 23.3928C93.3735 23.229 93.6279 23.1062 93.9247 22.9833C94.2215 22.8605 94.5184 22.7376 94.8576 22.6557C95.1968 22.5738 95.5361 22.4919 95.9177 22.41C96.2993 22.3691 96.6386 22.3281 97.0202 22.3281C97.6139 22.3281 98.0803 22.451 98.4619 22.6557C98.8012 22.8605 98.9708 23.229 98.9708 23.7614C98.9708 23.9252 98.9284 24.089 98.886 24.2528C98.8436 24.4166 98.7588 24.5804 98.7164 24.7032C98.4619 24.7032 98.1651 24.7032 97.9107 24.7442C97.6138 24.7851 97.3594 24.7851 97.105 24.867C96.8506 24.908 96.5962 24.9489 96.3417 25.0308C96.1297 25.0718 95.9177 25.1537 95.7481 25.2356V31.419Z" fill="#ED1C24"/>
        <path d="M108.766 29.8221C108.723 30.3954 108.511 30.8459 108.257 31.1325C107.96 31.4192 107.578 31.583 107.027 31.583C106.646 31.583 106.264 31.5011 105.967 31.2963C105.67 31.0916 105.331 30.8049 104.949 30.3545L103.084 28.1022V31.4192C102.956 31.4601 102.744 31.4601 102.49 31.5011C102.236 31.542 101.939 31.583 101.684 31.583C101.387 31.583 101.175 31.583 100.921 31.542C100.709 31.5011 100.497 31.4192 100.37 31.3373C100.2 31.2144 100.115 31.0916 100.031 30.8868C99.9457 30.6821 99.9033 30.4364 99.9033 30.1497V19.5846C100.031 19.5437 100.243 19.5027 100.497 19.4618C100.751 19.4208 101.048 19.3799 101.303 19.3799C101.599 19.3799 101.811 19.3799 102.066 19.4208C102.278 19.4618 102.49 19.5437 102.617 19.6256C102.787 19.7484 102.872 19.8713 102.956 20.076C103.041 20.2808 103.084 20.5265 103.084 20.8131V25.6043L106.306 22.4102C106.942 22.4102 107.494 22.533 107.875 22.8197C108.257 23.1063 108.469 23.4339 108.469 23.8844C108.469 24.0482 108.426 24.2529 108.384 24.3758C108.342 24.5396 108.214 24.6624 108.087 24.8262C107.96 24.99 107.79 25.1538 107.578 25.3176C107.366 25.4814 107.112 25.6862 106.858 25.9319L105.755 26.8328L108.766 29.8221Z" fill="#ED1C24"/>
        <path d="M109.698 20.1175C109.698 19.667 109.868 19.2575 110.165 18.9709C110.504 18.6433 110.928 18.4795 111.437 18.4795C111.946 18.4795 112.37 18.6433 112.709 18.9709C113.048 19.2985 113.175 19.667 113.175 20.1175C113.175 20.5679 113.006 20.9774 112.709 21.2641C112.37 21.5917 111.946 21.7555 111.437 21.7555C110.928 21.7555 110.504 21.5917 110.165 21.2641C109.868 20.9774 109.698 20.6089 109.698 20.1175ZM113.091 31.4197C112.963 31.4607 112.751 31.4607 112.497 31.5016C112.242 31.5426 111.946 31.5835 111.691 31.5835C111.394 31.5835 111.182 31.5835 110.928 31.5426C110.716 31.5016 110.504 31.4197 110.377 31.3378C110.207 31.215 110.122 31.0921 110.037 30.8874C109.953 30.6826 109.91 30.4369 109.91 30.1503V22.7383C110.037 22.6973 110.249 22.6973 110.504 22.6564C110.758 22.6154 111.055 22.5745 111.31 22.5745C111.606 22.5745 111.818 22.5745 112.073 22.6154C112.285 22.6564 112.497 22.7383 112.624 22.8202C112.794 22.943 112.879 23.0659 112.963 23.2706C113.048 23.4754 113.091 23.7211 113.091 24.0077V31.4197Z" fill="#ED1C24"/>
        <path d="M116.059 29.1677C115.932 28.881 115.762 28.5125 115.635 28.1439C115.465 27.7754 115.296 27.3249 115.126 26.8335C114.956 26.3421 114.787 25.8098 114.617 25.1546C114.447 24.5403 114.235 23.8032 114.023 22.9842C114.193 22.8204 114.447 22.6566 114.744 22.5338C115.041 22.4109 115.38 22.329 115.72 22.329C116.144 22.329 116.525 22.4109 116.822 22.5747C117.119 22.7385 117.331 23.0661 117.458 23.5575L118.942 28.5534H119.027C119.197 28.1439 119.324 27.6935 119.451 27.2021C119.578 26.7107 119.748 26.2193 119.875 25.6869C120.002 25.1546 120.13 24.6632 120.257 24.1308C120.384 23.5985 120.469 23.1071 120.554 22.6157C121.02 22.37 121.487 22.2881 122.038 22.2881C122.462 22.2881 122.843 22.37 123.14 22.5747C123.437 22.7385 123.564 23.0661 123.564 23.5166C123.564 23.8442 123.522 24.2127 123.437 24.6632C123.352 25.1136 123.225 25.5641 123.098 26.0555C122.971 26.5469 122.801 27.0383 122.589 27.5706C122.377 28.103 122.207 28.5944 121.995 29.0858C121.783 29.5772 121.571 30.0686 121.317 30.4781C121.105 30.9285 120.85 31.338 120.638 31.6656C120.299 32.2799 119.96 32.7303 119.663 33.1398C119.366 33.5084 119.069 33.795 118.815 34.0407C118.518 34.2455 118.264 34.4093 117.967 34.4912C117.67 34.5731 117.416 34.614 117.119 34.614C116.61 34.614 116.144 34.4502 115.847 34.1636C115.508 33.8769 115.338 33.4674 115.253 32.976C115.635 32.6894 116.059 32.3208 116.44 31.9523C116.822 31.5837 117.204 31.2152 117.543 30.8057C117.331 30.7647 117.119 30.6009 116.864 30.3962C116.61 30.2324 116.356 29.8229 116.059 29.1677Z" fill="#ED1C24"/>
        <path d="M129.289 31.7477C128.568 31.7477 127.848 31.6658 127.212 31.461C126.575 31.2563 126.024 30.9696 125.558 30.5601C125.091 30.1506 124.71 29.6592 124.455 29.045C124.201 28.4307 124.031 27.7346 124.031 26.9156C124.031 26.0966 124.158 25.4414 124.455 24.8681C124.71 24.2948 125.091 23.8034 125.515 23.4348C125.939 23.0663 126.448 22.7796 127.042 22.6158C127.593 22.452 128.187 22.3701 128.78 22.3701C129.459 22.3701 130.053 22.452 130.604 22.6568C131.155 22.8615 131.622 23.1072 132.003 23.4758C132.385 23.8034 132.724 24.2129 132.936 24.7043C133.148 25.1957 133.275 25.6871 133.275 26.2604C133.275 26.6699 133.148 26.9975 132.936 27.2022C132.682 27.407 132.385 27.5708 131.918 27.6117L127.254 28.2669C127.381 28.6764 127.678 28.9631 128.102 29.1678C128.526 29.3726 129.035 29.4545 129.586 29.4545C130.095 29.4545 130.604 29.3726 131.028 29.2497C131.494 29.1269 131.876 28.9631 132.13 28.7993C132.342 28.9221 132.512 29.0859 132.639 29.2907C132.766 29.4954 132.851 29.7411 132.851 29.9868C132.851 30.5192 132.597 30.9287 132.046 31.2153C131.664 31.4201 131.198 31.5429 130.689 31.6248C130.222 31.7067 129.756 31.7477 129.289 31.7477ZM128.78 24.5814C128.484 24.5814 128.229 24.6224 128.017 24.7452C127.805 24.8271 127.636 24.95 127.466 25.1138C127.339 25.2776 127.212 25.4414 127.169 25.6052C127.084 25.8099 127.042 25.9737 127.042 26.1785L130.265 25.6871C130.222 25.4414 130.095 25.1957 129.841 24.95C129.586 24.7043 129.247 24.5814 128.78 24.5814Z" fill="#ED1C24"/>
    </g>
    <defs>
        <clipPath id="clip0_194_4449">
            <rect width="151" height="50" fill="white"/>
        </clipPath>
    </defs>
</svg>
