<svg width="76" height="25" viewBox="0 0 76 25" fill="none" xmlns="http://www.w3.org/2000/svg">
    <path d="M27.7797 5.77416C26.9061 7.69881 25.287 9.27539 23.6891 9.80774C23.7743 6.08128 20.8342 2.90766 16.9141 2.66195C12.93 2.41625 9.58511 5.32371 9.22293 9.15254C9.1164 10.2991 9.41467 11.6914 9.9473 13.1247C10.0325 13.3704 9.98991 13.6366 9.81947 13.8208C9.24423 14.4965 8.54116 15.0084 7.8594 15.5407C7.30547 15.9707 6.64501 15.766 6.21891 15.7455C6.41066 16.1345 6.28283 16.7692 6.00586 17.1992C6.28283 17.6906 6.41066 18.3253 6.90067 18.6734C7.79549 17.752 9.32945 17.2606 10.0538 17.0764C10.5438 16.933 11.673 16.8921 12.0565 17.5882C13.3135 19.861 14.6557 21.7856 15.2523 22.6251C15.4014 22.8503 15.7423 22.8708 15.934 22.666C16.978 21.5194 20.0672 18.0182 22.0273 14.6194C22.3043 14.128 22.7304 13.7389 23.2417 13.5137C27.0127 11.9371 28.5466 8.90684 29.271 6.47031C28.8236 6.40888 27.7797 5.77416 27.7797 5.77416ZM17.681 6.94123C17.8089 6.77743 17.958 6.67506 18.1285 6.59316C18.2989 6.51126 18.4906 6.49078 18.6824 6.49078C18.8741 6.49078 19.0446 6.53173 19.215 6.59316C19.3002 6.63411 19.3641 6.67506 19.4494 6.71601C19.5133 6.75696 19.5772 6.81838 19.6411 6.85933C19.7689 6.96171 19.7903 7.16646 19.6624 7.28931C19.5772 7.37121 19.4494 7.41216 19.3428 7.37121H19.3002C19.1724 7.33026 19.0659 7.30978 18.9594 7.26883C18.8528 7.24836 18.7463 7.22788 18.6611 7.22788C18.5759 7.22788 18.4693 7.24836 18.3841 7.24836C18.2989 7.26883 18.1924 7.30978 18.1285 7.33026L17.9793 7.37121C17.8302 7.41216 17.6597 7.30978 17.6384 7.16646C17.5958 7.08456 17.6171 7.00266 17.681 6.94123ZM14.6557 5.77416C15.1457 5.50798 15.6784 5.71273 15.8488 6.22461C16.0192 6.71601 15.6997 7.45311 15.1457 7.59643C14.1231 7.88308 13.8674 6.20413 14.6557 5.77416ZM18.5972 12.1419C17.8728 12.5514 16.9993 12.6947 16.1897 12.5923C15.3801 12.49 14.6131 12.1214 14.0166 11.5686C13.7396 11.2819 13.4839 10.9543 13.3348 10.5653C13.2922 10.4629 13.2709 10.3606 13.2283 10.2787C13.207 10.1763 13.1857 10.0739 13.1644 9.95106C13.1431 9.74631 13.1431 9.50061 13.207 9.29586C13.42 9.52109 13.6331 9.72584 13.8887 9.88964C14.1231 10.0739 14.4001 10.2172 14.677 10.3401C15.231 10.5858 15.8062 10.7701 16.424 10.8315C17.0206 10.9339 17.6384 10.8929 18.235 10.7905C18.3202 10.7701 18.3841 10.7701 18.4693 10.7496L18.6824 10.6882C18.8315 10.6472 18.9807 10.6063 19.1085 10.5448C19.2576 10.4834 19.4068 10.4425 19.5346 10.3606C19.6624 10.2787 19.8116 10.2172 19.9607 10.1558C19.8755 11.0362 19.3215 11.7119 18.5972 12.1419Z" fill="white"/>
    <path d="M15.9141 25.0001C18.9852 25.0001 21.4748 24.7342 21.4748 24.4063C21.4748 24.0783 18.9852 23.8125 15.9141 23.8125C12.8431 23.8125 10.3535 24.0783 10.3535 24.4063C10.3535 24.7342 12.8431 25.0001 15.9141 25.0001Z" fill="white"/>
    <path d="M1.23418 2.90868L8.54182 20.4148C8.58443 20.4967 8.54182 20.5786 8.4566 20.6196L7.98789 20.8038C7.90267 20.8448 7.81745 20.8038 7.77484 20.7219L0.0623979 3.35913C-0.00151735 3.2158 0.0623979 3.052 0.232839 2.99058L0.871991 2.74488C0.999822 2.70393 1.17026 2.76535 1.23418 2.90868Z" fill="white"/>
    <path d="M9.71456 8.79175e-05C5.77312 -0.0203871 4.70786 3.54227 0.745117 3.54227C1.85298 6.10164 2.38561 7.3711 3.49347 9.93047C5.73051 9.93047 7.09403 8.88625 8.45756 7.82155C8.58539 7.71917 8.71322 7.6168 8.84105 7.51442C9.16063 6.20402 9.79978 4.93457 10.7798 3.89034C10.9076 3.74702 11.0568 3.62417 11.1846 3.48084C10.6733 2.27282 10.0341 0.737189 9.71456 8.79175e-05ZM7.45622 6.18354C7.24317 6.44972 6.9662 6.67494 6.62532 6.81827C6.28444 6.94112 5.92225 6.98207 5.56007 6.94112C4.83569 6.83875 4.19654 6.34734 3.96219 5.67167C3.72783 4.99599 3.89827 4.21794 4.38829 3.72654C4.62264 3.48084 4.94222 3.27609 5.2831 3.19419C5.62398 3.11229 5.98617 3.11229 6.32705 3.19419C6.36966 3.19419 6.39097 3.23514 6.36966 3.27609C6.36966 3.29657 6.34836 3.31704 6.32705 3.31704L6.28444 3.33752C4.66525 4.21794 5.43224 6.38829 7.28578 6.10164H7.3497C7.39231 6.10164 7.41361 6.12212 7.43492 6.16307C7.47753 6.14259 7.47753 6.16307 7.45622 6.18354ZM9.20324 4.87314C9.16063 4.93457 9.09671 4.95504 9.01149 4.93457L8.45756 4.79124C8.39364 4.77077 8.35103 4.79124 8.30842 4.85267L7.98885 5.32359C7.96754 5.36454 7.90363 5.38502 7.86102 5.40549C7.83971 5.40549 7.81841 5.40549 7.7971 5.40549C7.73319 5.38502 7.66927 5.32359 7.66927 5.26217L7.64797 4.70934C7.64797 4.64792 7.60536 4.60697 7.56275 4.58649L7.00881 4.44317C6.9449 4.42269 6.88098 4.36127 6.88098 4.29984C6.88098 4.23842 6.92359 4.17699 6.98751 4.13604L7.54144 3.93129C7.58405 3.91082 7.62666 3.86987 7.62666 3.80844L7.60536 3.25562C7.60536 3.19419 7.64797 3.13277 7.71188 3.09182C7.7758 3.07134 7.86102 3.09182 7.90363 3.13277L8.26581 3.56274C8.30842 3.60369 8.35103 3.62417 8.41495 3.60369L8.96888 3.39894C9.0328 3.37847 9.11802 3.39894 9.16063 3.43989C9.20324 3.50132 9.20324 3.56274 9.16063 3.62417L8.81975 4.09509C8.79844 4.13604 8.79844 4.19747 8.81975 4.23842L9.18193 4.66839C9.24585 4.72982 9.24585 4.81172 9.20324 4.87314Z" fill="white"/>
    <path d="M7.24249 18.1816C7.19988 18.0178 6.96553 17.895 6.81639 17.9564C6.81639 17.9564 6.81639 17.895 6.859 17.8131C6.92292 17.6083 6.859 17.4036 6.64595 17.3012C6.58203 17.2602 6.39029 17.2807 6.39029 17.2807C6.39029 17.2807 6.64595 16.9941 6.58203 16.7688C6.56073 16.6665 6.4329 16.5436 6.32637 16.4822C6.19854 16.4208 6.0281 16.4003 5.87897 16.4208C5.68722 16.4412 5.49548 16.5231 5.34634 16.646C5.26112 16.7074 5.1759 16.8098 5.13329 16.9326C5.06937 17.1374 5.15459 17.424 5.34634 17.5469C5.36764 17.5674 5.38895 17.5674 5.41026 17.5674C5.43156 17.5674 5.43156 17.5674 5.45286 17.5878C5.43156 17.6083 5.43156 17.6493 5.41026 17.6902C5.34634 18.0178 5.53809 18.3659 5.87897 18.4273C5.92158 18.4273 5.96419 18.4273 6.0068 18.4273C6.0068 18.4478 6.0068 18.4887 6.0068 18.5092C6.0068 18.5911 6.0281 18.6525 6.04941 18.6935C6.09202 18.8163 6.21985 18.8778 6.32637 18.8982C6.4329 18.9187 6.51812 18.8982 6.62464 18.8778C6.75248 18.8368 6.90161 18.7959 7.00814 18.6935C7.15727 18.5502 7.2851 18.3659 7.24249 18.1816Z" fill="white"/>
    <path d="M6.19876 15.4579C6.09224 15.5193 6.02832 15.6217 6.02832 15.7241C6.02832 15.8674 6.13485 15.9903 6.26268 16.0517C6.51834 16.195 6.71008 16.0722 6.92313 16.5021C7.02966 16.7069 7.71142 15.806 7.51968 15.7446C7.15749 15.6217 6.774 15.4374 6.3692 15.3965C6.30529 15.417 6.24137 15.417 6.19876 15.4579Z" fill="white"/>
    <path d="M26.8432 4.99617C26.8432 4.72999 26.8006 4.48429 26.6941 4.25907C26.6088 4.03384 26.481 3.82909 26.3106 3.66529C26.1401 3.50149 25.9484 3.35817 25.714 3.29674C25.4797 3.21484 25.2453 3.19437 25.0109 3.23532C24.7766 3.27627 24.5422 3.35817 24.3079 3.48102C24.0948 3.62434 23.8818 3.78814 23.7113 4.01337C23.5409 4.23859 23.3918 4.48429 23.3065 4.77094C23.2213 5.0576 23.1787 5.34425 23.1787 5.6309C23.1787 5.89707 23.2426 6.16325 23.3492 6.40895C23.4557 6.63417 23.5835 6.83892 23.7753 7.00272C23.9457 7.16652 24.1587 7.2689 24.3931 7.33032C24.6275 7.39175 24.8831 7.39175 25.1175 7.3508C25.3518 7.30985 25.5862 7.20747 25.7779 7.06415C25.991 6.92082 26.1827 6.73655 26.3319 6.5318C26.481 6.32705 26.6301 6.08135 26.7154 5.7947C26.8006 5.52852 26.8432 5.26235 26.8432 4.99617ZM25.6714 5.34425C25.6288 5.44662 25.5862 5.52852 25.5223 5.61042C25.4584 5.69232 25.3944 5.75375 25.3092 5.7947C25.224 5.83565 25.1601 5.8766 25.0749 5.89707C24.9896 5.91755 24.9044 5.91755 24.8192 5.8766C24.734 5.85612 24.6701 5.81517 24.6062 5.75375C24.5422 5.69232 24.4996 5.6309 24.457 5.549C24.4144 5.4671 24.3931 5.36472 24.3931 5.28282C24.3931 5.18045 24.4144 5.07807 24.4357 4.9757C24.4783 4.87332 24.5209 4.79142 24.5848 4.70952C24.6488 4.62762 24.7127 4.56619 24.7979 4.52524C24.8831 4.48429 24.9683 4.44334 25.0536 4.42287C25.1388 4.40239 25.224 4.42287 25.3092 4.44334C25.3944 4.46382 25.4584 4.52524 25.5223 4.56619C25.5862 4.62762 25.6288 4.68904 25.6714 4.77094C25.714 4.85284 25.714 4.93475 25.714 5.03712C25.7353 5.1395 25.714 5.24187 25.6714 5.34425Z" fill="white"/>
    <path d="M31.0823 11.5684C31.0823 11.3023 31.0397 11.0566 30.9331 10.8313C30.8479 10.6061 30.7201 10.4014 30.5496 10.2376C30.3792 10.0738 30.1875 9.93043 29.9531 9.86901C29.7187 9.78711 29.4631 9.76663 29.2287 9.80758C28.9944 9.84853 28.7387 9.93043 28.5257 10.0533C28.2913 10.1966 28.0996 10.3604 27.9291 10.5856C27.7587 10.8109 27.6095 11.0566 27.5243 11.3637C27.4391 11.6503 27.3965 11.937 27.3965 12.2236C27.3965 12.4898 27.4604 12.756 27.5669 13.0017C27.6735 13.2269 27.8226 13.4317 27.993 13.5955C28.1635 13.7593 28.3765 13.8616 28.6322 13.9231C28.8665 13.9845 29.1222 13.9845 29.3566 13.9435C29.5909 13.9026 29.8253 13.8002 30.0383 13.6569C30.2514 13.5136 30.4431 13.3293 30.5922 13.1245C30.7627 12.9198 30.8905 12.6741 30.9757 12.4079C31.0397 12.1008 31.0823 11.8346 31.0823 11.5684ZM29.8253 12.0394C29.7827 12.1417 29.74 12.2236 29.6974 12.3055C29.6335 12.3874 29.5696 12.4489 29.4844 12.4898C29.3992 12.5308 29.3352 12.5717 29.25 12.5922C29.1648 12.6127 29.0796 12.6127 28.9944 12.5717C28.9091 12.5512 28.8452 12.5103 28.7813 12.4489C28.7174 12.3874 28.6748 12.326 28.6322 12.2441C28.5896 12.1622 28.5683 12.0803 28.5683 11.9779C28.5683 11.8756 28.5896 11.7732 28.6109 11.6913C28.6535 11.5889 28.6961 11.507 28.76 11.4251C28.8239 11.3432 28.8878 11.2818 28.9731 11.2408C29.0583 11.1999 29.1435 11.1589 29.2287 11.1385C29.3139 11.118 29.3992 11.1385 29.4844 11.1589C29.5696 11.1794 29.6335 11.2204 29.6974 11.2818C29.7613 11.3432 29.804 11.4046 29.8466 11.4865C29.8892 11.5684 29.8892 11.6503 29.9105 11.7527C29.8679 11.8551 29.8466 11.937 29.8253 12.0394Z" fill="white"/>
    <path d="M30.5496 5.67205C30.3365 5.52873 30.1235 5.67205 29.953 5.83585C29.9317 5.85633 29.9104 5.83585 29.9317 5.81538C30.6561 4.85305 30.0809 4.19785 29.3352 5.1397C29.3139 5.16018 29.2713 5.1397 29.2926 5.11923C29.4417 4.66878 29.463 3.9931 28.9091 4.1569C28.4191 4.30023 28.4617 5.24208 28.0569 5.42635C26.8851 3.4198 27.0982 7.1872 27.6308 7.63765C28.3978 8.31333 30.4004 6.79818 30.6987 6.0406C30.72 5.89728 30.6774 5.75395 30.5496 5.67205Z" fill="white"/>
    <path d="M31.9555 16.2578C31.9981 16.3192 32.062 16.4216 32.1046 16.5445C32.1472 16.6673 32.1685 16.7902 32.1685 16.913C32.1685 17.1587 32.1046 17.343 31.9768 17.4454C31.849 17.5477 31.6998 17.6092 31.4868 17.6092H29.1645V18.6943H31.572C31.6359 18.7558 31.6785 18.8581 31.7211 18.981C31.7637 19.1038 31.7851 19.2267 31.7851 19.3495C31.7851 19.5952 31.7211 19.7795 31.5933 19.8819C31.4655 19.9843 31.3163 20.0457 31.1033 20.0457H29.1645V22.0932C29.0793 22.1137 28.9515 22.1341 28.781 22.1546C28.6106 22.1751 28.4402 22.1751 28.2697 22.1751C28.0993 22.1751 27.9501 22.1546 27.8223 22.1341C27.6945 22.1137 27.588 22.0727 27.5027 22.0113C27.4175 21.9499 27.3536 21.868 27.311 21.7656C27.2684 21.6632 27.2471 21.5199 27.2471 21.3561V17.1587C27.2471 16.8721 27.3323 16.6673 27.524 16.5035C27.7158 16.3397 27.9501 16.2578 28.2697 16.2578H31.9555Z" fill="white"/>
    <path d="M32.1891 17.4862C32.253 17.4657 32.3808 17.4452 32.53 17.4248C32.6791 17.4043 32.8496 17.4043 33.02 17.4043C33.1904 17.4043 33.3396 17.4043 33.4674 17.4248C33.5952 17.4452 33.7018 17.4862 33.787 17.5476C33.8722 17.609 33.9361 17.6909 34 17.7933C34.0426 17.8957 34.0639 18.0185 34.0639 18.1823V20.2708C34.0639 20.537 34.1279 20.7213 34.277 20.8441C34.4261 20.967 34.6392 21.0079 34.9161 21.0079C35.0866 21.0079 35.2357 20.9874 35.3422 20.967C35.4488 20.9465 35.534 20.9055 35.5979 20.8851V17.4862C35.6618 17.4657 35.7897 17.4452 35.9388 17.4248C36.0879 17.4043 36.2584 17.4043 36.4288 17.4043C36.5992 17.4043 36.7484 17.4043 36.8762 17.4248C37.004 17.4452 37.1106 17.4862 37.1958 17.5476C37.281 17.609 37.3449 17.6909 37.4088 17.7933C37.4515 17.8957 37.4728 18.0185 37.4728 18.1823V21.1308C37.4728 21.4584 37.3236 21.7041 37.004 21.8474C36.7484 21.9907 36.4288 22.0931 36.0666 22.175C35.7044 22.2569 35.3209 22.2774 34.8948 22.2774C34.49 22.2774 34.1279 22.2364 33.787 22.1545C33.4461 22.0726 33.1691 21.9498 32.9135 21.8064C32.6791 21.6426 32.4874 21.4379 32.3382 21.1922C32.2104 20.9465 32.1465 20.6394 32.1465 20.2708V17.4862H32.1891Z" fill="white"/>
    <path d="M41.5221 19.1444C41.5221 18.9397 41.4582 18.7964 41.3304 18.694C41.2025 18.5916 41.0321 18.5507 40.7977 18.5507C40.6486 18.5507 40.4995 18.5711 40.3503 18.5916C40.2012 18.6326 40.0734 18.6735 39.9881 18.7349V22.1133C39.9242 22.1338 39.7964 22.1543 39.6472 22.1747C39.4981 22.1952 39.3277 22.1952 39.1572 22.1952C38.9868 22.1952 38.8377 22.1952 38.7098 22.1747C38.582 22.1543 38.4755 22.1133 38.3902 22.0519C38.305 21.9905 38.2411 21.9086 38.1772 21.8062C38.1346 21.7038 38.1133 21.581 38.1133 21.4172V18.5097C38.1133 18.3254 38.1559 18.2026 38.2411 18.0797C38.3263 17.9774 38.4329 17.875 38.582 17.7726C38.8377 17.6088 39.1572 17.486 39.5407 17.4041C39.9242 17.3017 40.3503 17.2607 40.819 17.2607C41.6499 17.2607 42.2891 17.4245 42.7578 17.7317C43.2052 18.0593 43.4396 18.4892 43.4396 19.0625V22.1133C43.3756 22.1338 43.2478 22.1543 43.0987 22.1747C42.9495 22.1952 42.7791 22.1952 42.6087 22.1952C42.4382 22.1952 42.2891 22.1952 42.1612 22.1747C42.0334 22.1543 41.9269 22.1133 41.8417 22.0519C41.7565 21.9905 41.6925 21.9086 41.6286 21.8062C41.586 21.7038 41.5647 21.581 41.5647 21.4172V19.1444H41.5221Z" fill="white"/>
    <path d="M50.2983 18.4689C50.4475 18.4075 50.5753 18.387 50.6818 18.3666C50.8097 18.3461 50.9375 18.3256 51.044 18.3256C51.2145 18.3256 51.3636 18.3461 51.4701 18.3871C51.5767 18.428 51.6619 18.4894 51.7258 18.5713C51.7897 18.6532 51.8323 18.7556 51.8536 18.858C51.8749 18.9604 51.8962 19.0832 51.8962 19.2061C51.8962 19.7384 51.7471 20.2298 51.4488 20.7007L52.301 21.4174C52.2797 21.6631 52.1945 21.8678 52.0028 22.0111C51.8323 22.1749 51.6193 22.2364 51.3636 22.2364C51.0653 22.2364 50.7884 22.1135 50.4901 21.8678L50.277 21.6835C50.0001 21.8678 49.6805 21.9907 49.3396 22.093C48.9774 22.1954 48.5939 22.2364 48.1678 22.2364C47.7204 22.2364 47.3369 22.1954 47.0174 22.093C46.6765 21.9907 46.3995 21.8473 46.1652 21.6835C45.9308 21.4993 45.7604 21.2945 45.6538 21.0693C45.526 20.8236 45.4834 20.5779 45.4834 20.2912C45.4834 20.0455 45.526 19.8408 45.6112 19.6565C45.6964 19.4722 45.803 19.3084 45.9308 19.1651C46.0586 19.0218 46.2078 18.8989 46.3782 18.7966C46.5487 18.6942 46.6978 18.6123 46.8682 18.5509C46.7191 18.3871 46.6126 18.2232 46.5487 18.0594C46.4847 17.8752 46.4634 17.7114 46.4634 17.5681C46.4634 17.3633 46.506 17.179 46.6126 17.0152C46.7191 16.8309 46.8469 16.6876 47.0174 16.5648C47.1878 16.4419 47.4009 16.3395 47.6565 16.2576C47.9122 16.1962 48.2105 16.1553 48.53 16.1553C48.9987 16.1553 49.3183 16.2372 49.5101 16.3805C49.7018 16.5238 49.8083 16.7081 49.8083 16.9333C49.8083 17.0357 49.787 17.1585 49.7444 17.2609C49.7018 17.3633 49.6166 17.4657 49.5314 17.5476C49.4461 17.5066 49.3609 17.4862 49.2544 17.4657C49.1479 17.4452 49.0413 17.4452 48.9135 17.4452C48.7218 17.4452 48.5513 17.4657 48.4448 17.5271C48.317 17.5885 48.2531 17.6704 48.2531 17.8137C48.2531 17.9161 48.2957 18.0185 48.4022 18.1004C48.5087 18.2028 48.6152 18.3052 48.7644 18.428L50.1918 19.636C50.2344 19.4927 50.2557 19.3289 50.277 19.1242C50.277 18.9399 50.2983 18.7147 50.2983 18.4689ZM47.273 20.2298C47.273 20.455 47.3582 20.6393 47.5287 20.8031C47.6991 20.9669 47.9548 21.0283 48.2957 21.0283C48.4448 21.0283 48.5939 21.0079 48.7644 20.9669C48.9348 20.926 49.084 20.8645 49.2331 20.7826L47.8057 19.5337C47.6352 19.5951 47.4861 19.6975 47.4009 19.8203C47.3369 19.9432 47.273 20.0865 47.273 20.2298Z" fill="white"/>
    <path d="M56.3292 19.7793C56.0096 19.6769 55.7113 19.5745 55.4344 19.4926C55.1574 19.3902 54.9444 19.2674 54.7526 19.1241C54.5609 18.9807 54.4117 18.8169 54.3052 18.6122C54.1987 18.4074 54.1348 18.1822 54.1348 17.8956C54.1348 17.3427 54.3691 16.9128 54.8591 16.5852C55.3492 16.2576 56.0309 16.0938 56.9044 16.0938C57.224 16.0938 57.5223 16.1142 57.7992 16.1552C58.0762 16.1961 58.3106 16.2576 58.5023 16.3395C58.6941 16.4214 58.8432 16.5237 58.971 16.6466C59.0775 16.7694 59.1415 16.9128 59.1415 17.097C59.1415 17.2608 59.0988 17.4042 59.0136 17.527C58.9284 17.6499 58.8219 17.7522 58.6941 17.8341C58.5236 17.7522 58.3106 17.6703 58.0336 17.5884C57.7566 17.527 57.4584 17.4861 57.1388 17.4861C56.7979 17.4861 56.5635 17.527 56.4144 17.6089C56.2653 17.6908 56.1801 17.7932 56.1801 17.916C56.1801 18.0184 56.2227 18.1003 56.3292 18.1617C56.4357 18.2232 56.5635 18.2846 56.7553 18.3255L57.3518 18.4893C58.0549 18.6736 58.5875 18.9398 58.9497 19.2264C59.3332 19.5336 59.5037 19.9431 59.5037 20.4549C59.5037 21.0078 59.248 21.4377 58.758 21.7858C58.268 22.1339 57.5436 22.2977 56.5635 22.2977C56.2227 22.2977 55.9031 22.2772 55.6048 22.2158C55.3065 22.1748 55.0509 22.0929 54.8378 22.011C54.6248 21.9087 54.4543 21.8063 54.3265 21.663C54.1987 21.5196 54.1348 21.3558 54.1348 21.192C54.1348 21.0078 54.1987 20.844 54.3265 20.7211C54.4543 20.5983 54.5822 20.4959 54.7313 20.414C54.9444 20.5573 55.2 20.6802 55.4983 20.7825C55.7966 20.8849 56.1161 20.9463 56.4783 20.9463C56.8405 20.9463 57.0962 20.9054 57.2453 20.803C57.3944 20.7006 57.4584 20.5983 57.4584 20.4549C57.4584 20.3321 57.3944 20.2297 57.2879 20.1683C57.1601 20.1069 57.011 20.025 56.7979 19.9635L56.3292 19.7793Z" fill="white"/>
    <path d="M62.1655 17.2607C62.5703 17.2607 62.9325 17.3017 63.2521 17.3631C63.5717 17.4245 63.87 17.5474 64.1043 17.6907C64.3387 17.834 64.5091 18.0183 64.6369 18.2435C64.7648 18.4688 64.8287 18.7349 64.8287 19.0421V21.2124C64.8287 21.3762 64.7648 21.5195 64.6582 21.6219C64.5517 21.7243 64.4239 21.8267 64.2748 21.8881C63.7847 22.1338 63.1243 22.2566 62.2508 22.2566C61.8673 22.2566 61.5051 22.2157 61.1855 22.1543C60.8659 22.0928 60.6103 21.9905 60.3759 21.8676C60.1416 21.7448 59.9711 21.581 59.8646 21.3762C59.7368 21.1715 59.6729 20.9462 59.6729 20.6801C59.6729 20.2296 59.822 19.902 60.1203 19.6563C60.4185 19.4106 60.8872 19.2673 61.5264 19.2059L62.9751 19.0625V19.0011C62.9751 18.8168 62.8899 18.6735 62.6982 18.5916C62.5064 18.5097 62.2295 18.4688 61.8886 18.4688C61.6116 18.4688 61.3346 18.4892 61.0577 18.5507C60.7807 18.6121 60.5464 18.6735 60.3333 18.7349C60.2268 18.6735 60.1629 18.5916 60.099 18.4688C60.035 18.3459 59.9924 18.2231 59.9924 18.1002C59.9924 17.9364 60.035 17.7931 60.1416 17.6907C60.2268 17.5883 60.3759 17.5064 60.5677 17.4245C60.7807 17.3631 61.0364 17.3017 61.3347 17.2607C61.6116 17.2812 61.8886 17.2607 62.1655 17.2607ZM62.2508 21.0691C62.3786 21.0691 62.5064 21.0486 62.6769 21.0281C62.826 21.0077 62.9325 20.9667 63.0178 20.9462V20.1682L62.2082 20.2296C61.9951 20.2501 61.8247 20.291 61.6968 20.3525C61.569 20.4139 61.5051 20.5163 61.5051 20.6391C61.5051 20.762 61.569 20.8643 61.6755 20.9462C61.7821 21.0281 61.9738 21.0691 62.2508 21.0691Z" fill="white"/>
    <path d="M68.8993 21.9906C68.7927 22.052 68.6436 22.1134 68.4519 22.1748C68.2601 22.2158 68.0258 22.2363 67.7701 22.2363C67.4718 22.2363 67.2375 22.1953 67.0244 22.1339C66.8114 22.0725 66.6622 21.9701 66.577 21.8268C66.5131 21.7244 66.4279 21.5606 66.3427 21.3763C66.2574 21.1716 66.1509 20.9668 66.0444 20.7211C65.9379 20.4754 65.8313 20.2297 65.7248 19.9431C65.6183 19.6564 65.5118 19.3902 65.4052 19.1241C65.2987 18.8579 65.2135 18.5917 65.1283 18.346C65.043 18.1003 64.9791 17.8751 64.9365 17.6703C65.043 17.5884 65.1709 17.5065 65.3626 17.4246C65.5331 17.3632 65.7248 17.3223 65.9379 17.3223C66.1935 17.3223 66.4066 17.3632 66.577 17.4656C66.7475 17.568 66.8753 17.7318 66.9392 17.9979L67.3653 19.4721C67.4505 19.7588 67.5144 20.025 67.5997 20.2707C67.6636 20.5164 67.7275 20.6802 67.7701 20.8235H67.834C67.9832 20.3526 68.1323 19.8202 68.2814 19.2264C68.4306 18.6531 68.5797 18.0798 68.7075 17.5065C68.8354 17.4451 68.9845 17.4042 69.1336 17.3632C69.2828 17.3223 69.4532 17.3223 69.6023 17.3223C69.858 17.3223 70.071 17.3632 70.2628 17.4656C70.4332 17.568 70.5398 17.7318 70.5398 17.9775C70.5398 18.0798 70.5185 18.2232 70.4545 18.4279C70.3906 18.6327 70.3267 18.8374 70.2415 19.1036C70.1563 19.3493 70.0497 19.6155 69.9432 19.9021C69.8367 20.1888 69.7089 20.4549 69.6023 20.7211C69.4745 20.9873 69.368 21.233 69.2615 21.4582C69.091 21.663 68.9845 21.8472 68.8993 21.9906Z" fill="white"/>
    <path d="M73.5863 22.2772C73.1389 22.2772 72.7341 22.2157 72.3719 22.1134C71.9884 22.011 71.6688 21.8472 71.3919 21.6424C71.1149 21.4377 70.9019 21.1715 70.7314 20.8439C70.5823 20.5163 70.4971 20.1478 70.4971 19.7178C70.4971 19.2878 70.5823 18.9193 70.7314 18.6121C70.8806 18.305 71.0936 18.0593 71.3493 17.8545C71.6049 17.6498 71.9032 17.5065 72.2441 17.4246C72.585 17.3222 72.9259 17.2812 73.2667 17.2812C73.6502 17.2812 74.0124 17.3427 74.332 17.445C74.6516 17.5474 74.9285 17.6908 75.1629 17.875C75.3972 18.0593 75.5677 18.2641 75.7168 18.5302C75.8446 18.7759 75.9086 19.0626 75.9086 19.3492C75.9086 19.5745 75.8446 19.7383 75.6955 19.8611C75.5464 19.984 75.3546 20.0454 75.099 20.0863L72.3506 20.4344C72.4358 20.6392 72.6063 20.803 72.8406 20.9053C73.0963 21.0077 73.3733 21.0691 73.7141 21.0691C74.0124 21.0691 74.3107 21.0282 74.5663 20.9668C74.8433 20.9053 75.0564 20.8234 75.2268 20.7211C75.3546 20.7825 75.4398 20.8849 75.5251 20.9872C75.6103 21.0896 75.6529 21.2329 75.6529 21.3558C75.6529 21.6424 75.5038 21.8677 75.1842 22.011C74.9498 22.1134 74.6729 22.1953 74.3746 22.2362C74.1189 22.2567 73.842 22.2772 73.5863 22.2772ZM73.2667 18.4688C73.0963 18.4688 72.9258 18.4893 72.798 18.5507C72.6702 18.6121 72.5637 18.6736 72.4784 18.7555C72.3932 18.8374 72.3293 18.9193 72.2867 19.0216C72.2441 19.124 72.2228 19.2264 72.2228 19.3288L74.1189 19.0626C74.0976 18.9397 74.0124 18.7964 73.8846 18.6736C73.7567 18.5302 73.5437 18.4688 73.2667 18.4688Z" fill="white"/>
    <path d="M36.3226 9.97251C36.28 9.91109 36.2374 9.80871 36.1948 9.70634C36.1522 9.58349 36.1309 9.46064 36.1309 9.33778C36.1309 9.09208 36.1948 8.92828 36.3013 8.82591C36.4078 8.72353 36.557 8.66211 36.7274 8.66211H40.8606C40.9032 8.72353 40.9458 8.82591 40.9884 8.92828C41.031 9.05113 41.0523 9.17399 41.0523 9.29684C41.0523 9.54254 40.9884 9.70634 40.8819 9.80871C40.7754 9.91109 40.6262 9.97251 40.4558 9.97251H39.4118V14.1699C39.3479 14.1904 39.2414 14.2108 39.0923 14.2313C38.9431 14.2518 38.794 14.2518 38.6449 14.2518C38.4957 14.2518 38.3679 14.2313 38.2614 14.2108C38.1548 14.1904 38.0483 14.1494 37.9844 14.088C37.8992 14.0266 37.8566 13.9651 37.814 13.8628C37.7714 13.7604 37.75 13.6375 37.75 13.4737V9.97251H36.3226Z" fill="white"/>
    <path d="M41.2441 9.86947C41.3081 9.849 41.4146 9.82852 41.5424 9.80805C41.6702 9.78757 41.8194 9.78757 41.9685 9.78757C42.1177 9.78757 42.2242 9.78757 42.352 9.80805C42.4585 9.82852 42.5651 9.86947 42.629 9.91042C42.7142 9.97185 42.7568 10.0333 42.7994 10.1356C42.842 10.238 42.8633 10.3609 42.8633 10.5042V12.4698C42.8633 12.7155 42.9272 12.8998 43.0551 13.0022C43.1829 13.1045 43.3747 13.166 43.609 13.166C43.7581 13.166 43.8647 13.1455 43.9712 13.125C44.0564 13.1045 44.1416 13.0841 44.1842 13.0431V9.86947C44.2482 9.849 44.3547 9.82852 44.4825 9.80805C44.6103 9.78757 44.7595 9.78757 44.9086 9.78757C45.0578 9.78757 45.1643 9.78757 45.2921 9.80805C45.3986 9.82852 45.5052 9.86947 45.5691 9.91042C45.6543 9.97185 45.6969 10.0333 45.7395 10.1356C45.7821 10.238 45.8034 10.3609 45.8034 10.5042V13.2683C45.8034 13.5755 45.6756 13.8007 45.3986 13.944C45.1856 14.0873 44.9086 14.1692 44.6103 14.2511C44.3121 14.3126 43.9712 14.3535 43.609 14.3535C43.2681 14.3535 42.9486 14.3126 42.6716 14.2511C42.3946 14.1692 42.139 14.0669 41.9259 13.9235C41.7129 13.7802 41.5637 13.5755 41.4359 13.3298C41.3294 13.0841 41.2654 12.7974 41.2654 12.4698V9.86947H41.2441ZM41.585 8.41575C41.585 8.211 41.6702 8.02672 41.8194 7.86292C41.9685 7.69912 42.1816 7.6377 42.4159 7.6377C42.6716 7.6377 42.8846 7.7196 43.0338 7.86292C43.1829 8.02672 43.2681 8.211 43.2681 8.41575C43.2681 8.6205 43.1829 8.80477 43.0338 8.96857C42.8846 9.13237 42.6716 9.1938 42.4159 9.1938C42.3094 9.1938 42.2029 9.17332 42.0963 9.13237C41.9898 9.09142 41.9046 9.03 41.8407 8.96857C41.7555 8.90715 41.7129 8.82525 41.6702 8.72287C41.6063 8.64097 41.585 8.5386 41.585 8.41575ZM43.7155 8.41575C43.7155 8.211 43.7794 8.02672 43.9286 7.86292C44.0777 7.69912 44.2908 7.6377 44.5464 7.6377C44.6743 7.6377 44.7808 7.65817 44.8873 7.69912C44.9938 7.74007 45.0791 7.8015 45.143 7.86292C45.2282 7.94482 45.2708 8.02672 45.3134 8.10862C45.356 8.211 45.3773 8.2929 45.3773 8.39527C45.3773 8.60002 45.2921 8.7843 45.143 8.9481C44.9938 9.1119 44.7808 9.17332 44.5464 9.17332C44.2908 9.17332 44.0777 9.09142 43.9286 8.9481C43.8008 8.82525 43.7155 8.64097 43.7155 8.41575Z" fill="white"/>
    <path d="M48.1465 14.2105C48.0826 14.231 47.9761 14.2514 47.8483 14.2719C47.7204 14.2924 47.5713 14.2924 47.4222 14.2924C47.273 14.2924 47.1665 14.2924 47.0387 14.2719C46.9321 14.2514 46.8256 14.2105 46.7617 14.1695C46.6765 14.1081 46.6339 14.0467 46.5913 13.9443C46.5486 13.8419 46.5273 13.7191 46.5273 13.5758V10.8321C46.5273 10.6888 46.5487 10.5659 46.6126 10.4636C46.6765 10.3612 46.7404 10.2793 46.8469 10.1974C46.9534 10.1155 47.0813 10.0541 47.2304 9.99264C47.3795 9.93121 47.5287 9.86979 47.6991 9.82884C47.8696 9.78789 48.04 9.74694 48.2318 9.70599C48.4235 9.68551 48.5939 9.66504 48.7857 9.66504C49.084 9.66504 49.3183 9.72646 49.5101 9.82884C49.6805 9.93121 49.7657 10.1155 49.7657 10.3817C49.7657 10.4636 49.7444 10.5455 49.7231 10.6274C49.7018 10.7093 49.6592 10.7912 49.6379 10.8526C49.5101 10.8526 49.3609 10.8526 49.2331 10.8731C49.084 10.8935 48.9561 10.8935 48.8283 10.9345C48.7005 10.955 48.5726 10.9754 48.4448 11.0164C48.3383 11.0369 48.2318 11.0778 48.1465 11.1188V14.2105Z" fill="white"/>
    <path d="M54.6871 13.4116C54.6658 13.6982 54.5593 13.9234 54.4315 14.0668C54.2823 14.2101 54.0906 14.292 53.8136 14.292C53.6219 14.292 53.4301 14.251 53.281 14.1487C53.1319 14.0463 52.9614 13.903 52.7697 13.6777L51.8323 12.5516V14.2101C51.7683 14.2306 51.6618 14.2306 51.534 14.251C51.4062 14.2715 51.257 14.292 51.1292 14.292C50.9801 14.292 50.8735 14.292 50.7457 14.2715C50.6392 14.251 50.5326 14.2101 50.4687 14.1691C50.3835 14.1077 50.3409 14.0463 50.2983 13.9439C50.2557 13.8415 50.2344 13.7187 50.2344 13.5754V8.2928C50.2983 8.27233 50.4048 8.25185 50.5326 8.23138C50.6605 8.2109 50.8096 8.19043 50.9374 8.19043C51.0866 8.19043 51.1931 8.19043 51.3209 8.2109C51.4275 8.23138 51.534 8.27233 51.5979 8.31328C51.6831 8.3747 51.7257 8.43613 51.7683 8.53851C51.811 8.64088 51.8323 8.76373 51.8323 8.90706V11.3026L53.4514 9.70558C53.771 9.70558 54.048 9.76701 54.2397 9.91033C54.4315 10.0537 54.538 10.2175 54.538 10.4427C54.538 10.5246 54.5167 10.627 54.4954 10.6884C54.4741 10.7703 54.4102 10.8317 54.3463 10.9136C54.2823 10.9955 54.1971 11.0774 54.0906 11.1593C53.9841 11.2412 53.8562 11.3436 53.7284 11.4664L53.1745 11.9169L54.6871 13.4116Z" fill="white"/>
    <path d="M55.1562 8.55924C55.1562 8.33401 55.2415 8.12926 55.3906 7.98593C55.561 7.82213 55.7741 7.74023 56.0298 7.74023C56.2854 7.74023 56.4985 7.82213 56.6689 7.98593C56.8393 8.14973 56.9033 8.33401 56.9033 8.55924C56.9033 8.78446 56.818 8.98921 56.6689 9.13254C56.4985 9.29634 56.2854 9.37824 56.0298 9.37824C55.7741 9.37824 55.561 9.29634 55.3906 9.13254C55.2415 8.98921 55.1562 8.80494 55.1562 8.55924ZM56.8607 14.2103C56.7967 14.2308 56.6902 14.2308 56.5624 14.2513C56.4346 14.2718 56.2854 14.2922 56.1576 14.2922C56.0084 14.2922 55.9019 14.2922 55.7741 14.2718C55.6676 14.2513 55.561 14.2103 55.4971 14.1694C55.4119 14.108 55.3693 14.0465 55.3267 13.9442C55.2841 13.8418 55.2628 13.7189 55.2628 13.5756V9.86964C55.3267 9.84916 55.4332 9.84916 55.561 9.82869C55.6889 9.80821 55.838 9.78774 55.9658 9.78774C56.115 9.78774 56.2215 9.78774 56.3493 9.80821C56.4559 9.82869 56.5624 9.86964 56.6263 9.91059C56.7115 9.97201 56.7541 10.0334 56.7967 10.1358C56.8393 10.2382 56.8607 10.361 56.8607 10.5044V14.2103Z" fill="white"/>
    <path d="M58.3517 13.0843C58.2878 12.941 58.2026 12.7567 58.1387 12.5725C58.0535 12.3882 57.9683 12.163 57.883 11.9173C57.7978 11.6716 57.7126 11.4054 57.6274 11.0778C57.5422 10.7707 57.4356 10.4021 57.3291 9.99261C57.4143 9.91071 57.5422 9.82881 57.6913 9.76738C57.8404 9.70596 58.0109 9.66501 58.1813 9.66501C58.3944 9.66501 58.5861 9.70596 58.7352 9.78786C58.8844 9.86976 58.9909 10.0336 59.0548 10.2793L59.8005 12.7772H59.8431C59.9283 12.5725 59.9922 12.3472 60.0562 12.1015C60.1201 11.8558 60.2053 11.6101 60.2692 11.344C60.3331 11.0778 60.397 10.8321 60.461 10.5659C60.5249 10.2997 60.5675 10.054 60.6101 9.80833C60.8444 9.68548 61.0788 9.64453 61.3558 9.64453C61.5688 9.64453 61.7606 9.68548 61.9097 9.78786C62.0588 9.86976 62.1227 10.0336 62.1227 10.2588C62.1227 10.4226 62.1014 10.6069 62.0588 10.8321C62.0162 11.0573 61.9523 11.2825 61.8884 11.5282C61.8245 11.7739 61.7393 12.0196 61.6327 12.2858C61.5262 12.552 61.441 12.7977 61.3345 13.0434C61.2279 13.2891 61.1214 13.5348 60.9936 13.7395C60.8871 13.9648 60.7592 14.1695 60.6527 14.3333C60.4823 14.6404 60.3118 14.8657 60.1627 15.0704C60.0135 15.2547 59.8644 15.398 59.7366 15.5209C59.5874 15.6232 59.4596 15.7051 59.3105 15.7461C59.1613 15.787 59.0335 15.8075 58.8844 15.8075C58.6287 15.8075 58.3944 15.7256 58.2452 15.5823C58.0748 15.439 57.9896 15.2342 57.9469 14.9885C58.1387 14.8452 58.3517 14.6609 58.5435 14.4766C58.7352 14.2924 58.927 14.1081 59.0974 13.9033C58.9909 13.8829 58.8844 13.801 58.7565 13.6986C58.6287 13.6167 58.5009 13.4119 58.3517 13.0843Z" fill="white"/>
    <path d="M64.9993 14.3733C64.6371 14.3733 64.2749 14.3324 63.9553 14.23C63.6357 14.1276 63.3588 13.9843 63.1244 13.7796C62.8901 13.5748 62.6983 13.3291 62.5705 13.022C62.4426 12.7149 62.3574 12.3668 62.3574 11.9573C62.3574 11.5478 62.4213 11.2202 62.5705 10.9335C62.6983 10.6469 62.89 10.4012 63.1031 10.2169C63.3162 10.0326 63.5718 9.88932 63.8701 9.80742C64.1471 9.72552 64.4453 9.68457 64.7436 9.68457C65.0845 9.68457 65.3827 9.72552 65.6597 9.8279C65.9367 9.93027 66.171 10.0531 66.3628 10.2374C66.5545 10.4012 66.725 10.6059 66.8315 10.8516C66.938 11.0973 67.0019 11.343 67.0019 11.6297C67.0019 11.8344 66.938 11.9982 66.8315 12.1006C66.7037 12.203 66.5545 12.2849 66.3202 12.3054L63.9766 12.633C64.0405 12.8377 64.1897 12.981 64.4027 13.0834C64.6158 13.1858 64.8714 13.2267 65.1484 13.2267C65.4041 13.2267 65.6597 13.1858 65.8728 13.1244C66.1071 13.0629 66.2989 12.981 66.4267 12.8991C66.5332 12.9606 66.6184 13.0425 66.6824 13.1448C66.7463 13.2472 66.7889 13.3701 66.7889 13.4929C66.7889 13.7591 66.661 13.9638 66.3841 14.1072C66.1923 14.2095 65.958 14.271 65.7023 14.3119C65.468 14.3529 65.2336 14.3733 64.9993 14.3733ZM64.7436 10.7902C64.5945 10.7902 64.4666 10.8107 64.3601 10.8721C64.2536 10.9131 64.1684 10.9745 64.0831 11.0564C64.0192 11.1383 63.9553 11.2202 63.934 11.3021C63.8914 11.4045 63.8701 11.4864 63.8701 11.5887L65.4893 11.343C65.468 11.2202 65.4041 11.0973 65.2762 10.9745C65.1484 10.8516 64.978 10.7902 64.7436 10.7902Z" fill="white"/>
</svg>
