<svg width="151" height="53" viewBox="0 0 151 53" fill="none" xmlns="http://www.w3.org/2000/svg">
    <path d="M63.5455 34.2219C63.6304 34.3513 63.7579 34.5671 63.8428 34.826C63.9278 35.0849 63.9702 35.3438 63.9702 35.6027C63.9702 36.1205 63.8428 36.5089 63.588 36.7247C63.3331 36.9404 63.0358 37.0699 62.6111 37.0699H57.9814V39.3569H62.8234C62.9509 39.4864 63.0358 39.7021 63.1208 39.961C63.2057 40.2199 63.2482 40.4788 63.2482 40.7377C63.2482 41.2556 63.1208 41.6439 62.8659 41.8597C62.6111 42.0754 62.3137 42.2049 61.889 42.2049H58.0239V46.5201C57.854 46.5632 57.5991 46.6064 57.2593 46.6495C56.9195 46.6927 56.5797 46.6927 56.2399 46.6927C55.9001 46.6927 55.6028 46.6495 55.348 46.6064C55.0931 46.5632 54.8808 46.4769 54.7109 46.3474C54.541 46.218 54.4135 46.0454 54.3286 45.8296C54.2436 45.6139 54.2012 45.3118 54.2012 44.9666V36.0774C54.2012 35.4733 54.3711 35.0417 54.7533 34.6965C55.1356 34.3513 55.6028 34.1787 56.2399 34.1787H63.5455V34.2219Z" fill="#00A79D"/>
    <path d="M64.0132 36.8123C64.1406 36.7691 64.3954 36.726 64.6928 36.6828C64.9901 36.6396 65.3299 36.6396 65.6697 36.6396C66.0095 36.6396 66.2643 36.6396 66.5616 36.6828C66.8165 36.726 67.0288 36.8123 67.1987 36.9417C67.3686 37.0712 67.4961 37.2438 67.6235 37.4595C67.7084 37.6753 67.7509 37.9342 67.7509 38.2794V42.6377C67.7509 43.1987 67.8783 43.587 68.1756 43.846C68.473 44.1049 68.8977 44.1912 69.4499 44.1912C69.7897 44.1912 70.0445 44.148 70.2994 44.1049C70.5117 44.0617 70.6816 43.9754 70.809 43.9323V36.8123C70.9365 36.7691 71.1913 36.726 71.4886 36.6828C71.786 36.6396 72.1258 36.6396 72.4655 36.6396C72.8053 36.6396 73.0602 36.6396 73.3575 36.6828C73.6123 36.726 73.8247 36.8123 73.9946 36.9417C74.1645 37.0712 74.2919 37.2438 74.4194 37.4595C74.5043 37.6753 74.5468 37.9342 74.5468 38.2794V44.4501C74.5468 45.1405 74.2495 45.6583 73.6123 45.9604C73.1027 46.2624 72.4655 46.4782 71.786 46.6508C71.0639 46.8234 70.2994 46.8666 69.4499 46.8666C68.6429 46.8666 67.9208 46.7803 67.2412 46.6077C66.5616 46.435 66.0095 46.1761 65.4998 45.8741C65.0326 45.5289 64.6503 45.0974 64.353 44.5795C64.0981 44.0617 63.9707 43.4144 63.9707 42.6377V36.8123H64.0132Z" fill="#00A79D"/>
    <path d="M82.5732 40.2627C82.5732 39.8312 82.4458 39.5292 82.191 39.3565C81.9361 39.1408 81.5963 39.0545 81.1291 39.0545C80.8318 39.0545 80.5345 39.0976 80.2371 39.1408C79.9398 39.2271 79.685 39.3134 79.5151 39.4429V46.5197C79.3877 46.5629 79.1328 46.606 78.8355 46.6492C78.5382 46.6923 78.1984 46.6923 77.8586 46.6923C77.5188 46.6923 77.2639 46.6923 76.9666 46.6492C76.7118 46.606 76.4994 46.5197 76.3295 46.3902C76.1596 46.2608 76.0322 46.0882 75.9048 45.8724C75.8198 45.6567 75.7773 45.3978 75.7773 45.0526V38.9682C75.7773 38.623 75.8623 38.3209 76.0322 38.062C76.2021 37.8462 76.4145 37.6305 76.7118 37.4147C77.2215 37.0695 77.8586 36.8106 78.5806 36.638C79.3452 36.4222 80.1947 36.3359 81.1291 36.3359C82.7856 36.3359 84.0598 36.6812 84.9943 37.3284C85.9287 37.9757 86.3534 38.925 86.3534 40.1333V46.5197C86.226 46.5629 85.9712 46.606 85.6738 46.6492C85.3765 46.6923 85.0367 46.6923 84.6969 46.6923C84.3571 46.6923 84.1023 46.6923 83.805 46.6492C83.5501 46.606 83.3378 46.5197 83.1679 46.3902C82.998 46.2608 82.8705 46.0882 82.7431 45.8724C82.6582 45.6567 82.6157 45.3978 82.6157 45.0526V40.2627H82.5732Z" fill="#00A79D"/>
    <path d="M100.03 38.8388C100.327 38.7094 100.582 38.6662 100.794 38.6231C101.049 38.5799 101.304 38.5368 101.516 38.5368C101.856 38.5368 102.154 38.5799 102.366 38.6662C102.578 38.7525 102.748 38.882 102.876 39.0546C103.003 39.2272 103.088 39.443 103.13 39.6587C103.173 39.8745 103.215 40.1334 103.215 40.3923C103.215 41.4711 102.918 42.5499 102.323 43.5423L104.022 45.0527C103.98 45.5705 103.81 46.002 103.428 46.304C103.088 46.6493 102.663 46.7787 102.154 46.7787C101.559 46.7787 101.007 46.5198 100.412 46.002L99.9874 45.6568C99.4352 46.002 98.8406 46.304 98.1185 46.5198C97.4389 46.7356 96.6319 46.8219 95.7824 46.8219C94.9329 46.8219 94.1684 46.7356 93.4888 46.5198C92.8092 46.304 92.2571 46.002 91.7898 45.6568C91.3226 45.3116 90.9828 44.88 90.7705 44.3622C90.5156 43.8876 90.4307 43.3266 90.4307 42.7225C90.4307 42.2047 90.5156 41.7731 90.6855 41.3848C90.8554 40.9964 91.0678 40.6512 91.3226 40.3491C91.5775 40.0471 91.8748 39.7882 92.2146 39.5724C92.5544 39.3566 92.8517 39.184 93.1915 39.0546C92.8942 38.7094 92.6818 38.3642 92.5544 38.019C92.427 37.6737 92.3845 37.2854 92.3845 36.9833C92.3845 36.5518 92.4694 36.1634 92.6818 35.8182C92.8942 35.473 93.149 35.1278 93.4888 34.8689C93.8286 34.61 94.2533 34.3942 94.763 34.2216C95.2727 34.0922 95.8674 34.0059 96.5045 34.0059C97.4389 34.0059 98.076 34.1785 98.4583 34.4805C98.8406 34.7826 99.0529 35.1709 99.0529 35.6456C99.0529 35.8614 99.0105 36.1203 98.9255 36.336C98.8406 36.5518 98.6707 36.7676 98.5008 36.9402C98.3309 36.8539 98.161 36.8107 97.9486 36.7676C97.7362 36.7244 97.5239 36.7244 97.269 36.7244C96.8867 36.7244 96.5894 36.7676 96.3346 36.897C96.0797 37.0265 95.9523 37.1991 95.9523 37.5011C95.9523 37.7169 96.0373 37.9326 96.2496 38.1053C96.462 38.321 96.6744 38.5368 96.9717 38.7957L99.8175 41.3416C99.9024 41.0396 99.9449 40.6943 99.9874 40.2628C100.03 39.8313 100.03 39.3566 100.03 38.8388ZM94.041 42.5499C94.041 43.0245 94.2109 43.4129 94.5507 43.7581C94.8905 44.0602 95.4001 44.2328 96.0797 44.2328C96.3771 44.2328 96.6744 44.1896 97.0142 44.1033C97.354 44.017 97.6513 43.8876 97.9486 43.715L95.1028 41.0827C94.763 41.2122 94.4657 41.4279 94.2958 41.6868C94.1259 41.9889 94.041 42.2478 94.041 42.5499Z" fill="#00A79D"/>
    <path d="M112.052 41.6442C111.414 41.4285 110.82 41.2127 110.268 41.0401C109.758 40.8244 109.291 40.5654 108.909 40.2634C108.526 39.9613 108.229 39.6161 108.017 39.1846C107.804 38.7531 107.677 38.2784 107.677 37.6743C107.677 36.5092 108.144 35.603 109.121 34.9126C110.098 34.2222 111.457 33.877 113.156 33.877C113.793 33.877 114.388 33.9201 114.94 34.0064C115.492 34.0927 115.959 34.2222 116.341 34.3948C116.724 34.5674 117.021 34.7831 117.276 35.042C117.531 35.301 117.616 35.603 117.616 35.9482C117.616 36.2934 117.531 36.5955 117.361 36.8544C117.191 37.1133 116.979 37.3291 116.724 37.5017C116.384 37.3291 115.959 37.1565 115.407 36.9839C114.855 36.8544 114.26 36.7681 113.623 36.7681C112.944 36.7681 112.476 36.8544 112.179 37.027C111.882 37.1996 111.712 37.4154 111.712 37.6743C111.712 37.89 111.797 38.0627 112.009 38.1921C112.222 38.3216 112.476 38.451 112.859 38.5373L114.048 38.8825C115.45 39.2709 116.511 39.7887 117.233 40.436C117.998 41.0833 118.338 41.9463 118.338 43.0251C118.338 44.1902 117.828 45.0964 116.851 45.8299C115.874 46.5635 114.43 46.9087 112.519 46.9087C111.839 46.9087 111.202 46.8656 110.65 46.7361C110.055 46.6498 109.546 46.4772 109.121 46.3046C108.696 46.0888 108.356 45.8731 108.101 45.571C107.847 45.269 107.719 44.9237 107.719 44.5785C107.719 44.1902 107.847 43.845 108.101 43.586C108.356 43.3271 108.611 43.1114 108.909 42.9388C109.333 43.2408 109.843 43.4997 110.438 43.7155C111.032 43.9313 111.669 44.0607 112.391 44.0607C113.113 44.0607 113.623 43.9744 113.92 43.7587C114.218 43.5429 114.345 43.3271 114.345 43.0251C114.345 42.7662 114.218 42.5504 114.005 42.421C113.751 42.2915 113.453 42.1189 113.029 41.9894L112.052 41.6442Z" fill="#00A79D"/>
    <path d="M123.647 36.3381C124.454 36.3381 125.176 36.4244 125.813 36.5538C126.451 36.6833 127.045 36.9422 127.512 37.2443C127.98 37.5463 128.319 37.9347 128.574 38.4093C128.829 38.884 128.956 39.445 128.956 40.0491V44.6232C128.956 44.9684 128.829 45.2704 128.617 45.4862C128.404 45.702 128.149 45.9177 127.852 46.0472C126.875 46.565 125.559 46.8239 123.817 46.8239C123.053 46.8239 122.331 46.7376 121.693 46.6081C121.056 46.4787 120.547 46.2629 120.079 46.004C119.612 45.7451 119.272 45.3999 119.06 44.9684C118.805 44.5369 118.678 44.0622 118.678 43.5012C118.678 42.5519 118.975 41.8615 119.57 41.3437C120.164 40.8258 121.099 40.5238 122.373 40.3943L125.261 40.0923V39.9628C125.261 39.5744 125.091 39.2724 124.709 39.0998C124.327 38.9272 123.775 38.8409 123.095 38.8409C122.543 38.8409 121.991 38.884 121.481 39.0135C120.971 39.1429 120.462 39.2724 120.037 39.4018C119.825 39.2724 119.697 39.0998 119.57 38.8409C119.442 38.582 119.357 38.323 119.357 38.0641C119.357 37.7189 119.442 37.4169 119.655 37.2011C119.825 36.9853 120.122 36.8127 120.504 36.6401C120.929 36.5107 121.439 36.3812 122.033 36.2949C122.585 36.3812 123.138 36.3381 123.647 36.3381ZM123.817 44.3643C124.072 44.3643 124.327 44.3211 124.667 44.278C124.964 44.2348 125.176 44.1485 125.346 44.1054V42.4656L123.775 42.595C123.35 42.6382 123.01 42.7245 122.755 42.854C122.5 42.9834 122.373 43.1992 122.373 43.4581C122.373 43.717 122.5 43.9327 122.713 44.1054C122.883 44.278 123.307 44.3643 123.817 44.3643Z" fill="#00A79D"/>
    <path d="M137.069 46.2616C136.857 46.391 136.559 46.5205 136.177 46.6068C135.795 46.6931 135.328 46.7363 134.818 46.7363C134.223 46.7363 133.756 46.65 133.331 46.5205C132.907 46.391 132.609 46.1753 132.439 45.8732C132.312 45.6575 132.142 45.3123 131.972 44.9239C131.802 44.4924 131.59 44.0609 131.378 43.543C131.165 43.0252 130.953 42.5074 130.74 41.9033C130.528 41.2992 130.316 40.7382 130.103 40.1772C129.891 39.6162 129.721 39.0553 129.551 38.5375C129.381 38.0196 129.254 37.545 129.169 37.1135C129.381 36.9409 129.636 36.7682 130.018 36.5956C130.358 36.4662 130.74 36.3799 131.165 36.3799C131.675 36.3799 132.1 36.4662 132.439 36.6819C132.779 36.8977 133.034 37.2429 133.162 37.8039L134.011 40.9108C134.181 41.5149 134.308 42.0759 134.478 42.5506C134.606 43.0684 134.733 43.4136 134.818 43.7156H134.945C135.243 42.7232 135.54 41.6012 135.837 40.393C136.135 39.1847 136.432 37.9765 136.687 36.7682C136.942 36.6388 137.239 36.5525 137.536 36.4662C137.834 36.3799 138.173 36.3799 138.471 36.3799C138.98 36.3799 139.405 36.4662 139.787 36.6819C140.127 36.8977 140.297 37.2429 140.297 37.7607C140.297 37.9765 140.255 38.2785 140.127 38.7101C140 39.1416 139.872 39.5731 139.703 40.1341C139.533 40.6519 139.32 41.2129 139.108 41.7738C138.896 42.3779 138.641 42.9389 138.428 43.4999C138.173 44.0609 137.961 44.5787 137.749 45.0533C137.451 45.5712 137.239 45.9595 137.069 46.2616Z" fill="#00A79D"/>
    <path d="M146.413 46.8649C145.563 46.8649 144.756 46.7355 143.992 46.5197C143.227 46.3039 142.59 45.9587 142.038 45.5272C141.486 45.0957 141.061 44.5347 140.721 43.8443C140.424 43.1539 140.254 42.3772 140.254 41.471C140.254 40.5648 140.424 39.7881 140.721 39.1408C141.018 38.4935 141.443 37.9757 141.953 37.5442C142.463 37.1127 143.057 36.8106 143.737 36.638C144.416 36.4222 145.096 36.3359 145.776 36.3359C146.54 36.3359 147.262 36.4654 147.899 36.6812C148.536 36.8969 149.089 37.199 149.556 37.5873C150.023 37.9757 150.363 38.4072 150.618 38.9682C150.872 39.486 151 40.0901 151 40.6942C151 41.1689 150.872 41.5141 150.575 41.773C150.278 42.0319 149.896 42.1614 149.386 42.2477L143.992 42.9381C144.162 43.3696 144.501 43.7149 144.969 43.9306C145.478 44.1464 146.03 44.2758 146.71 44.2758C147.305 44.2758 147.899 44.1895 148.409 44.0601C148.961 43.9306 149.386 43.758 149.726 43.5422C149.98 43.6717 150.15 43.8875 150.32 44.1032C150.49 44.3621 150.575 44.621 150.575 44.8799C150.575 45.4841 150.278 45.9587 149.641 46.2608C149.173 46.4765 148.621 46.6492 148.069 46.7355C147.475 46.8218 146.922 46.8649 146.413 46.8649ZM145.776 38.8819C145.436 38.8819 145.096 38.925 144.841 39.0545C144.586 39.1839 144.374 39.3134 144.204 39.486C144.034 39.6586 143.907 39.8312 143.822 40.047C143.737 40.2627 143.694 40.4785 143.694 40.6942L147.475 40.1333C147.432 39.8744 147.262 39.5723 147.007 39.3134C146.752 39.0113 146.328 38.8819 145.776 38.8819Z" fill="#00A79D"/>
    <path d="M72.2114 21.0166C72.1264 20.8871 72.0415 20.6714 71.9565 20.4556C71.8716 20.1967 71.8291 19.9378 71.8291 19.6789C71.8291 19.1611 71.9565 18.8159 72.1689 18.6001C72.3813 18.3843 72.6786 18.2549 73.0184 18.2549H81.2584C81.3433 18.3843 81.4283 18.6001 81.5132 18.8159C81.5982 19.0748 81.6406 19.3337 81.6406 19.5926C81.6406 20.1104 81.5132 20.4556 81.3008 20.6714C81.0885 20.8871 80.7912 21.0166 80.4514 21.0166H78.3701V29.8626C78.2427 29.9058 78.0303 29.949 77.733 29.9921C77.4357 30.0353 77.1384 30.0353 76.8411 30.0353C76.5437 30.0353 76.2889 29.9921 76.0765 29.949C75.8642 29.9058 75.6518 29.8195 75.5244 29.69C75.3545 29.5606 75.2695 29.4311 75.1846 29.2154C75.0996 28.9996 75.0571 28.7407 75.0571 28.3955V21.0166H72.2114Z" fill="#ED1C24"/>
    <path d="M82.0654 20.757C82.1929 20.7139 82.4052 20.6707 82.6601 20.6276C82.9149 20.5844 83.2122 20.5844 83.5096 20.5844C83.8069 20.5844 84.0192 20.5844 84.2741 20.6276C84.4865 20.6707 84.6988 20.757 84.8263 20.8433C84.9962 20.9728 85.0811 21.1023 85.166 21.318C85.251 21.5338 85.2935 21.7927 85.2935 22.0947V26.1941C85.2935 26.712 85.4209 27.1003 85.6757 27.3161C85.9306 27.5318 86.2704 27.6613 86.7801 27.6613C87.0774 27.6613 87.2898 27.6181 87.5021 27.575C87.672 27.5318 87.8419 27.4887 87.9269 27.4024V20.757C88.0543 20.7139 88.2667 20.6707 88.5215 20.6276C88.7764 20.5844 89.0737 20.5844 89.371 20.5844C89.6683 20.5844 89.8807 20.5844 90.1355 20.6276C90.3479 20.6707 90.5603 20.757 90.6877 20.8433C90.8576 20.9728 90.9425 21.1023 91.0275 21.318C91.1124 21.5338 91.1549 21.7927 91.1549 22.0947V27.9202C91.1549 28.5675 90.9001 29.0421 90.3479 29.3442C89.9232 29.6463 89.371 29.8189 88.7764 29.9915C88.1817 30.1209 87.5021 30.2072 86.7801 30.2072C86.1005 30.2072 85.4634 30.1209 84.9112 29.9915C84.359 29.8189 83.8493 29.6031 83.4246 29.3011C82.9999 28.999 82.7025 28.5675 82.4477 28.0497C82.2353 27.5318 82.1079 26.9277 82.1079 26.2373V20.757H82.0654ZM82.745 17.7364C82.745 17.3049 82.9149 16.9166 83.2122 16.5713C83.5096 16.2261 83.9343 16.0967 84.4015 16.0967C84.9112 16.0967 85.3359 16.2693 85.6333 16.5713C85.9306 16.9166 86.1005 17.3049 86.1005 17.7364C86.1005 18.168 85.9306 18.5563 85.6333 18.9015C85.3359 19.2467 84.9112 19.3762 84.4015 19.3762C84.1891 19.3762 83.9768 19.333 83.7644 19.2467C83.552 19.1604 83.3821 19.031 83.2547 18.9015C83.0848 18.7721 82.9999 18.5995 82.9149 18.3837C82.7875 18.168 82.745 17.9522 82.745 17.7364ZM86.95 17.7364C86.95 17.3049 87.0774 16.9166 87.3747 16.5713C87.672 16.2261 88.0968 16.0967 88.6065 16.0967C88.8613 16.0967 89.0737 16.1398 89.286 16.2261C89.4984 16.3124 89.6683 16.4419 89.7957 16.5713C89.9232 16.7008 90.0506 16.9166 90.1355 17.0892C90.2205 17.3049 90.263 17.4775 90.263 17.6933C90.263 18.1248 90.0931 18.5132 89.7957 18.8584C89.4984 19.2036 89.0737 19.333 88.6065 19.333C88.0968 19.333 87.672 19.1604 87.3747 18.8584C87.0774 18.5563 86.95 18.168 86.95 17.7364Z" fill="#ED1C24"/>
    <path d="M95.7427 29.9058C95.6153 29.949 95.4029 29.9921 95.148 30.0353C94.8932 30.0784 94.5959 30.0784 94.2986 30.0784C94.0012 30.0784 93.7889 30.0784 93.534 30.0353C93.3217 29.9921 93.1093 29.9058 92.9819 29.8195C92.812 29.6901 92.727 29.5606 92.6421 29.3448C92.5571 29.1291 92.5146 28.8702 92.5146 28.5681V22.7858C92.5146 22.4837 92.5571 22.2248 92.6845 22.0091C92.812 21.7933 92.9394 21.6207 93.1518 21.4481C93.3641 21.2755 93.619 21.1461 93.9163 21.0166C94.2136 20.8871 94.5109 20.7577 94.8507 20.6714C95.1905 20.5851 95.5303 20.4988 95.9126 20.4125C96.2949 20.3693 96.6346 20.3262 97.0169 20.3262C97.6115 20.3262 98.0788 20.4556 98.461 20.6714C98.8008 20.8871 98.9707 21.2755 98.9707 21.8365C98.9707 22.0091 98.9283 22.1817 98.8858 22.3543C98.8433 22.5269 98.7584 22.6995 98.7159 22.829C98.461 22.829 98.1637 22.829 97.9089 22.8721C97.6116 22.9153 97.3567 22.9153 97.1019 23.0016C96.847 23.0447 96.5922 23.0879 96.3373 23.1742C96.125 23.2173 95.9126 23.3036 95.7427 23.3899V29.9058Z" fill="#ED1C24"/>
    <path d="M108.781 28.2222C108.739 28.8263 108.527 29.301 108.272 29.6031C107.974 29.9051 107.592 30.0777 107.04 30.0777C106.658 30.0777 106.275 29.9914 105.978 29.7757C105.681 29.5599 105.341 29.2578 104.959 28.7832L103.09 26.4098V29.9051C102.962 29.9483 102.75 29.9483 102.495 29.9914C102.24 30.0346 101.943 30.0777 101.688 30.0777C101.391 30.0777 101.179 30.0777 100.924 30.0346C100.711 29.9914 100.499 29.9051 100.372 29.8188C100.202 29.6894 100.117 29.5599 100.032 29.3441C99.9468 29.1284 99.9043 28.8695 99.9043 28.5674V17.4775C100.032 17.4343 100.244 17.3912 100.499 17.348C100.754 17.3049 101.051 17.2617 101.306 17.2617C101.603 17.2617 101.816 17.2617 102.07 17.3049C102.283 17.348 102.495 17.4343 102.623 17.5206C102.793 17.6501 102.877 17.7795 102.962 17.9953C103.047 18.2111 103.09 18.47 103.09 18.772V23.8208L106.318 20.4549C106.955 20.4549 107.507 20.5844 107.889 20.8864C108.272 21.1885 108.484 21.5337 108.484 22.0084C108.484 22.181 108.442 22.3968 108.399 22.5262C108.357 22.6988 108.229 22.8283 108.102 23.0009C107.974 23.1735 107.805 23.3461 107.592 23.5187C107.38 23.6913 107.125 23.9071 106.87 24.166L105.766 25.1153L108.781 28.2222Z" fill="#ED1C24"/>
    <path d="M109.76 18.0376C109.76 17.5629 109.93 17.1314 110.227 16.8293C110.567 16.4841 110.992 16.3115 111.501 16.3115C112.011 16.3115 112.436 16.4841 112.775 16.8293C113.115 17.1746 113.243 17.5629 113.243 18.0376C113.243 18.5123 113.073 18.9438 112.775 19.2458C112.436 19.591 112.011 19.7636 111.501 19.7636C110.992 19.7636 110.567 19.591 110.227 19.2458C109.887 18.9438 109.76 18.5123 109.76 18.0376ZM113.115 29.9043C112.988 29.9474 112.775 29.9474 112.521 29.9906C112.266 30.0337 111.968 30.0769 111.714 30.0769C111.416 30.0769 111.204 30.0769 110.949 30.0337C110.737 29.9906 110.524 29.9043 110.397 29.818C110.227 29.6885 110.142 29.559 110.057 29.3433C109.972 29.1275 109.93 28.8686 109.93 28.5666V20.7561C110.057 20.713 110.269 20.713 110.524 20.6698C110.779 20.6267 111.076 20.5835 111.331 20.5835C111.629 20.5835 111.841 20.5835 112.096 20.6267C112.308 20.6698 112.521 20.7561 112.648 20.8424C112.818 20.9719 112.903 21.1013 112.988 21.3171C113.073 21.5329 113.115 21.7918 113.115 22.0938V29.9043Z" fill="#ED1C24"/>
    <path d="M116.088 27.5307C115.96 27.2286 115.79 26.8403 115.663 26.4519C115.493 26.0636 115.323 25.5889 115.153 25.0711C114.983 24.5533 114.813 23.9923 114.643 23.3019C114.474 22.6546 114.261 21.8779 114.049 21.0148C114.219 20.8422 114.474 20.6696 114.771 20.5402C115.068 20.4107 115.408 20.3244 115.748 20.3244C116.173 20.3244 116.555 20.4107 116.852 20.5833C117.149 20.7559 117.362 21.1011 117.489 21.6189L118.976 26.8834H119.061C119.231 26.4519 119.358 25.9773 119.486 25.4594C119.613 24.9416 119.783 24.4238 119.91 23.8628C120.038 23.3019 120.165 22.784 120.293 22.2231C120.42 21.6621 120.505 21.1443 120.59 20.6265C121.057 20.3676 121.524 20.2812 122.076 20.2812C122.501 20.2812 122.883 20.3676 123.181 20.5833C123.478 20.7559 123.606 21.1011 123.606 21.5758C123.606 21.921 123.563 22.3094 123.478 22.784C123.393 23.2587 123.266 23.7334 123.138 24.2512C123.011 24.769 122.841 25.2868 122.629 25.8478C122.416 26.4088 122.246 26.9266 122.034 27.4444C121.822 27.9622 121.609 28.48 121.354 28.9116C121.142 29.3862 120.887 29.8177 120.675 30.163C120.335 30.7671 119.995 31.2849 119.698 31.7164C119.401 32.1048 119.103 32.4068 118.848 32.6657C118.551 32.8815 118.296 33.0541 117.999 33.1404C117.702 33.2267 117.447 33.2699 117.149 33.2699C116.64 33.2699 116.215 33.0973 115.875 32.7952C115.535 32.4931 115.366 32.0616 115.281 31.5438C115.663 31.2417 116.088 30.8534 116.47 30.465C116.852 30.0766 117.234 29.6883 117.574 29.2568C117.362 29.2136 117.149 29.041 116.895 28.8253C116.64 28.6095 116.385 28.2211 116.088 27.5307Z" fill="#ED1C24"/>
    <path d="M129.34 30.2499C128.618 30.2499 127.896 30.1636 127.259 29.9478C126.622 29.732 126.07 29.43 125.602 28.9985C125.135 28.567 124.753 28.0491 124.498 27.4019C124.243 26.7546 124.073 26.021 124.073 25.158C124.073 24.295 124.201 23.6045 124.498 23.0004C124.753 22.3963 125.135 21.8785 125.56 21.4901C125.985 21.1017 126.494 20.7997 127.089 20.6271C127.641 20.4545 128.236 20.3682 128.83 20.3682C129.51 20.3682 130.105 20.4545 130.657 20.6702C131.209 20.886 131.676 21.1449 132.058 21.5333C132.441 21.8785 132.78 22.31 132.993 22.8278C133.205 23.3456 133.333 23.8634 133.333 24.4676C133.333 24.8991 133.205 25.2443 132.993 25.46C132.738 25.6758 132.441 25.8484 131.973 25.8916L127.301 26.582C127.429 27.0135 127.726 27.3156 128.151 27.5313C128.576 27.7471 129.085 27.8334 129.637 27.8334C130.147 27.8334 130.657 27.7471 131.081 27.6176C131.549 27.4882 131.931 27.3156 132.186 27.143C132.398 27.2724 132.568 27.445 132.695 27.6608C132.823 27.8765 132.908 28.1354 132.908 28.3944C132.908 28.9553 132.653 29.3868 132.101 29.6889C131.719 29.9047 131.251 30.0341 130.742 30.1204C130.232 30.2067 129.765 30.2499 129.34 30.2499ZM128.788 22.6983C128.491 22.6983 128.236 22.7415 128.023 22.871C127.811 22.9573 127.641 23.0867 127.471 23.2593C127.344 23.4319 127.216 23.6045 127.174 23.7771C127.089 23.9929 127.046 24.1655 127.046 24.3813L130.274 23.8634C130.232 23.6045 130.105 23.3456 129.85 23.0867C129.637 22.8278 129.255 22.6983 128.788 22.6983Z" fill="#ED1C24"/>
    <path d="M18.5672 12.0389C18.6097 11.7368 18.5672 11.4347 18.3973 11.0032C18.2274 10.5717 17.9726 10.3128 17.7177 10.1402C17.5903 10.0539 17.4629 10.0107 17.3355 10.0107C17.2505 10.0107 17.1231 10.0539 16.9957 10.097C16.7408 10.2265 16.6134 10.3991 16.5284 10.658C16.4435 10.9601 16.5284 11.3053 16.6983 11.7368C16.8682 12.1683 17.0806 12.4704 17.3355 12.5998C17.5478 12.7293 17.8027 12.7293 18.0575 12.5998C18.3548 12.5135 18.5247 12.2978 18.5672 12.0389Z" fill="#ED1C24"/>
    <path d="M19.2474 0.000185289C11.3896 -0.0429663 9.26593 7.4654 1.4082 7.42225C3.61686 12.8162 4.67872 15.5347 6.8449 20.9287C11.3047 20.9287 14.023 18.728 16.7414 16.4841C16.9962 16.2683 17.2511 16.0526 17.5059 15.8368C17.6334 15.2758 17.8032 14.7149 17.9731 14.1539C17.8032 14.197 17.5909 14.2402 17.421 14.2402C17.3785 14.2402 17.336 14.2402 17.2936 14.2402C16.8263 14.197 16.4016 14.0676 16.0193 13.7655C15.6371 13.4635 15.3397 13.032 15.1274 12.5141C14.915 11.9963 14.8301 11.4785 14.8725 10.9607C14.915 10.4429 15.0849 10.0113 15.3397 9.62298C15.5946 9.23462 15.9769 8.93255 16.4441 8.75995C17.1237 8.45789 17.8032 8.45789 18.4828 8.7168C19.1199 8.97571 19.5872 9.49352 19.9694 10.1839C20.3942 9.49352 20.9039 8.84625 21.456 8.24213C21.7109 7.94007 22.0082 7.68116 22.263 7.3791C21.2012 4.79001 19.8845 1.55364 19.2474 0.000185289ZM10.1579 12.0826C9.8181 12.2552 9.43583 12.3415 9.09604 12.3415C8.75624 12.3415 8.45892 12.2552 8.11913 12.1258C7.48201 11.8237 6.97232 11.3059 6.59006 10.5723C6.20779 9.79559 6.16531 9.10516 6.42016 8.45789C6.675 7.81061 7.1847 7.2928 7.90676 6.94758C8.62882 6.60237 9.30841 6.55922 9.94552 6.77498C10.5826 7.03389 11.0923 7.5517 11.4321 8.37158C11.7719 9.14831 11.8144 9.92504 11.5595 10.6155C11.3047 11.2627 10.8375 11.7806 10.1579 12.0826ZM14.1505 10.486C13.7682 12.1689 13.3859 13.895 13.216 16.1389C13.216 16.182 13.1736 16.2252 13.1311 16.2683C12.5789 16.5704 12.2816 16.6998 11.7719 16.9587C11.7294 16.9587 11.7294 16.9587 11.687 16.9587C11.6445 16.9587 11.6445 16.9587 11.602 16.9156C11.5595 16.8724 11.5171 16.8293 11.5171 16.7861C11.602 14.197 12.0268 12.3415 12.494 10.3566C12.8762 8.67365 13.2585 6.94758 13.4284 4.7037C13.4284 4.66055 13.4709 4.6174 13.5134 4.57425C14.0655 4.27219 14.3628 4.14273 14.8725 3.88382C14.915 3.84067 15 3.88382 15.0424 3.88382C15.0849 3.92698 15.1274 3.97013 15.1274 4.01328C14.9999 6.64552 14.5752 8.54419 14.1505 10.486Z" fill="#ED1C24"/>
    <path d="M9.18109 8.19861C9.05367 8.11231 8.92625 8.1123 8.79883 8.1123C8.6714 8.1123 8.54398 8.15546 8.41656 8.19861C8.16171 8.32806 7.99182 8.50067 7.94934 8.75958C7.86439 9.06164 7.94934 9.3637 8.11924 9.79522C8.28913 10.2267 8.54398 10.4856 8.79883 10.6582C9.05367 10.7877 9.26604 10.8309 9.52089 10.7014C9.77573 10.5719 9.90315 10.3993 9.9881 10.1404C10.0306 9.83837 9.9881 9.49315 9.81821 9.06164C9.64831 8.63012 9.43594 8.37121 9.18109 8.19861Z" fill="#ED1C24"/>
    <path d="M11.4314 8.3262C11.0916 7.54948 10.5819 6.98851 9.94478 6.7296C9.30766 6.47069 8.62808 6.51384 7.90602 6.9022C7.18396 7.24742 6.67426 7.76524 6.41942 8.41251C6.16457 9.05978 6.20705 9.75021 6.58932 10.5269C6.97158 11.3037 7.48127 11.8215 8.11839 12.0804C8.45818 12.2098 8.7555 12.2961 9.09529 12.2961C9.43509 12.2961 9.77488 12.2098 10.1571 12.0372C10.8367 11.7352 11.3464 11.2174 11.5588 10.5269C11.8136 9.87966 11.7712 9.14608 11.4314 8.3262ZM10.0297 10.1817C9.98725 10.4406 9.81736 10.6564 9.56251 10.7427C9.30766 10.829 9.09529 10.829 8.84045 10.6995C8.5856 10.5701 8.37323 10.268 8.16086 9.83651C7.99097 9.40499 7.90602 9.05978 7.99096 8.80087C8.03344 8.54196 8.20334 8.32621 8.45818 8.2399C8.5856 8.19675 8.71303 8.1536 8.84045 8.1536C8.96787 8.1536 9.09529 8.19675 9.22272 8.2399C9.47756 8.36936 9.68993 8.67142 9.85983 9.10293C10.0297 9.4913 10.0722 9.87966 10.0297 10.1817Z" fill="white"/>
    <path d="M18.4403 8.71654C17.7607 8.41448 17.1236 8.41448 16.4015 8.75969C15.9343 8.97545 15.5945 9.27751 15.2972 9.62272C15.0423 10.0111 14.8724 10.4426 14.83 10.9604C14.7875 11.4351 14.8724 11.9529 15.0848 12.5139C15.2972 13.0317 15.5945 13.4632 15.9768 13.7653C16.359 14.0673 16.7838 14.2399 17.251 14.2399C17.2935 14.2399 17.3359 14.2399 17.3784 14.2399C17.5483 14.2399 17.7607 14.1968 17.973 14.1536C18.1005 13.8084 18.2279 13.4632 18.3553 13.118C18.4827 12.7728 18.6526 12.4276 18.7801 12.1255C18.95 11.7803 19.1199 11.4782 19.2897 11.1762C19.4596 10.8741 19.672 10.5289 19.8844 10.2268C19.5446 9.49327 19.0774 8.97545 18.4403 8.71654ZM17.3784 12.6002C17.1236 12.4707 16.9112 12.1687 16.7413 11.7371C16.5714 11.3056 16.4864 10.9173 16.5714 10.6584C16.6139 10.3994 16.7838 10.1837 17.0386 10.0974C17.166 10.0542 17.251 10.0111 17.3784 10.0111C17.5058 10.0111 17.6333 10.0542 17.7607 10.1405C18.0155 10.27 18.2279 10.5721 18.4403 11.0036C18.6102 11.4351 18.6951 11.7803 18.6102 12.0392C18.5677 12.2981 18.3978 12.5139 18.1429 12.6002C17.8456 12.7296 17.6333 12.7296 17.3784 12.6002Z" fill="white"/>
    <path d="M14.873 3.97014C14.3209 4.22905 14.066 4.35851 13.5139 4.66057C13.4714 4.70372 13.4289 4.74687 13.4289 4.79002C13.2165 7.0339 12.8343 8.75996 12.4945 10.4429C12.0697 12.4278 11.645 14.2834 11.5176 16.8725C11.5176 16.9156 11.5601 16.9588 11.6025 17.0019C11.645 17.0019 11.645 17.0451 11.6875 17.0451C11.7299 17.0451 11.7299 17.0451 11.7724 17.0451C12.3246 16.7862 12.5794 16.6567 13.1316 16.3546C13.1741 16.3115 13.2165 16.2683 13.2165 16.2252C13.4289 13.9813 13.8112 12.2552 14.151 10.5723C14.5757 8.58736 15.0005 6.73184 15.1279 4.1859C15.1279 4.14275 15.0854 4.0996 15.0429 4.05645C15.0005 3.92699 14.9155 3.92699 14.873 3.97014Z" fill="white"/>
    <path d="M6.84442 20.9294C7.6939 20.9294 8.45844 20.8431 9.1805 20.7136L3.87122 7.16406C3.10669 7.33667 2.29968 7.42297 1.4502 7.42297C3.61638 12.8169 4.67824 15.5355 6.84442 20.9294Z" fill="#BE1E2D"/>
    <path d="M55.2216 12.1696C53.4802 16.2259 50.2946 19.5486 47.1091 20.6273C47.279 12.7738 41.4175 6.08528 33.6447 5.56746C25.6596 5.04964 19.0336 11.2203 18.2691 19.2896C18.0567 21.7061 18.6513 24.5973 19.7132 27.661C19.8831 28.1789 19.7981 28.7398 19.4584 29.1282C18.3115 30.5522 16.9099 31.631 15.5507 32.7529C14.4464 33.6591 13.1297 33.2276 12.2802 33.1844C12.6625 34.0043 12.4076 35.342 11.8555 36.2482C12.4076 37.2838 12.6625 38.6215 13.5969 39.312C15.3808 37.3701 18.439 36.3345 19.8831 35.9461C20.86 35.6441 23.0687 35.5578 23.8757 36.9818C26.3816 41.7284 29.0575 45.8278 30.2468 47.5971C30.5441 48.0717 31.2237 48.1149 31.606 47.6834C33.6872 45.2669 39.8035 37.9311 43.7111 30.7248C44.2633 29.7323 45.1128 28.8693 46.1321 28.4378C53.6076 25.1151 56.7082 18.7287 58.1523 13.6368C57.3029 13.4642 55.2216 12.1696 55.2216 12.1696Z" fill="#00A79D"/>
    <path d="M48.4262 25.5457C47.2794 26.2793 45.8353 25.3299 46.0477 23.9923C46.345 22.223 46.5149 20.1518 46.0902 19.1161C46.0052 18.8572 45.538 18.9435 45.538 19.2024C44.9009 28.6095 34.5796 39.1384 32.371 41.9864C31.7764 42.7632 30.672 42.7632 30.0349 42.0728C27.0617 38.7501 24.7681 34.6507 22.3046 30.9828C22.1347 30.7239 21.9648 30.8102 22.0073 31.1123C22.0922 33.1835 16.5706 36.3767 15.3388 35.3843C15.0415 35.1254 15.2114 34.9527 15.2114 34.5212C15.2114 34.1329 14.4044 34.0466 14.4469 33.6582C14.4894 33.5287 14.4894 33.3561 14.4894 33.2267C13.6823 33.3993 12.8329 33.1835 12.2382 33.1404C12.6205 33.9171 12.3656 35.298 11.8135 36.2041C12.3656 37.2398 12.6205 38.5775 13.5549 39.2679C15.3388 37.3261 18.397 36.2904 19.8411 35.9021C20.818 35.6 23.0267 35.5137 23.8337 36.9377C26.3397 41.6844 29.0155 45.7838 30.2048 47.553C30.5021 48.0277 31.1817 48.0708 31.564 47.6393C33.6452 45.2228 39.804 37.8439 43.6691 30.6807C44.2638 29.602 45.1557 28.8252 46.2601 28.3074C52.4613 25.5026 55.6044 20.6264 57.3033 16.1387C55.6469 16.8291 53.2258 22.4388 48.4262 25.5457Z" fill="#009C92"/>
    <path d="M2.38455 6.12732L16.9532 42.9787C17.0382 43.1513 16.9532 43.3239 16.7833 43.4102L15.8489 43.7986C15.679 43.8849 15.5091 43.7986 15.4241 43.626L0.0484688 7.07665C-0.0789538 6.77459 0.0484688 6.42938 0.388262 6.29993L1.66249 5.78211C1.91733 5.6958 2.25713 5.82526 2.38455 6.12732Z" fill="#ED1C24"/>
    <path d="M16.9534 42.9798L16.6136 42.0736C15.9765 42.2462 15.4668 41.7284 15.127 40.9948L14.8297 40.3475C14.235 38.7078 13.7254 34.9536 12.3237 34.3926L0.643303 6.43042C0.600829 6.34412 0.558354 6.30096 0.51588 6.25781L0.388458 6.30096C0.0911381 6.43042 -0.0787587 6.77563 0.0486639 7.07769L15.4243 43.627C15.5093 43.7997 15.6792 43.886 15.8491 43.7997L16.7835 43.4113C16.9109 43.325 16.9959 43.1524 16.9534 42.9798Z" fill="#BE1E2D"/>
    <path d="M14.321 38.2741C14.2361 37.9289 13.7688 37.67 13.4715 37.7994C13.4715 37.7994 13.4715 37.67 13.5565 37.4974C13.6839 37.0658 13.5565 36.6343 13.1317 36.4186C13.0043 36.3323 12.622 36.3754 12.622 36.3754C12.622 36.3754 13.1317 35.7713 13.0043 35.2966C12.9618 35.0809 12.707 34.822 12.4946 34.6925C12.2398 34.5631 11.9 34.5199 11.6027 34.5631C11.2204 34.6062 10.8381 34.7788 10.5408 35.0377C10.3709 35.1672 10.201 35.3829 10.1161 35.6418C9.98863 36.0734 10.1585 36.6775 10.5408 36.8932C10.5833 36.9364 10.6257 36.9364 10.6682 36.9364C10.7107 36.9364 10.7107 36.9364 10.7532 36.9795C10.7107 37.0227 10.7107 37.109 10.6682 37.1953C10.5408 37.8857 10.9231 38.6193 11.6027 38.7488C11.6876 38.7488 11.7725 38.7488 11.8575 38.7488C11.8575 38.7919 11.8575 38.8782 11.8575 38.9214C11.8575 39.094 11.9 39.2234 11.9424 39.3097C12.0274 39.5686 12.2822 39.6981 12.4946 39.7412C12.707 39.7844 12.8769 39.7412 13.0892 39.6981C13.3441 39.6118 13.6414 39.5255 13.8538 39.3097C14.1511 39.0077 14.4059 38.6625 14.321 38.2741Z" fill="#00A79D"/>
    <path d="M13.5137 37.8016C13.5137 37.8016 13.5137 37.6722 13.5987 37.4996C13.7261 37.068 13.5987 36.6365 13.1739 36.4208C13.0465 36.3345 12.6642 36.3776 12.6642 36.3776C12.6642 36.3776 13.1739 35.7735 13.0465 35.2988C13.004 35.0831 12.7492 34.8242 12.5368 34.6947C12.4518 34.6516 12.4094 34.6515 12.3244 34.6084C12.4518 35.0399 12.3669 35.6009 12.197 35.9461C11.8572 36.6365 11.0927 36.8523 10.4131 36.6797C10.4556 36.766 10.5405 36.8091 10.6255 36.8523C10.6679 36.8954 10.7104 36.8954 10.7529 36.8954C10.7954 36.8954 10.7954 36.8954 10.8378 36.9386C10.8378 36.9817 10.7954 37.068 10.7529 37.1112C10.7954 37.1112 10.7954 37.1112 10.8378 37.068C11.2201 37.0249 11.7723 37.0249 12.0696 36.6797C12.0696 36.6365 12.1121 36.6365 12.1545 36.6365C12.2395 36.5071 12.3669 36.4639 12.5368 36.5502C13.004 36.8523 12.9615 37.4133 12.6217 37.6722C12.1545 38.1037 11.3475 37.9311 10.7954 37.7153C10.9228 38.19 11.2201 38.5783 11.7298 38.6646C11.8572 38.7078 12.0271 38.7078 12.197 38.6646C13.1739 38.492 13.3438 38.19 13.3438 38.19C13.4288 38.0174 14.0234 38.2763 13.9809 38.4489C13.9809 39.1825 12.3244 39.3119 12.0696 39.3119H12.0271C12.1545 39.5277 12.3669 39.6571 12.5793 39.7003C12.7916 39.7434 12.9615 39.7003 13.1739 39.6571C13.4288 39.5708 13.7261 39.4845 13.9384 39.2688C14.1508 39.053 14.4057 38.6646 14.3632 38.3194C14.2782 37.9311 13.811 37.6722 13.5137 37.8016Z" fill="#009C92"/>
    <path d="M12.2392 32.5357C12.0268 32.6652 11.8994 32.8809 11.8994 33.0967C11.8994 33.3987 12.1118 33.6576 12.3666 33.7871C12.8763 34.0892 13.2586 33.8303 13.6833 34.7364C13.8957 35.1679 15.2549 33.2693 14.8726 33.1398C14.1505 32.8809 13.386 32.4926 12.579 32.4062C12.4516 32.4494 12.3666 32.4494 12.2392 32.5357Z" fill="#00A79D"/>
    <path d="M12.9188 33.4851C12.5365 33.3125 12.1967 33.0104 12.1118 32.6221C11.9844 32.7515 11.8994 32.9241 11.8994 33.0967C11.8994 33.3988 12.1118 33.6577 12.3666 33.7872C12.8763 34.0892 13.2586 33.8303 13.6833 34.7365C13.8108 34.9954 14.278 34.4776 14.6178 33.9598C14.0231 33.9166 13.4285 33.7009 12.9188 33.4851Z" fill="#009C92"/>
    <path d="M26.212 20.4551C26.6367 20.9729 27.019 21.5339 27.5711 21.8791C28.0384 22.3106 28.5905 22.6558 29.1002 22.9579C30.1621 23.562 31.3089 23.9935 32.4981 24.1661C33.6449 24.3819 34.8342 24.3387 36.0235 24.0798C36.1509 24.0367 36.3208 24.0367 36.4482 23.9935L36.873 23.8209C37.1703 23.7346 37.4252 23.6051 37.7225 23.4757C37.9773 23.3462 38.2746 23.2168 38.572 23.0442C38.8268 22.8716 39.1241 22.699 39.379 22.5264C39.2091 24.6839 38.1047 26.2805 36.7031 27.3162C35.3014 28.3087 33.6025 28.6539 32.0309 28.395C30.4594 28.1361 28.9728 27.273 27.826 25.9353C27.2738 25.2449 26.8066 24.4682 26.4668 23.5188C26.3819 23.2599 26.3394 23.0442 26.2544 22.8284C26.212 22.5695 26.1695 22.3106 26.127 22.0517C26.0845 21.5339 26.127 20.9297 26.212 20.4551Z" fill="#009C92"/>
    <path d="M26.2542 19.5488C26.6789 20.0235 27.1037 20.455 27.6134 20.8002C28.0806 21.1886 28.6327 21.4906 29.1849 21.7496C30.2892 22.2674 31.436 22.6557 32.6678 22.7852C33.8571 23.001 35.0888 22.9146 36.2781 22.6989C36.448 22.6557 36.5754 22.6557 36.7453 22.6126L37.17 22.4831C37.4674 22.3968 37.7647 22.3105 38.0195 22.1811C38.3168 22.0516 38.6142 21.9653 38.869 21.7927C39.1239 21.6201 39.4212 21.4906 39.7185 21.3612C39.5486 23.2167 38.4018 24.6839 37.0001 25.5469C35.556 26.4099 33.8146 26.712 32.2006 26.4962C30.5865 26.2805 29.0575 25.5037 27.9107 24.3386C27.3585 23.7345 26.8488 23.0441 26.5515 22.2242C26.4665 22.0085 26.4241 21.7927 26.3391 21.6201C26.2967 21.4043 26.2542 21.1886 26.2117 20.9297C26.0843 20.4982 26.1268 19.9803 26.2542 19.5488Z" fill="white"/>
    <path d="M31.4788 13.7239C31.0965 12.6451 30.0346 12.2136 29.1002 12.7746C27.5287 13.6807 28.0383 17.2192 30.1196 16.615C31.2239 16.313 31.861 14.8027 31.4788 13.7239Z" fill="#009C92"/>
    <path d="M35.1311 15.2335C35.3859 14.8883 35.6833 14.6725 36.0231 14.4999C36.3629 14.3273 36.7451 14.2842 37.1274 14.2842C37.5097 14.2842 37.8494 14.3705 38.1892 14.4999C38.3591 14.5862 38.4866 14.6725 38.6565 14.7157C38.7839 14.802 38.9113 14.9315 39.0387 15.0178C39.2936 15.2335 39.336 15.665 39.0812 15.9239C38.9113 16.0965 38.6565 16.1828 38.4441 16.0965H38.3591C38.1043 16.0102 37.8919 15.9671 37.6795 15.8808C37.4672 15.8376 37.2548 15.7945 37.0849 15.7945C36.915 15.7945 36.7026 15.8376 36.5327 15.8376C36.3628 15.8808 36.1505 15.9671 36.0231 16.0102L35.7257 16.0965C35.4284 16.1828 35.0886 15.9671 35.0461 15.665C34.9612 15.5356 35.0037 15.363 35.1311 15.2335Z" fill="#009C92"/>
    <path d="M31.4788 13.1194C31.0965 12.0406 30.0346 11.6091 29.1002 12.1701C27.5287 13.0762 28.0383 16.6147 30.1196 16.0105C31.2239 15.7085 31.861 14.155 31.4788 13.1194Z" fill="white"/>
    <path d="M35.1311 14.5861C35.3859 14.2408 35.6833 14.0251 36.0231 13.8525C36.3629 13.6799 36.7451 13.6367 37.1274 13.6367C37.5097 13.6367 37.8494 13.723 38.1892 13.8525C38.3591 13.9388 38.4866 14.0251 38.6565 14.0682C38.7839 14.1545 38.9113 14.284 39.0387 14.3703C39.2936 14.5861 39.336 15.0176 39.0812 15.2765C38.9113 15.4491 38.6565 15.5354 38.4441 15.4491H38.3591C38.1043 15.3628 37.8919 15.3196 37.6795 15.2333C37.4672 15.1902 37.2548 15.147 37.0849 15.147C36.915 15.147 36.7026 15.1902 36.5327 15.1902C36.3628 15.2333 36.1505 15.3196 36.0231 15.3628L35.7257 15.5354C35.4284 15.6217 35.0886 15.4059 35.0461 15.1039C34.9612 14.9313 35.0037 14.7155 35.1311 14.5861Z" fill="white"/>
    <path d="M60.7438 11.9531C60.3191 11.651 59.8943 11.9531 59.5545 12.2983C59.5121 12.3414 59.4696 12.2983 59.5121 12.2551C60.9562 10.227 59.8094 8.84616 58.3228 10.8311C58.2803 10.8743 58.1954 10.8311 58.2378 10.788C58.5351 9.83864 58.5776 8.41464 57.4733 8.75986C56.4964 9.06192 56.5813 11.0037 55.7743 11.4353C53.4382 7.24955 53.863 15.1463 54.9248 16.0956C56.4539 17.5196 60.4465 14.3264 61.0411 12.7298C61.0836 12.4277 60.9987 12.0825 60.7438 11.9531Z" fill="#00A79D"/>
    <path d="M31.3524 52.7323C37.4749 52.7323 42.4381 52.172 42.4381 51.4809C42.4381 50.7898 37.4749 50.2295 31.3524 50.2295C25.2299 50.2295 20.2666 50.7898 20.2666 51.4809C20.2666 52.172 25.2299 52.7323 31.3524 52.7323Z" fill="#E6E7E8"/>
</svg>
