<svg width="53" height="19" viewBox="0 0 53 19" fill="none" xmlns="http://www.w3.org/2000/svg">
    <path d="M22.4477 11.9246C22.4771 11.968 22.5212 12.0402 22.5506 12.1269C22.5799 12.2136 22.5946 12.3003 22.5946 12.387C22.5946 12.5604 22.5506 12.6905 22.4624 12.7628C22.3742 12.835 22.2714 12.8784 22.1244 12.8784H20.5227V13.6443H22.1979C22.242 13.6876 22.2714 13.7599 22.3007 13.8466C22.3301 13.9333 22.3448 14.02 22.3448 14.1067C22.3448 14.2801 22.3007 14.4101 22.2126 14.4824C22.1244 14.5547 22.0215 14.598 21.8746 14.598H20.5374V16.0431C20.4786 16.0575 20.3904 16.072 20.2729 16.0864C20.1553 16.1009 20.0378 16.1009 19.9202 16.1009C19.8026 16.1009 19.6998 16.0864 19.6116 16.072C19.5234 16.0575 19.45 16.0286 19.3912 15.9853C19.3324 15.9419 19.2883 15.8841 19.2589 15.8119C19.2295 15.7396 19.2148 15.6385 19.2148 15.5229V12.546C19.2148 12.3437 19.2736 12.1992 19.4059 12.0836C19.5381 11.968 19.6998 11.9102 19.9202 11.9102H22.4477V11.9246Z" fill="white"/>
    <path d="M22.6094 12.7912C22.6535 12.7768 22.7417 12.7623 22.8445 12.7478C22.9474 12.7334 23.065 12.7334 23.1825 12.7334C23.3001 12.7334 23.3882 12.7334 23.4911 12.7478C23.5793 12.7623 23.6527 12.7912 23.7115 12.8346C23.7703 12.8779 23.8144 12.9357 23.8585 13.008C23.8879 13.0802 23.9026 13.1669 23.9026 13.2825V14.7421C23.9026 14.9299 23.9466 15.06 24.0495 15.1467C24.1524 15.2334 24.2993 15.2623 24.4904 15.2623C24.6079 15.2623 24.6961 15.2478 24.7842 15.2334C24.8577 15.2189 24.9165 15.19 24.9606 15.1756V12.7912C25.0047 12.7768 25.0928 12.7623 25.1957 12.7478C25.2986 12.7334 25.4161 12.7334 25.5337 12.7334C25.6512 12.7334 25.7394 12.7334 25.8423 12.7478C25.9304 12.7623 26.0039 12.7912 26.0627 12.8346C26.1215 12.8779 26.1656 12.9357 26.2096 13.008C26.239 13.0802 26.2537 13.1669 26.2537 13.2825V15.349C26.2537 15.5802 26.1509 15.7536 25.9304 15.8548C25.7541 15.9559 25.5337 16.0282 25.2986 16.086C25.0488 16.1438 24.7842 16.1582 24.4904 16.1582C24.2112 16.1582 23.9613 16.1293 23.7262 16.0715C23.4911 16.0137 23.3001 15.927 23.1237 15.8259C22.9621 15.7103 22.8298 15.5658 22.727 15.3923C22.6388 15.2189 22.5947 15.0022 22.5947 14.7421V12.7912H22.6094Z" fill="white"/>
    <path d="M29.0309 13.9478C29.0309 13.8033 28.9868 13.7022 28.8986 13.6444C28.8104 13.5721 28.6929 13.5432 28.5312 13.5432C28.4284 13.5432 28.3255 13.5577 28.2226 13.5721C28.1198 13.601 28.0316 13.6299 27.9728 13.6733V16.0432C27.9287 16.0577 27.8406 16.0721 27.7377 16.0866C27.6348 16.101 27.5173 16.101 27.3997 16.101C27.2822 16.101 27.194 16.101 27.0911 16.0866C27.003 16.0721 26.9295 16.0432 26.8707 15.9998C26.8119 15.9565 26.7679 15.8987 26.7238 15.8264C26.6944 15.7542 26.6797 15.6675 26.6797 15.5519V13.5143C26.6797 13.3987 26.7091 13.2975 26.7679 13.2108C26.8266 13.1386 26.9001 13.0663 27.003 12.9941C27.1793 12.8785 27.3997 12.7918 27.6495 12.734C27.914 12.6617 28.2079 12.6328 28.5312 12.6328C29.1043 12.6328 29.5452 12.7484 29.8685 12.9652C30.177 13.1964 30.3387 13.4999 30.3387 13.9045V16.0432C30.2946 16.0577 30.2064 16.0721 30.1036 16.0866C30.0007 16.101 29.8831 16.101 29.7656 16.101C29.648 16.101 29.5599 16.101 29.457 16.0866C29.3688 16.0721 29.2954 16.0432 29.2366 15.9998C29.1778 15.9565 29.1337 15.8987 29.0896 15.8264C29.0602 15.7542 29.0455 15.6675 29.0455 15.5519V13.9478H29.0309Z" fill="white"/>
    <path d="M35.071 13.4701C35.1739 13.4267 35.2621 13.4122 35.3355 13.3978C35.4237 13.3833 35.5119 13.3689 35.5853 13.3689C35.7029 13.3689 35.8058 13.3833 35.8792 13.4122C35.9527 13.4411 36.0115 13.4845 36.0556 13.5423C36.0997 13.6001 36.129 13.6724 36.1437 13.7446C36.1584 13.8169 36.1731 13.9036 36.1731 13.9903C36.1731 14.3515 36.0703 14.7128 35.8645 15.0452L36.4523 15.551C36.4376 15.7244 36.3789 15.8689 36.2466 15.97C36.129 16.0856 35.9821 16.129 35.8058 16.129C35.6 16.129 35.409 16.0423 35.2033 15.8689L35.0563 15.7533C34.8653 15.8689 34.6596 15.97 34.4098 16.0423C34.1746 16.1145 33.8954 16.1434 33.6015 16.1434C33.3076 16.1434 33.0431 16.1145 32.808 16.0423C32.5729 15.97 32.3819 15.8689 32.2202 15.7533C32.0586 15.6377 31.941 15.4932 31.8676 15.3198C31.7794 15.1608 31.75 14.9729 31.75 14.7706C31.75 14.5972 31.7794 14.4527 31.8382 14.3226C31.8969 14.1926 31.9704 14.077 32.0586 13.9758C32.1468 13.8747 32.2496 13.788 32.3672 13.7157C32.4847 13.6435 32.5876 13.5857 32.7052 13.5423C32.6023 13.4267 32.5288 13.3111 32.4847 13.1955C32.4407 13.0799 32.426 12.9498 32.426 12.8487C32.426 12.7042 32.4553 12.5741 32.5288 12.4585C32.6023 12.3429 32.6905 12.2273 32.808 12.1406C32.9256 12.0539 33.0725 11.9816 33.2489 11.9238C33.4252 11.8805 33.6309 11.8516 33.8514 11.8516C34.1746 11.8516 34.3951 11.9094 34.5273 12.0105C34.6596 12.1117 34.733 12.2417 34.733 12.4007C34.733 12.4729 34.7183 12.5597 34.689 12.6319C34.6596 12.7042 34.6008 12.7764 34.542 12.8342C34.4832 12.8053 34.4245 12.7909 34.351 12.7764C34.2775 12.762 34.204 12.762 34.1159 12.762C33.9836 12.762 33.8807 12.7764 33.7926 12.8198C33.7044 12.8631 33.6603 12.9209 33.6603 13.0221C33.6603 13.0943 33.6897 13.1666 33.7632 13.2244C33.8367 13.2966 33.9101 13.3689 34.013 13.4556L34.9975 14.3082C35.0269 14.207 35.0416 14.0914 35.0563 13.9469C35.071 13.8024 35.071 13.6435 35.071 13.4701ZM32.9991 14.7128C32.9991 14.8718 33.0578 15.0018 33.1754 15.1174C33.293 15.2186 33.4693 15.2764 33.7044 15.2764C33.8073 15.2764 33.9101 15.2619 34.0277 15.233C34.1452 15.2041 34.2481 15.1608 34.351 15.103L33.3664 14.2215C33.2489 14.2648 33.146 14.3371 33.0872 14.4238C33.0284 14.525 32.9991 14.6117 32.9991 14.7128Z" fill="white"/>
    <path d="M39.2294 14.4097C39.009 14.3375 38.8032 14.2652 38.6122 14.2074C38.4359 14.1352 38.2742 14.0485 38.142 13.9473C38.0097 13.8462 37.9069 13.7305 37.8334 13.586C37.7599 13.4415 37.7158 13.2826 37.7158 13.0803C37.7158 12.6901 37.8775 12.3866 38.2154 12.1554C38.5534 11.9242 39.0237 11.8086 39.6114 11.8086C39.8319 11.8086 40.0376 11.823 40.2286 11.8519C40.4197 11.8808 40.5813 11.9242 40.7136 11.982C40.8458 12.0398 40.9487 12.1121 41.0368 12.1988C41.125 12.2855 41.1544 12.3866 41.1544 12.5022C41.1544 12.6178 41.125 12.719 41.0662 12.8057C41.0074 12.8924 40.934 12.9647 40.8458 13.0225C40.7282 12.9647 40.5813 12.9069 40.3903 12.8491C40.1992 12.8057 39.9935 12.7768 39.7731 12.7768C39.538 12.7768 39.3763 12.8057 39.2735 12.8635C39.1706 12.9213 39.1118 12.9936 39.1118 13.0803C39.1118 13.1525 39.1412 13.2103 39.2147 13.2537C39.2882 13.297 39.3763 13.3404 39.5086 13.3693L39.92 13.4849C40.405 13.6149 40.7723 13.7884 41.0221 14.0051C41.2867 14.2219 41.4042 14.5109 41.4042 14.8722C41.4042 15.2623 41.2279 15.5658 40.8899 15.8115C40.5519 16.0571 40.0523 16.1727 39.391 16.1727C39.1559 16.1727 38.9355 16.1583 38.7445 16.1149C38.5387 16.086 38.3624 16.0282 38.2154 15.9704C38.0685 15.8982 37.9509 15.8259 37.8628 15.7248C37.7746 15.6236 37.7305 15.508 37.7305 15.3924C37.7305 15.2623 37.7746 15.1467 37.8628 15.06C37.9509 14.9733 38.0391 14.9011 38.142 14.8433C38.2889 14.9444 38.4653 15.0311 38.671 15.1034C38.8767 15.1756 39.0971 15.219 39.3469 15.219C39.5968 15.219 39.7731 15.1901 39.876 15.1178C39.9788 15.0456 40.0229 14.9733 40.0229 14.8722C40.0229 14.7855 39.9788 14.7132 39.9053 14.6699C39.8172 14.6265 39.7143 14.5687 39.5674 14.5253L39.2294 14.4097Z" fill="white"/>
    <path d="M43.2408 12.6326C43.52 12.6326 43.7698 12.6615 43.9902 12.7049C44.2106 12.7482 44.4164 12.8349 44.578 12.9361C44.7396 13.0372 44.8572 13.1673 44.9454 13.3263C45.0335 13.4852 45.0776 13.6731 45.0776 13.8754V15.4072C45.0776 15.5228 45.0335 15.6239 44.9601 15.6962C44.8866 15.7684 44.7984 15.8407 44.6956 15.884C44.3576 16.0575 43.902 16.1442 43.2996 16.1442C43.035 16.1442 42.7852 16.1153 42.5648 16.0719C42.3444 16.0286 42.1681 15.9563 42.0064 15.8696C41.8448 15.7829 41.7272 15.6673 41.6537 15.5228C41.5803 15.3783 41.5215 15.2193 41.5215 15.0314C41.5215 14.7135 41.6243 14.4823 41.8301 14.3089C42.0358 14.1355 42.3591 14.0343 42.7999 13.991L43.7992 13.8898V13.8465C43.7992 13.7164 43.7404 13.6153 43.6081 13.5575C43.4759 13.4997 43.2849 13.4708 43.0497 13.4708C42.8587 13.4708 42.6677 13.4852 42.4913 13.5286C42.315 13.5719 42.1387 13.6153 41.9917 13.6586C41.9182 13.6153 41.8742 13.5575 41.8301 13.4708C41.786 13.3841 41.7566 13.2974 41.7566 13.2106C41.7566 13.095 41.786 12.9939 41.8595 12.9216C41.9182 12.8494 42.0211 12.7916 42.1534 12.7338C42.3003 12.6904 42.4766 12.6471 42.6824 12.6182C42.8734 12.6471 43.0644 12.6326 43.2408 12.6326ZM43.2996 15.3205C43.3877 15.3205 43.4759 15.306 43.5934 15.2916C43.6963 15.2771 43.7698 15.2482 43.8286 15.2338V14.6846L43.2849 14.728C43.1379 14.7424 43.0204 14.7713 42.9322 14.8147C42.844 14.858 42.7999 14.9303 42.7999 15.017C42.7999 15.1037 42.844 15.176 42.9175 15.2338C42.9763 15.2916 43.1232 15.3205 43.2996 15.3205Z" fill="white"/>
    <path d="M47.8846 15.9557C47.8111 15.9991 47.7083 16.0424 47.576 16.0713C47.4438 16.1002 47.2821 16.1147 47.1058 16.1147C46.9 16.1147 46.7384 16.0858 46.5915 16.0424C46.4445 15.9991 46.3416 15.9268 46.2829 15.8257C46.2388 15.7534 46.18 15.6378 46.1212 15.5077C46.0624 15.3632 45.989 15.2187 45.9155 15.0453C45.842 14.8719 45.7685 14.6985 45.6951 14.4962C45.6216 14.2939 45.5481 14.106 45.4746 13.9182C45.4012 13.7303 45.3424 13.5424 45.2836 13.369C45.2248 13.1956 45.1808 13.0367 45.1514 12.8921C45.2248 12.8343 45.313 12.7765 45.4453 12.7187C45.5628 12.6754 45.6951 12.6465 45.842 12.6465C46.0184 12.6465 46.1653 12.6754 46.2829 12.7476C46.4004 12.8199 46.4886 12.9355 46.5327 13.1234L46.8266 14.1638C46.8853 14.3661 46.9294 14.554 46.9882 14.7129C47.0323 14.8864 47.0764 15.002 47.1058 15.1031H47.1499C47.2527 14.7708 47.3556 14.395 47.4584 13.9904C47.5613 13.5858 47.6642 13.1812 47.7523 12.7765C47.8405 12.7332 47.9434 12.7043 48.0462 12.6754C48.1491 12.6465 48.2667 12.6465 48.3695 12.6465C48.5459 12.6465 48.6928 12.6754 48.8251 12.7476C48.9426 12.8199 49.0014 12.9355 49.0014 13.1089C49.0014 13.1812 48.9867 13.2823 48.9426 13.4268C48.8985 13.5713 48.8544 13.7158 48.7957 13.9037C48.7369 14.0771 48.6634 14.265 48.5899 14.4528C48.5165 14.6551 48.4283 14.843 48.3548 15.0309C48.2667 15.2187 48.1932 15.3921 48.1197 15.5511C48.0168 15.7245 47.9434 15.8546 47.8846 15.9557Z" fill="white"/>
    <path d="M51.1171 16.1588C50.8232 16.1588 50.544 16.1155 50.2795 16.0432C50.015 15.9709 49.7945 15.8553 49.6035 15.7108C49.4125 15.5663 49.2655 15.3785 49.148 15.1473C49.0451 14.916 48.9863 14.6559 48.9863 14.3525C48.9863 14.049 49.0451 13.7889 49.148 13.5721C49.2508 13.3554 49.3978 13.1819 49.5741 13.0374C49.7505 12.8929 49.9562 12.7918 50.1913 12.734C50.4264 12.6617 50.6615 12.6328 50.8966 12.6328C51.1612 12.6328 51.411 12.6762 51.6314 12.7484C51.8518 12.8207 52.0428 12.9218 52.2045 13.0519C52.3661 13.1819 52.4837 13.3265 52.5719 13.5143C52.66 13.6877 52.7041 13.89 52.7041 14.0923C52.7041 14.2513 52.66 14.3669 52.5572 14.4536C52.4543 14.5403 52.322 14.5837 52.1457 14.6126L50.2795 14.8438C50.3382 14.9883 50.4558 15.1039 50.6174 15.1762C50.7938 15.2484 50.9848 15.2918 51.2199 15.2918C51.4257 15.2918 51.6314 15.2629 51.8077 15.2195C51.9988 15.1762 52.1457 15.1183 52.2633 15.0461C52.3514 15.0894 52.4102 15.1617 52.469 15.234C52.5278 15.3062 52.5572 15.4074 52.5572 15.4941C52.5572 15.6964 52.4543 15.8553 52.2339 15.9565C52.0722 16.0287 51.8812 16.0866 51.6902 16.1155C51.4844 16.1444 51.2934 16.1588 51.1171 16.1588ZM50.8966 13.4854C50.7791 13.4854 50.6615 13.4999 50.5734 13.5432C50.4852 13.5866 50.4117 13.6299 50.3529 13.6877C50.2942 13.7455 50.2501 13.8033 50.2207 13.8756C50.1913 13.9478 50.1766 14.0201 50.1766 14.0923L51.4844 13.9045C51.4697 13.8178 51.411 13.7166 51.3228 13.6299C51.2346 13.5288 51.0877 13.4854 50.8966 13.4854Z" fill="white"/>
    <path d="M25.4467 7.50298C25.4173 7.45962 25.3879 7.38737 25.3585 7.31512C25.3291 7.22841 25.3145 7.14171 25.3145 7.055C25.3145 6.88159 25.3585 6.76599 25.432 6.69373C25.5055 6.62148 25.6083 6.57812 25.7259 6.57812H28.5767C28.6061 6.62148 28.6355 6.69373 28.6649 6.76599C28.6942 6.85269 28.7089 6.9394 28.7089 7.0261C28.7089 7.19951 28.6649 7.31512 28.5914 7.38737C28.5179 7.45962 28.415 7.50298 28.2975 7.50298H27.5774V10.4654C27.5334 10.4798 27.4599 10.4943 27.357 10.5087C27.2542 10.5232 27.1513 10.5232 27.0484 10.5232C26.9456 10.5232 26.8574 10.5087 26.7839 10.4943C26.7105 10.4798 26.637 10.4509 26.5929 10.4076C26.5341 10.3642 26.5047 10.3209 26.4753 10.2486C26.4459 10.1764 26.4313 10.0897 26.4313 9.97406V7.50298H25.4467Z" fill="white"/>
    <path d="M28.8564 7.41615C28.9005 7.4017 28.974 7.38725 29.0622 7.3728C29.1503 7.35835 29.2532 7.35835 29.3561 7.35835C29.4589 7.35835 29.5324 7.35835 29.6206 7.3728C29.694 7.38725 29.7675 7.41615 29.8116 7.44506C29.8704 7.48841 29.8998 7.53176 29.9292 7.60401C29.9586 7.67627 29.9732 7.76297 29.9732 7.86413V9.23695C29.9732 9.41036 30.0173 9.54042 30.1055 9.61267C30.1937 9.68493 30.3112 9.72828 30.4876 9.72828C30.5904 9.72828 30.6639 9.71383 30.7374 9.69938C30.7962 9.68493 30.8549 9.67048 30.8843 9.64158V7.41615C30.9284 7.4017 31.0019 7.38725 31.0901 7.3728C31.1782 7.35835 31.2811 7.35835 31.3839 7.35835C31.4868 7.35835 31.5603 7.35835 31.6485 7.3728C31.7219 7.38725 31.7954 7.41615 31.8395 7.44506C31.8983 7.48841 31.9277 7.53176 31.957 7.60401C31.9864 7.67627 32.0011 7.76297 32.0011 7.86413V9.81499C32.0011 10.0317 31.913 10.1907 31.7219 10.2919C31.575 10.393 31.3839 10.4508 31.1782 10.5086C30.9725 10.552 30.7374 10.5809 30.4876 10.5809C30.2524 10.5809 30.032 10.552 29.841 10.5086C29.65 10.4508 29.4736 10.3786 29.3267 10.2774C29.1797 10.1763 29.0769 10.0317 28.9887 9.85834C28.9152 9.68493 28.8711 9.48262 28.8711 9.2514V7.41615H28.8564ZM29.0916 6.4046C29.0916 6.26009 29.1503 6.13003 29.2532 6.01443C29.3561 5.89882 29.503 5.85547 29.6647 5.85547C29.841 5.85547 29.9879 5.91327 30.0908 6.01443C30.1937 6.13003 30.2524 6.26009 30.2524 6.4046C30.2524 6.54911 30.1937 6.67916 30.0908 6.79477C29.9879 6.91038 29.841 6.95373 29.6647 6.95373C29.5912 6.95373 29.5177 6.93928 29.4442 6.91038C29.3708 6.88147 29.312 6.83812 29.2679 6.79477C29.2238 6.75142 29.1797 6.69361 29.1503 6.62136C29.121 6.54911 29.0916 6.47685 29.0916 6.4046ZM30.5463 6.4046C30.5463 6.26009 30.5904 6.13003 30.6933 6.01443C30.7962 5.89882 30.9431 5.85547 31.1194 5.85547C31.2076 5.85547 31.2811 5.86992 31.3546 5.89882C31.428 5.92772 31.4868 5.97108 31.5309 6.01443C31.575 6.05778 31.6191 6.13003 31.6485 6.18784C31.6778 6.26009 31.6925 6.31789 31.6925 6.39015C31.6925 6.53466 31.6338 6.66471 31.5309 6.78032C31.428 6.89593 31.2811 6.93928 31.1194 6.93928C30.9431 6.93928 30.7962 6.88148 30.6933 6.78032C30.5904 6.67916 30.5463 6.54911 30.5463 6.4046Z" fill="white"/>
    <path d="M33.5875 10.4796C33.5434 10.494 33.4699 10.5085 33.3818 10.5229C33.2936 10.5374 33.1907 10.5374 33.0879 10.5374C32.985 10.5374 32.9115 10.5374 32.8234 10.5229C32.7499 10.5085 32.6764 10.4796 32.6323 10.4507C32.5736 10.4073 32.5442 10.364 32.5148 10.2917C32.4854 10.2194 32.4707 10.1327 32.4707 10.0316V8.09518C32.4707 7.99402 32.4854 7.90732 32.5295 7.83507C32.5736 7.76281 32.6177 7.70501 32.6911 7.64721C32.7646 7.5894 32.8528 7.54605 32.9556 7.5027C33.0585 7.45934 33.1614 7.41599 33.2789 7.38709C33.3965 7.35819 33.514 7.32929 33.6463 7.30039C33.7785 7.28594 33.8961 7.27148 34.0283 7.27148C34.2341 7.27148 34.3957 7.31484 34.528 7.38709C34.6455 7.45935 34.7043 7.5894 34.7043 7.77726C34.7043 7.83507 34.6896 7.89287 34.6749 7.95067C34.6602 8.00847 34.6308 8.06628 34.6161 8.10963C34.528 8.10963 34.4251 8.10963 34.3369 8.12408C34.2341 8.13853 34.1459 8.13853 34.0577 8.16743C33.9696 8.18188 33.8814 8.19634 33.7932 8.22524C33.7198 8.23969 33.6463 8.26859 33.5875 8.29749V10.4796Z" fill="white"/>
    <path d="M38.0995 9.9166C38.0848 10.1189 38.0114 10.2779 37.9232 10.379C37.8203 10.4802 37.6881 10.538 37.497 10.538C37.3648 10.538 37.2325 10.5091 37.1297 10.4368C37.0268 10.3646 36.9093 10.2634 36.777 10.1045L36.1304 9.30966V10.4802C36.0863 10.4946 36.0129 10.4946 35.9247 10.5091C35.8365 10.5235 35.7337 10.538 35.6455 10.538C35.5426 10.538 35.4692 10.538 35.381 10.5235C35.3075 10.5091 35.234 10.4802 35.19 10.4513C35.1312 10.4079 35.1018 10.3646 35.0724 10.2923C35.043 10.2201 35.0283 10.1334 35.0283 10.0322V6.31835C35.0724 6.3039 35.1459 6.28945 35.234 6.275C35.3222 6.26054 35.4251 6.24609 35.5132 6.24609C35.6161 6.24609 35.6896 6.24609 35.7778 6.26054C35.8512 6.275 35.9247 6.3039 35.9688 6.3328C36.0276 6.37615 36.057 6.4195 36.0863 6.49176C36.1157 6.56401 36.1304 6.65072 36.1304 6.75187V8.44261L37.2472 7.31545C37.4677 7.31545 37.6587 7.35881 37.7909 7.45996C37.9232 7.56112 37.9967 7.67672 37.9967 7.83568C37.9967 7.89348 37.982 7.96574 37.9673 8.00909C37.9526 8.06689 37.9085 8.11025 37.8644 8.16805C37.8203 8.22585 37.7615 8.28366 37.6881 8.34146C37.6146 8.39926 37.5264 8.47152 37.4383 8.55822L37.0562 8.87614L38.0995 9.9166Z" fill="white"/>
    <path d="M38.4375 6.50577C38.4375 6.34681 38.4963 6.2023 38.5991 6.10114C38.7167 5.98554 38.8636 5.92773 39.04 5.92773C39.2163 5.92773 39.3633 5.98554 39.4808 6.10114C39.5984 6.21675 39.6425 6.34681 39.6425 6.50577C39.6425 6.66472 39.5837 6.80923 39.4808 6.91039C39.3633 7.02599 39.2163 7.0838 39.04 7.0838C38.8636 7.0838 38.7167 7.02599 38.5991 6.91039C38.4816 6.80923 38.4375 6.66472 38.4375 6.50577ZM39.5984 10.4797C39.5543 10.4942 39.4808 10.4942 39.3927 10.5086C39.3045 10.5231 39.2016 10.5375 39.1135 10.5375C39.0106 10.5375 38.9371 10.5375 38.849 10.5231C38.7755 10.5086 38.702 10.4797 38.6579 10.4508C38.5991 10.4075 38.5698 10.3641 38.5404 10.2919C38.511 10.2196 38.4963 10.1329 38.4963 10.0318V7.41617C38.5404 7.40172 38.6138 7.40172 38.702 7.38726C38.7902 7.37281 38.893 7.35836 38.9812 7.35836C39.0841 7.35836 39.1575 7.35836 39.2457 7.37281C39.3192 7.38726 39.3927 7.41617 39.4367 7.44507C39.4955 7.48842 39.5249 7.53177 39.5543 7.60403C39.5837 7.67628 39.5984 7.76299 39.5984 7.86414V10.4797Z" fill="white"/>
    <path d="M40.6262 9.68457C40.5822 9.58341 40.5234 9.45336 40.4793 9.3233C40.4205 9.19324 40.3617 9.03428 40.303 8.86087C40.2442 8.68746 40.1854 8.4996 40.1266 8.26839C40.0678 8.05163 39.9944 7.79152 39.9209 7.5025C39.9797 7.4447 40.0678 7.38689 40.1707 7.34354C40.2736 7.30019 40.3911 7.27129 40.5087 7.27129C40.6556 7.27129 40.7879 7.30019 40.8908 7.35799C40.9936 7.41579 41.0671 7.5314 41.1112 7.70481L41.6255 9.46781H41.6549C41.7137 9.3233 41.7577 9.16434 41.8018 8.99093C41.8459 8.81752 41.9047 8.64411 41.9488 8.45625C41.9929 8.26839 42.0369 8.09498 42.081 7.90712C42.1251 7.71926 42.1545 7.54585 42.1839 7.37244C42.3455 7.28574 42.5072 7.25684 42.6982 7.25684C42.8452 7.25684 42.9774 7.28574 43.0803 7.35799C43.1831 7.41579 43.2272 7.5314 43.2272 7.69036C43.2272 7.80597 43.2125 7.93602 43.1831 8.09498C43.1538 8.25394 43.1097 8.4129 43.0656 8.58631C43.0215 8.75972 42.9627 8.93313 42.8892 9.12099C42.8158 9.30885 42.757 9.48226 42.6835 9.65567C42.61 9.82908 42.5366 10.0025 42.4484 10.147C42.3749 10.306 42.2868 10.4505 42.2133 10.5661C42.0957 10.7684 41.9782 10.9418 41.8753 11.0863C41.7724 11.2164 41.6696 11.3175 41.5814 11.4042C41.4785 11.4765 41.3904 11.5343 41.2875 11.5632C41.1846 11.5921 41.0965 11.6065 40.9936 11.6065C40.8173 11.6065 40.6703 11.5487 40.5528 11.4476C40.4352 11.3464 40.3764 11.2019 40.347 11.0285C40.4793 10.9273 40.6262 10.7973 40.7585 10.6672C40.8908 10.5372 41.023 10.4071 41.1406 10.2626C41.0671 10.2482 40.9936 10.1903 40.9055 10.1181C40.8173 10.0603 40.7291 9.91578 40.6262 9.68457Z" fill="white"/>
    <path d="M45.2108 10.5954C44.961 10.5954 44.7112 10.5665 44.4908 10.4942C44.2704 10.422 44.0793 10.3208 43.9177 10.1763C43.756 10.0318 43.6238 9.85837 43.5356 9.64161C43.4475 9.42485 43.3887 9.17919 43.3887 8.89017C43.3887 8.60115 43.4328 8.36994 43.5356 8.16763C43.6238 7.96532 43.756 7.79191 43.903 7.66185C44.0499 7.5318 44.2263 7.43064 44.432 7.37284C44.623 7.31503 44.8288 7.28613 45.0345 7.28613C45.2696 7.28613 45.4753 7.31503 45.6664 7.38729C45.8574 7.45954 46.019 7.54625 46.1513 7.6763C46.2835 7.79191 46.4011 7.93642 46.4746 8.10983C46.548 8.28324 46.5921 8.45665 46.5921 8.65896C46.5921 8.80347 46.548 8.91907 46.4746 8.99133C46.3864 9.06358 46.2835 9.12138 46.1219 9.13583L44.5055 9.36705C44.5496 9.51155 44.6524 9.61271 44.7994 9.68496C44.9463 9.75722 45.1227 9.78612 45.3137 9.78612C45.49 9.78612 45.6664 9.75722 45.8133 9.71387C45.975 9.67051 46.1072 9.61271 46.1954 9.55491C46.2688 9.59826 46.3276 9.65606 46.3717 9.72832C46.4158 9.80057 46.4452 9.88728 46.4452 9.97398C46.4452 10.1618 46.357 10.3063 46.166 10.4075C46.0337 10.4798 45.8721 10.5231 45.6957 10.552C45.5194 10.5809 45.3578 10.5954 45.2108 10.5954ZM45.0198 8.06648C44.9169 8.06648 44.8288 8.08093 44.7553 8.12428C44.6818 8.15318 44.623 8.19653 44.5643 8.25434C44.5202 8.31214 44.4761 8.36994 44.4614 8.42774C44.432 8.5 44.4173 8.5578 44.4173 8.63006L45.5341 8.45665C45.5194 8.36994 45.4753 8.28324 45.3872 8.19653C45.3137 8.10983 45.1814 8.06648 45.0198 8.06648Z" fill="white"/>
    <path d="M7.122 0.464906C4.40347 0.450455 3.66873 2.96489 0.950195 2.95044C1.71432 4.75679 2.08169 5.66719 2.83113 7.47354C4.37408 7.47354 5.31454 6.73655 6.25501 5.98511C6.34318 5.91286 6.43135 5.8406 6.51952 5.76835C6.5636 5.58049 6.62238 5.39263 6.68116 5.20477C6.62238 5.21922 6.5489 5.23367 6.49013 5.23367C6.47543 5.23367 6.46074 5.23367 6.44604 5.23367C6.2844 5.21922 6.13745 5.17586 6.0052 5.07471C5.87295 4.97355 5.77008 4.82905 5.69661 4.65564C5.62313 4.48223 5.59374 4.30882 5.60844 4.13541C5.62313 3.962 5.68191 3.81749 5.77008 3.68743C5.85825 3.55738 5.9905 3.45622 6.15215 3.39842C6.38726 3.29726 6.62238 3.29726 6.8575 3.38397C7.07792 3.47067 7.23956 3.64408 7.37181 3.87529C7.51876 3.64408 7.6951 3.42732 7.88613 3.22501C7.9743 3.12385 8.07716 3.03715 8.16533 2.93599C7.79796 2.06894 7.34242 0.985134 7.122 0.464906ZM3.97732 4.51113C3.85976 4.56893 3.72751 4.59783 3.60995 4.59783C3.49239 4.59783 3.38953 4.56893 3.27197 4.52558C3.05155 4.42442 2.87521 4.25101 2.74296 4.00535C2.6107 3.74524 2.59601 3.51402 2.68418 3.29726C2.77235 3.0805 2.94868 2.90709 3.1985 2.79148C3.44831 2.67588 3.68342 2.66143 3.90385 2.73368C4.12427 2.82038 4.3006 2.99379 4.41816 3.26836C4.53572 3.52847 4.55042 3.78859 4.46225 4.0198C4.37408 4.23656 4.21244 4.40997 3.97732 4.51113ZM5.35863 3.97645C5.22638 4.54003 5.09412 5.11806 5.03534 5.8695C5.03534 5.88395 5.02065 5.8984 5.00595 5.91286C4.81492 6.01401 4.71206 6.05736 4.53572 6.14407C4.52103 6.14407 4.52103 6.14407 4.50633 6.14407C4.49164 6.14407 4.49164 6.14407 4.47694 6.12962C4.46225 6.11517 4.44755 6.10072 4.44755 6.08626C4.47694 5.21922 4.62389 4.59783 4.78553 3.9331C4.91778 3.36952 5.05004 2.79148 5.10882 2.04004C5.10882 2.02559 5.12351 2.01114 5.13821 1.99669C5.32924 1.89553 5.4321 1.85218 5.60844 1.76548C5.62313 1.75103 5.65252 1.76548 5.66722 1.76548C5.68191 1.77993 5.69661 1.79438 5.69661 1.80883C5.65252 2.69033 5.50558 3.32616 5.35863 3.97645Z" fill="white"/>
    <path d="M3.63885 3.21054C3.59477 3.18164 3.55068 3.18164 3.5066 3.18164C3.46251 3.18164 3.41843 3.19609 3.37434 3.21054C3.28618 3.25389 3.2274 3.3117 3.2127 3.3984C3.18331 3.49956 3.2127 3.60071 3.27148 3.74522C3.33026 3.88973 3.41843 3.97643 3.5066 4.03424C3.59477 4.07759 3.66824 4.09204 3.75641 4.04869C3.84458 4.00534 3.88866 3.94753 3.91805 3.86083C3.93275 3.75967 3.91805 3.64407 3.85927 3.49956C3.80049 3.35505 3.72702 3.26835 3.63885 3.21054Z" fill="white"/>
    <path d="M6.8868 4.49657C6.9015 4.39541 6.8868 4.29426 6.82802 4.14975C6.76924 4.00524 6.68107 3.91854 6.59291 3.86074C6.54882 3.83183 6.50474 3.81738 6.46065 3.81738C6.43126 3.81738 6.38718 3.83183 6.34309 3.84628C6.25493 3.88964 6.21084 3.94744 6.18145 4.03414C6.15206 4.1353 6.18145 4.25091 6.24023 4.39541C6.29901 4.53992 6.37248 4.64108 6.46065 4.68443C6.53413 4.72778 6.62229 4.72778 6.71046 4.68443C6.81333 4.65553 6.87211 4.58327 6.8868 4.49657Z" fill="white"/>
    <path fill-rule="evenodd" clip-rule="evenodd" d="M16.7615 7.37283C17.8636 7.01156 18.9657 5.89885 19.5682 4.54047C19.5682 4.54047 20.2883 4.974 20.5528 5.04625C20.0531 6.75144 18.9804 8.89016 16.3941 10.0029C16.0415 10.1474 15.7476 10.4364 15.5565 10.7688C14.2046 13.182 12.0886 15.6387 11.3685 16.4479C11.2363 16.5924 11.0012 16.578 10.8983 16.419C10.4868 15.8265 9.56107 14.4537 8.69408 12.8641C8.41488 12.3873 7.65075 12.4162 7.31277 12.5173C6.9307 12.6185 6.21066 12.8497 5.62287 13.2398L6.28413 14.8583C6.31352 14.9161 6.28413 14.9739 6.22536 15.0028L5.90207 15.1329C5.84329 15.1618 5.78451 15.1329 5.75512 15.0751L5.22611 13.8612C5.25704 13.8511 5.28073 13.8338 5.30735 13.8145C5.31867 13.8062 5.33051 13.7976 5.34367 13.789C5.40964 13.7371 5.44007 13.6968 5.47751 13.6473C5.48177 13.6417 5.48612 13.6359 5.49062 13.63C5.49775 13.616 5.50574 13.602 5.51398 13.5875C5.53967 13.5425 5.56766 13.4934 5.57879 13.4277V13.2977V13.2832C5.57879 13.2687 5.57879 13.2543 5.56409 13.2254C5.56409 13.1965 5.5494 13.1676 5.5347 13.1531C5.47592 13.0664 5.41714 13.0231 5.32897 12.9797H5.31428C5.32897 12.9075 5.31428 12.8208 5.2702 12.7341C5.22611 12.6474 5.13794 12.5751 5.06447 12.5462C5.05712 12.5462 5.04977 12.5426 5.04243 12.539C5.03508 12.5354 5.02773 12.5318 5.02038 12.5318C5.03508 12.4884 5.03508 12.4451 5.03508 12.3873C5.03508 12.3439 5.02038 12.3005 5.00569 12.2716C4.99528 12.2614 4.98671 12.2512 4.97868 12.2416C4.96404 12.2241 4.95119 12.2087 4.93222 12.1994C4.87344 12.156 4.82935 12.1271 4.77057 12.1127C4.84405 12.156 4.93222 12.2427 4.94691 12.315C4.99099 12.474 4.81466 12.6763 4.81466 12.6763C4.81466 12.6763 4.94691 12.6618 4.99099 12.6907C5.13794 12.763 5.18203 12.9075 5.13794 13.052C5.10855 13.1098 5.10855 13.1531 5.10855 13.1531C5.21142 13.1098 5.37306 13.1965 5.40245 13.3121C5.41714 13.4277 5.32897 13.5578 5.2555 13.63C5.18809 13.6963 5.09593 13.7261 5.01308 13.7529C5.00564 13.7553 4.99827 13.7577 4.99099 13.7601C4.98478 13.7613 4.97868 13.7625 4.97266 13.7637C4.90748 13.7768 4.85253 13.7878 4.78527 13.7745C4.71179 13.7601 4.62363 13.7167 4.59424 13.63C4.57954 13.6011 4.56485 13.5578 4.56485 13.5V13.4422H4.47668C4.24156 13.3988 4.10931 13.1531 4.15339 12.9219C4.15984 12.9093 4.16345 12.8966 4.16672 12.8851C4.17091 12.8705 4.17453 12.8578 4.18278 12.8497C4.17436 12.8414 4.17076 12.8379 4.16646 12.8363C4.16326 12.8352 4.15966 12.8352 4.15339 12.8352C4.1387 12.8352 4.124 12.8352 4.10931 12.8208C3.97706 12.7485 3.91828 12.5462 3.96236 12.4017C3.99175 12.315 4.05053 12.2427 4.10931 12.1994C4.21217 12.1127 4.32973 12.0549 4.46198 12.0404L0.465004 2.83528C0.42092 2.73412 0.479699 2.61852 0.582563 2.57516L1.02341 2.40175C1.12627 2.37285 1.24383 2.4162 1.28791 2.51736L4.78527 11.1589C4.72649 11.1589 4.66771 11.1878 4.62363 11.2167C4.53546 11.289 4.47668 11.3757 4.46198 11.4624C4.44729 11.5491 4.47668 11.6503 4.53546 11.7081C4.59424 11.7514 4.66771 11.7803 4.72649 11.7948C4.63832 11.7514 4.56485 11.6647 4.56485 11.5636C4.56485 11.4913 4.60893 11.419 4.6824 11.3757C4.72649 11.3468 4.75588 11.3468 4.79996 11.3468C5.0129 11.3578 5.21729 11.4361 5.41314 11.5111C5.47408 11.5344 5.53419 11.5574 5.59348 11.578L5.59349 11.578C5.68165 11.5347 5.76982 11.4913 5.84329 11.4335C5.90129 11.3872 5.95951 11.341 6.01776 11.2949C6.4318 10.9669 6.84739 10.6377 7.19521 10.2196C7.31277 10.0896 7.34216 9.90171 7.28338 9.72831C6.91601 8.7023 6.71028 7.7341 6.78376 6.92485C7.04826 4.22255 9.34065 2.15609 12.1033 2.3295C14.7924 2.50291 16.8203 4.74278 16.7615 7.37283ZM11.354 4.85825C11.2217 4.49698 10.8543 4.35247 10.5311 4.54033C9.98735 4.8438 10.1637 6.02876 10.8837 5.82645C11.2658 5.72529 11.4862 5.20507 11.354 4.85825ZM9.5465 7.01141C9.69345 7.17037 9.8404 7.31488 10.0167 7.43049C10.1784 7.56054 10.3694 7.6617 10.5604 7.7484C10.9425 7.92181 11.3393 8.05187 11.7654 8.09522C12.1769 8.16748 12.603 8.13858 13.0145 8.06632C13.0439 8.0591 13.0696 8.05548 13.0953 8.05187L13.0953 8.05187C13.121 8.04826 13.1467 8.04465 13.1761 8.03742L13.3231 7.99407L13.3231 7.99407C13.4259 7.96516 13.5288 7.93626 13.617 7.89291C13.6473 7.88011 13.6777 7.86857 13.7077 7.85717L13.7077 7.85717C13.7793 7.82997 13.8487 7.80359 13.9109 7.76286C13.999 7.70505 14.1019 7.6617 14.2047 7.61835L14.2047 7.61835C14.146 8.23973 13.7492 8.73106 13.2643 9.02007C12.7647 9.30909 12.1622 9.41025 11.6038 9.33799C11.0454 9.26574 10.5164 9.00562 10.1196 8.61545C9.92857 8.41314 9.75223 8.18193 9.64937 7.90736C9.63667 7.87614 9.62671 7.84492 9.61713 7.81486L9.61712 7.81485L9.61712 7.81484L9.61712 7.81483C9.60453 7.77535 9.59258 7.73787 9.57589 7.70505C9.5612 7.6328 9.5465 7.56054 9.53181 7.47384C9.48772 7.32933 9.50242 7.15592 9.5465 7.01141ZM12.9263 5.10391C12.8087 5.16171 12.7059 5.23397 12.6177 5.34957C12.5736 5.39293 12.5589 5.46518 12.5883 5.52298C12.603 5.62414 12.7206 5.69639 12.8234 5.66749L12.9263 5.60969C12.9397 5.60531 12.9557 5.59961 12.9732 5.59339L12.9732 5.59338L12.9732 5.59338C13.0135 5.57905 13.0617 5.56196 13.1026 5.55188C13.132 5.55188 13.1651 5.54827 13.1982 5.54466C13.2312 5.54105 13.2643 5.53743 13.2937 5.53743C13.3525 5.53743 13.4259 5.55188 13.4994 5.56634C13.5422 5.58317 13.585 5.5951 13.6307 5.60785L13.6307 5.60785C13.6635 5.61698 13.6977 5.62652 13.7345 5.63859H13.7639C13.8374 5.66749 13.9255 5.63859 13.9843 5.58079C14.0725 5.49408 14.0578 5.34957 13.9696 5.27732C13.9476 5.26287 13.9255 5.24481 13.9035 5.22674C13.8815 5.20868 13.8594 5.19062 13.8374 5.17616C13.7938 5.16545 13.7583 5.14678 13.7189 5.12606C13.7051 5.11884 13.6909 5.11138 13.6757 5.10391C13.5582 5.06056 13.4406 5.03166 13.3084 5.03166C13.1761 5.03166 13.0439 5.04611 12.9263 5.10391Z" fill="white"/>
    <path d="M21.4787 4.46791C21.3318 4.36675 21.1849 4.46791 21.0673 4.58351C21.0526 4.59797 21.0379 4.58351 21.0526 4.56906C21.5522 3.88988 21.1555 3.42745 20.6411 4.09219C20.6264 4.10664 20.5971 4.09219 20.6118 4.07774C20.7146 3.75982 20.7293 3.28294 20.3472 3.39855C20.0093 3.4997 20.0387 4.14999 19.7595 4.2945C18.9512 2.89277 19.0982 5.53727 19.4656 5.85518C19.9946 6.33206 21.3759 5.2627 21.5816 4.72802C21.5963 4.62687 21.5669 4.51126 21.4787 4.46791Z" fill="white"/>
    <path d="M11.3099 18.1233C13.4281 18.1233 15.1453 17.9357 15.1453 17.7042C15.1453 17.4728 13.4281 17.2852 11.3099 17.2852C9.19175 17.2852 7.47461 17.4728 7.47461 17.7042C7.47461 17.9357 9.19175 18.1233 11.3099 18.1233Z" fill="white"/>
</svg>
